<?xml version="1.0" encoding="utf-8"?>
<!-- Generator: Adobe Illustrator 24.0.3, SVG Export Plug-In . SVG Version: 6.00 Build 0)  -->
<svg version="1.1" id="Calque_1" xmlns="http://www.w3.org/2000/svg" xmlns:xlink="http://www.w3.org/1999/xlink" x="0px" y="0px"
	 viewBox="0 0 289.2 289.2" style="enable-background:new 0 0 289.2 289.2;" xml:space="preserve">
<style type="text/css">
	.st0{fill:#49a7ad;}
	.st1{fill:#FFFFFF;}
</style>
<title>page</title>
<path class="st0" d="M34,0.5h221.2c18.6,0,33.7,15.1,33.7,33.7v221.2c0,18.6-15.1,33.7-33.7,33.7H34c-18.6,0-33.7-15.1-33.7-33.7
	V34.2C0.3,15.6,15.4,0.5,34,0.5z"/>
<path class="st1" d="M222.8,99.7c1.1,1.1,2.2,2.4,3,3.9h-50.4V53.2c1.4,0.8,2.6,1.9,3.9,3L222.8,99.7z M172,117.2h58v112.6
	c0,5.6-4.5,10.3-10.2,10.3h-0.1H76.5c-5.6,0-10.2-4.5-10.3-10.2v-0.1V59.3c0-5.6,4.5-10.3,10.2-10.3h0.1h85.3v58
	C161.7,112.6,166.3,117.2,172,117.2C171.9,117.2,172,117.2,172,117.2L172,117.2z M189,195.8V189c0.1-1.8-1.3-3.3-3.2-3.4
	c-0.1,0-0.2,0-0.3,0h-75c-1.8-0.1-3.3,1.3-3.4,3.2c0,0.1,0,0.2,0,0.3v6.8c-0.1,1.8,1.3,3.3,3.2,3.4c0.1,0,0.2,0,0.3,0h75
	c1.8,0.1,3.3-1.3,3.4-3.2C189,195.9,189,195.8,189,195.8z M189,168.5v-6.8c0.1-1.8-1.3-3.3-3.2-3.4c-0.1,0-0.2,0-0.3,0h-75
	c-1.8-0.1-3.3,1.3-3.4,3.2c0,0.1,0,0.2,0,0.3v6.8c-0.1,1.8,1.3,3.3,3.2,3.4c0.1,0,0.2,0,0.3,0h75c1.8,0.1,3.3-1.3,3.4-3.2
	C189,168.6,189,168.5,189,168.5z M189,141.2v-6.8c0.1-1.8-1.3-3.3-3.2-3.4c-0.1,0-0.2,0-0.3,0h-75c-1.8-0.1-3.3,1.3-3.4,3.2
	c0,0.1,0,0.2,0,0.3v6.8c-0.1,1.8,1.3,3.3,3.2,3.4c0.1,0,0.2,0,0.3,0h75c1.8,0.1,3.3-1.3,3.4-3.2C189,141.3,189,141.2,189,141.2z"/>
</svg>
