<?xml version="1.0" encoding="utf-8"?>
<!-- Generator: Adobe Illustrator 25.1.0, SVG Export Plug-In . SVG Version: 6.00 Build 0)  -->
<svg version="1.1" id="Calque_1" xmlns="http://www.w3.org/2000/svg" xmlns:xlink="http://www.w3.org/1999/xlink" x="0px" y="0px"
	 viewBox="0 0 16 16" style="enable-background:new 0 0 16 16;" xml:space="preserve">
<style type="text/css">
	.st0{fill:#B2B8EB;}
</style>
<path class="st0" d="M10,0v2H6V0H10z M11,2h1c1.1,0,2,0.9,2,2v1h2V2c0-1.1-0.9-2-2-2h-3V2z M16,6h-2v4h2V6z M14,11v1
	c0,1.1-0.9,2-2,2h-1v2h3c1.1,0,2-0.9,2-2v-3H14z M10,16v-2H6v2H10z M5,14H4c-1.1,0-2-0.9-2-2v-1H0v3c0,1.1,0.9,2,2,2h3V14z M0,10h2
	V6H0V10z M2,5V4c0-1.1,0.9-2,2-2h1V0H2C0.9,0,0,0.9,0,2v3H2z"/>
</svg>
