<?xml version="1.0" encoding="utf-8"?>
<!-- Generator: Adobe Illustrator 24.0.3, SVG Export Plug-In . SVG Version: 6.00 Build 0)  -->
<svg version="1.1" id="Calque_1" xmlns="http://www.w3.org/2000/svg" xmlns:xlink="http://www.w3.org/1999/xlink" x="0px" y="0px"
	 viewBox="0 0 289.2 289.2" style="enable-background:new 0 0 289.2 289.2;" xml:space="preserve">
<style type="text/css">
	.st0{fill:#49a7ad;}
	.st1{fill:#FFFFFF;}
</style>
<title>galerie</title>
<path class="st0" d="M34-0.5h222.1c18.6,0,33.7,15.1,33.7,33.7v222.1c0,18.6-15.1,33.7-33.7,33.7H34c-18.6,0-33.7-15.1-33.7-33.7
	V33.2C0.3,14.6,15.4-0.5,34-0.5z"/>
<path class="st1" d="M110.6,110.7c0,11.3-9.1,20.4-20.3,20.5c-0.1,0-0.1,0-0.2,0c-11.3,0-20.5-9.2-20.5-20.6c0-5.4,2.2-10.6,6-14.4
	c8-7.9,21-7.9,29,0C108.5,99.9,110.7,105.2,110.6,110.7z M219.9,151.7v47.8H69.6V179l34.2-34.2l17.1,17.1l54.6-54.7L219.9,151.7z
	 M230.2,76.5H59.4c-1.9,0-3.4,1.5-3.4,3.4v129.8c0,1.9,1.5,3.4,3.4,3.4h170.8c1.9,0,3.4-1.5,3.4-3.4V79.9
	C233.6,78,232,76.5,230.2,76.5z M247.2,79.9v129.8c0,9.4-7.7,17.1-17.1,17.1H59.4c-9.4,0-17.1-7.7-17.1-17.1V79.9
	c0-9.4,7.7-17.1,17.1-17.1h170.8C239.6,62.9,247.2,70.5,247.2,79.9z"/>
</svg>
