<?xml version="1.0" encoding="utf-8"?>
<!-- Generator: Adobe Illustrator 24.0.3, SVG Export Plug-In . SVG Version: 6.00 Build 0)  -->
<svg version="1.1" id="Calque_1" xmlns="http://www.w3.org/2000/svg" xmlns:xlink="http://www.w3.org/1999/xlink" x="0px" y="0px"
	 viewBox="0 0 289.2 289.2" style="enable-background:new 0 0 289.2 289.2;" xml:space="preserve">
<style type="text/css">
	.st0{fill:#49a7ad;}
	.st1{fill:#FFFFFF;}
</style>
<title>fichier</title>
<path class="st0" d="M33.9-0.5h221.6c18.6,0,33.6,15.1,33.6,33.7v222.1c0,18.6-15.1,33.7-33.6,33.7H33.9
	c-18.6,0-33.6-15.1-33.6-33.7V33.2C0.3,14.6,15.4-0.5,33.9-0.5z"/>
<path class="st1" d="M175.6,98.5V45.3c1.5,0.9,3,1.9,4.2,3.2l48.2,46c1.3,1.3,2.3,2.6,3.3,4H175.6L175.6,98.5z M160.5,102.1
	c0,2.9,1.2,5.7,3.3,7.6c2.1,2.1,5,3.2,8,3.2h64.3v119c0,2.9-1.2,5.7-3.3,7.6c-2.1,2.1-5,3.2-8,3.2h-159c-3,0.1-5.9-1.1-8-3.2
	c-2.1-1.9-3.4-4.7-3.3-7.6V51.6c0-2.9,1.2-5.7,3.3-7.7c2.1-2.1,5-3.2,8-3.2h94.6L160.5,102.1z"/>
</svg>
