<?xml version="1.0" encoding="utf-8"?>
<!-- Generator: Adobe Illustrator 24.0.3, SVG Export Plug-In . SVG Version: 6.00 Build 0)  -->
<svg version="1.1" id="Calque_1" xmlns="http://www.w3.org/2000/svg" xmlns:xlink="http://www.w3.org/1999/xlink" x="0px" y="0px"
	 viewBox="0 0 289.2 289.2" style="enable-background:new 0 0 289.2 289.2;" xml:space="preserve">
<style type="text/css">
	.st0{fill:#76bbff;}
	.st1{fill:#FFFFFF;}
</style>
<title>paquetageSCORM</title>
<path class="st0" d="M34-0.5h221.2c18.6,0,33.7,15.1,33.7,33.7v221.2c0,18.6-15.1,33.7-33.7,33.7H34c-18.6,0-33.7-15.1-33.7-33.7
	V33.2C0.3,14.6,15.4-0.5,34-0.5z"/>
<path class="st1" d="M169.7,137c-0.1-4-3.3-7.2-7.3-7.3h-29c-4,0-7.3,3.3-7.3,7.3s3.3,7.3,7.3,7.3h29
	C166.4,144.2,169.6,141,169.7,137L169.7,137z M235,115.3v108.9c-0.1,4-3.3,7.2-7.3,7.3H68c-4-0.1-7.2-3.3-7.3-7.3V115.3
	c0.1-4,3.3-7.2,7.3-7.3h159.8C231.8,108.1,235,111.3,235,115.3L235,115.3z M242.3,64.4v29c-0.1,4-3.3,7.2-7.3,7.3H60.7
	c-4-0.1-7.2-3.3-7.3-7.3v-29c0.1-4,3.3-7.2,7.3-7.3H235C239,57.2,242.2,60.4,242.3,64.4z"/>
</svg>
