<?xml version="1.0" encoding="utf-8"?>
<!-- Generator: Adobe Illustrator 24.0.3, SVG Export Plug-In . SVG Version: 6.00 Build 0)  -->
<svg version="1.1" id="Calque_1" xmlns="http://www.w3.org/2000/svg" xmlns:xlink="http://www.w3.org/1999/xlink" x="0px" y="0px"
	 viewBox="0 0 289.2 289.2" style="enable-background:new 0 0 289.2 289.2;" xml:space="preserve">
<style type="text/css">
	.st0{fill:#49a7ad;}
	.st1{fill:#FFFFFF;stroke:#49a7ad;stroke-width:2;stroke-miterlimit:10;}
	.st2{fill:#F9F9F9;stroke:#49a7ad;stroke-width:2;stroke-miterlimit:10;}
</style>
<title>icon</title>
<path class="st0" d="M34,0.5h221.2c18.6,0,33.7,15.1,33.7,33.7v221.2c0,18.6-15.1,33.7-33.7,33.7H34c-18.6,0-33.7-15.1-33.7-33.7
	V34.2C0.3,15.6,15.4,0.5,34,0.5z"/>
<path class="st1" d="M153.8,95.2c0-2.1-1.7-3.8-3.8-3.8h-15.3c-2.1,0-3.8,1.7-3.8,3.8s1.7,3.8,3.8,3.8H150
	C152,99,153.7,97.3,153.8,95.2L153.8,95.2z M188.3,83.7v57.5c0,2.1-1.7,3.8-3.8,3.8h-84.4c-2.1,0-3.8-1.7-3.8-3.8V83.7
	c0-2.1,1.7-3.8,3.8-3.8h84.4C186.6,79.9,188.2,81.6,188.3,83.7z M192.1,56.8v15.3c0,2.1-1.7,3.8-3.8,3.8h-92c-2.1,0-3.8-1.7-3.8-3.8
	V56.8c0-2.1,1.7-3.8,3.8-3.8h92C190.4,53,192,54.7,192.1,56.8L192.1,56.8z"/>
<path class="st1" d="M107.8,187.2c0-2.1-1.7-3.8-3.8-3.8H88.6c-2.1,0-3.8,1.7-3.8,3.8s1.7,3.8,3.8,3.8h15.3
	C106,191,107.7,189.3,107.8,187.2L107.8,187.2z M142.3,175.7v57.5c0,2.1-1.7,3.8-3.8,3.8H54.1c-2.1,0-3.8-1.7-3.8-3.8v-57.5
	c0-2.1,1.7-3.8,3.8-3.8h84.4C140.5,171.9,142.2,173.6,142.3,175.7L142.3,175.7z M146.1,148.9v15.3c0,2.1-1.7,3.8-3.8,3.8h-92
	c-2.1,0-3.8-1.7-3.8-3.8v-15.3c0-2.1,1.7-3.8,3.8-3.9h92C144.3,145,146,146.7,146.1,148.9L146.1,148.9z"/>
<path class="st2" d="M199.8,187.2c0-2.1-1.7-3.8-3.8-3.8h-15.3c-2.1,0-3.8,1.7-3.8,3.8s1.7,3.8,3.8,3.8H196
	C198.1,191,199.8,189.3,199.8,187.2L199.8,187.2z M234.3,175.7v57.5c0,2.1-1.7,3.8-3.8,3.8h-84.4c-2.1,0-3.8-1.7-3.8-3.8v-57.5
	c0-2.1,1.7-3.8,3.8-3.8h84.4C232.6,171.9,234.3,173.6,234.3,175.7L234.3,175.7z M238.1,148.9v15.3c0,2.1-1.7,3.8-3.8,3.8h-92
	c-2.1,0-3.8-1.7-3.8-3.8v-15.3c0-2.1,1.7-3.8,3.8-3.8h92C236.4,145.1,238.1,146.8,238.1,148.9L238.1,148.9z"/>
</svg>
