<?xml version="1.0" encoding="utf-8"?>
<!-- Generator: Adobe Illustrator 24.0.3, SVG Export Plug-In . SVG Version: 6.00 Build 0)  -->
<svg version="1.1" id="Calque_1" xmlns="http://www.w3.org/2000/svg" xmlns:xlink="http://www.w3.org/1999/xlink" x="0px" y="0px"
	 viewBox="0 0 596.8 600" style="enable-background:new 0 0 596.8 600;" xml:space="preserve">
<style type="text/css">
	.st0{fill:#76bbff;}
	.st1{fill:#FFFFFF;}
</style>
<title>quiz</title>
<path class="st0" d="M69.9,3.1h457c38.6,0,69.9,31.3,69.9,69.9v457c0,38.6-31.3,69.9-69.9,69.9h-457C31.3,600,0,568.7,0,530V73
	C0,34.4,31.3,3.1,69.9,3.1z"/>
<path class="st1" d="M276.7,407.4L432.1,252c6.3-6.1,6.5-16.2,0.3-22.5c-0.1-0.1-0.2-0.2-0.3-0.4l-25.8-25.8
	c-6.1-6.3-16.2-6.5-22.5-0.4c-0.1,0.1-0.2,0.2-0.4,0.4L265.2,321.6l-53.4-53.4c-6.1-6.3-16.2-6.5-22.5-0.4c-0.1,0.1-0.2,0.2-0.4,0.4
	L163.2,294c-6.3,6.1-6.5,16.2-0.3,22.5c0.1,0.1,0.2,0.2,0.3,0.4l90.6,90.6c6.1,6.3,16.2,6.5,22.5,0.4
	C276.4,407.6,276.5,407.5,276.7,407.4L276.7,407.4z M492.1,183.9v243c-0.1,40.2-32.7,72.8-72.9,72.9h-243
	c-40.2-0.1-72.8-32.7-72.9-72.9v-243c0.1-40.2,32.7-72.8,72.9-72.9h243C459.4,111.1,492,143.7,492.1,183.9L492.1,183.9z"/>
</svg>
