<?xml version="1.0" encoding="utf-8"?>
<!-- Generator: Adobe Illustrator 24.0.3, SVG Export Plug-In . SVG Version: 6.00 Build 0)  -->
<svg version="1.1" id="Calque_1" xmlns="http://www.w3.org/2000/svg" xmlns:xlink="http://www.w3.org/1999/xlink" x="0px" y="0px"
	 viewBox="0 0 600.6 600" style="enable-background:new 0 0 600.6 600;" xml:space="preserve">
<style type="text/css">
	.st0{fill:#76bbff;}
	.st1{fill:#FFFFFF;}
</style>
<title>consultation</title>
<path class="st0" d="M69.9-1h460.8c38.6,0,69.9,31.3,69.9,69.9v460.8c0,38.6-31.3,69.9-69.9,69.9H69.9C31.3,599.6,0,568.3,0,529.7
	V68.9C0,30.3,31.3-1,69.9-1z"/>
<path class="st1" d="M217.6,288.7v113.2H161V288.7H217.6z M302.5,175.5v226.4h-56.6V175.5H302.5z M528.8,430.2v28.3H76.1V118.9h28.3
	v311.2L528.8,430.2z M387.3,232.1v169.8h-56.5V232.1H387.3z M472.2,147.3v254.6h-56.6V147.3H472.2z"/>
</svg>
