<?xml version="1.0" encoding="utf-8"?>
<!-- Generator: Adobe Illustrator 24.0.3, SVG Export Plug-In . SVG Version: 6.00 Build 0)  -->
<svg version="1.1" id="Calque_1" xmlns="http://www.w3.org/2000/svg" xmlns:xlink="http://www.w3.org/1999/xlink" x="0px" y="0px"
	 viewBox="0 0 599.6 600" style="enable-background:new 0 0 599.6 600;" xml:space="preserve">
<style type="text/css">
	.st0{fill:#49a7ad;}
	.st1{fill:#FFFFFF;}
</style>
<title>etiquette</title>
<path class="st0" d="M69.9,0h459.7c38.6,0,69.9,31.3,69.9,69.9v459.7c0,38.6-31.3,69.9-69.9,69.9H69.9C31.3,599.6,0,568.3,0,529.7
	V69.9C0,31.3,31.3,0,69.9,0z"/>
<path class="st1" d="M217.5,102.5c1.9,0,3.5,0.7,4.9,2.1s2.1,3,2.1,4.9v317.9c0,2.9-1.2,4.9-3.7,6l-103.7,55.3
	c-1,0.6-2.1,0.9-3.2,0.9c-1.9,0-3.5-0.7-4.9-2.1s-2.1-3-2.1-4.9V164.7c0-2.9,1.2-4.9,3.7-6l103.7-55.3
	C215.3,102.8,216.4,102.5,217.5,102.5z M487.1,102.5c1.9,0,3.5,0.7,4.9,2.1s2.1,3,2.1,4.9v317.9c0,2.9-1.2,4.9-3.7,6l-103.7,55.3
	c-1,0.6-2.1,0.9-3.2,0.9c-1.9,0-3.5-0.7-4.9-2.1s-2.1-3-2.1-4.9V164.7c0-2.9,1.2-4.9,3.7-6l103.7-55.3
	C484.8,102.8,485.9,102.5,487.1,102.5z M245.2,102.5c1.2,0,2.2,0.2,3,0.6l110.6,55.3c2.6,1.4,3.9,3.5,3.9,6.3v317.9
	c0,1.9-0.7,3.5-2.1,4.9s-3,2.1-4.9,2.1c-1.2,0-2.2-0.2-3-0.6l-110.6-55.3c-2.6-1.4-3.9-3.5-3.9-6.3v-318c0-1.9,0.7-3.5,2.1-4.9
	S243.3,102.5,245.2,102.5z"/>
</svg>
