<?xml version="1.0" encoding="utf-8"?>
<!-- Generator: Adobe Illustrator 24.0.3, SVG Export Plug-In . SVG Version: 6.00 Build 0)  -->
<svg version="1.1" id="Calque_1" xmlns="http://www.w3.org/2000/svg" xmlns:xlink="http://www.w3.org/1999/xlink" x="0px" y="0px"
	 viewBox="0 0 598.9 600" style="enable-background:new 0 0 598.9 600;" xml:space="preserve">
<style type="text/css">
	.st0{fill:#76bbff;}
	.st1{fill:#FFFFFF;}
</style>
<title>wiki</title>
<path class="st0" d="M69.9,1.1h459c38.6,0,69.9,31.3,69.9,69.9v459c0,38.6-31.3,69.9-69.9,69.9h-459C31.3,600,0,568.7,0,530.1V71
	C0,32.4,31.3,1.1,69.9,1.1z"/>
<path class="st1" d="M235.2,277.4c0,17.3-14.1,31.3-31.4,31.3c-8.3,0-16.3-3.3-22.1-9.2c-12.3-12.2-12.3-32.1,0-44.4
	c12.2-12.3,32.1-12.3,44.4,0l0,0C232.1,261,235.4,269.1,235.2,277.4z M329.3,277.4c0,17.3-14.1,31.3-31.4,31.3s-31.3-14.1-31.3-31.4
	S280.7,246,298,246c8.3,0,16.3,3.3,22.1,9.2C326.1,261.1,329.4,269.1,329.3,277.4L329.3,277.4L329.3,277.4z M423.3,277.4
	c0,17.3-14.1,31.3-31.4,31.3s-31.3-14.1-31.3-31.4S374.7,246,392,246c8.3,0,16.2,3.3,22.1,9.2C420.1,261,423.5,269.1,423.3,277.4
	L423.3,277.4z M297.9,152c-31.9-0.2-63.6,5.5-93.4,17c-29,11.3-52.1,26.6-69.1,45.9s-25.5,40.1-25.6,62.5c0,18.3,5.8,35.7,17.5,52.3
	s28.1,30.9,49.3,43L198,385l-6.6,23.5c-3.9,14.7-9.6,28.9-17.1,42.1c24.6-10.1,47.4-24.3,67.3-41.8l10.5-9.3l14,1.5
	c10.6,1.3,21.2,1.9,31.8,2c31.9,0.2,63.6-5.5,93.4-17c29-11.3,52.1-26.6,69.1-45.9s25.5-40.1,25.6-62.5c0-22.4-8.5-43.2-25.6-62.5
	s-40.1-34.6-68.9-46C361.6,157.6,329.9,151.8,297.9,152z M517.4,277.4c0,28.4-9.8,54.7-29.4,78.8c-19.6,24.2-46.2,43.2-79.8,57.1
	c-33.6,14-70.4,20.9-110.2,20.9c-11.9,0-23.7-0.7-35.5-2c-32.2,28.5-70.9,48.9-112.7,59.3c-9.2,2.5-18.5,4.3-27.9,5.4h-1.2
	c-2.5,0-4.8-0.9-6.6-2.6c-2-1.8-3.4-4.2-3.9-6.8v-0.2c-0.5-0.9-0.6-2-0.1-2.9c0.3-0.8,0.5-1.6,0.5-2.4c-0.1-0.3,0.3-1.1,1.1-2.3
	l1.5-2.2l1.7-2.1l1.9-2.2c1.1-1.3,3.7-4.1,7.6-8.4l8.4-9.3c1.7-1.9,4.2-5.1,7.6-9.7c3-3.9,5.6-8.1,8-12.4c2-3.7,4.2-8.6,6.6-14.5
	c2.5-6.1,4.6-12.3,6.4-18.7c-25.6-14.5-45.8-32.5-60.6-53.9c-14.4-20.1-22.1-44.1-22.2-68.8c0.1-21.5,6.1-42.6,17.4-60.9
	c12-19.7,27.9-36.7,46.8-50c19.6-14,42.9-25.2,70-33.4c55.6-16.5,114.8-16.5,170.5,0c27.1,8.3,50.4,19.4,70,33.4
	c18.9,13.3,34.8,30.3,46.8,50.1C511.3,234.9,517.3,255.9,517.4,277.4z"/>
</svg>
