<?xml version="1.0" encoding="utf-8"?>
<!-- Generator: Adobe Illustrator 24.0.3, SVG Export Plug-In . SVG Version: 6.00 Build 0)  -->
<svg version="1.1" id="Calque_1" xmlns="http://www.w3.org/2000/svg" xmlns:xlink="http://www.w3.org/1999/xlink" x="0px" y="0px"
	 viewBox="0 0 289.2 289.2" style="enable-background:new 0 0 289.2 289.2;" xml:space="preserve">
<style type="text/css">
	.st0{fill:#76bbff;}
	.st1{fill:#FFFFFF;}
</style>
<title>icon</title>
<path class="st0" d="M34-0.5h221.2c18.6,0,33.7,15.1,33.7,33.7v221.2c0,18.6-15.1,33.7-33.7,33.7H34c-18.6,0-33.7-15.1-33.7-33.7
	V33.2C0.3,14.6,15.4-0.5,34-0.5z"/>
<path class="st1" d="M213.9,230.8h-4.8c-39.6,0-79.2,0-118.6,0c-2.4,0-4.9-0.2-7.2-0.9c-7.3-2.3-11.3-10.1-9-17.5
	c0.3-1.2,0.9-2.2,1.5-3.3c3.4-5.2,8.4-6.9,14.3-6.9c42,0.1,84.1,0.1,126.1,0c6.6,0,8.3-1.5,8.3-8c0-45.6,0-91.3,0-136.9
	c0-6.4-1.5-7.9-7.7-7.9c-42.4,0-84.6,0.2-127-0.1c-16.1-0.1-26.9,11.9-26.7,26.9c0.3,27.4,0.1,54.8,0.1,82.2c0,19.1-0.1,38.1,0,57.2
	c0.1,14.3,10.2,25.1,24.1,25.1c43.4,0.1,87,0.1,130.5,0c5,0,6.6-1.7,6.8-6.9c0.1-5.1,0-10.1,0-15.3c0-3.7-1.2-6.8-5.4-6.8
	c-4,0-5.1,3-5.1,6.5C213.8,222.4,213.9,226.3,213.9,230.8z"/>
<path class="st1" d="M213.9,230.8c0-4.5,0-8.4,0-12.3c0-3.5,1.2-6.4,5.1-6.5c4.2-0.1,5.4,3,5.4,6.8c0,5.1,0,10.1,0,15.3
	c0,5.1-1.7,6.9-6.8,6.9c-43.4,0-87,0.1-130.5,0c-14,0-24-10.8-24.1-25.1c-0.1-19.1,0-38.1,0-57.2c0-27.4,0.2-54.8-0.1-82.2
	c-0.2-15,10.5-27,26.7-26.9c42.4,0.3,84.6,0.1,127,0.1c6.3,0,7.7,1.5,7.7,7.9c0,45.6,0,91.3,0,136.9c0,6.5-1.6,8-8.3,8
	c-42,0-84.1,0-126,0c-5.9,0-10.9,1.5-14.3,6.9c-4.2,6.4-2.3,15,4.2,19.2c1,0.7,2.1,1.2,3.3,1.5c2.3,0.7,4.8,0.9,7.2,0.9
	c39.6,0,79.2,0,118.6,0L213.9,230.8z M86.7,158.8h10.2v-19.1h28.9v19.2h10v-50.1h-9.2l-0.6-9.9h-9.3l-0.6-9.2h-9.9l-0.5,9.2
	l-9.3,0.5l-0.6,9.4l-9.2,0.5V158.8z M164.6,100.2h38.8v8.4l-9.4,0.6l-0.5,9.5h-9.2l-0.6,9.7l-9.3,0.5l-0.7,9.3l-9.2,0.5v20.1h49.2
	v-10.7h-38.5v-8.4l9.2-0.5l0.7-9.8h9.2l0.7-10h9.2l0.5-9.5h9.3V89.5h-49.4V100.2z M141.9,129.3h22.9v-10.1h-22.9V129.3z"/>
<path class="st0" d="M86.7,158.8v-49.5l9.2-0.5l0.6-9.4l9.3-0.5l0.5-9.2h9.9l0.6,9.2h9.3l0.6,9.9h9.2v50.1h-10v-19.2H96.9v19.1H86.7
	z M125.4,110.1l-9.4-0.6l-0.5-9.3h-8.7l-0.5,9.8h-9.1v18.2h28.2L125.4,110.1z"/>
<path class="st0" d="M164.6,100.2V89.5h49.2v20.4h-9.3l-0.5,9.5h-9.2l-0.7,10h-9.2l-0.7,9.8l-9.2,0.5v8.4h38.7v10.7h-49.1v-20.1
	l9.2-0.5l0.7-9.3l9.3-0.5l0.6-9.7h9.2l0.5-9.5l9.4-0.6v-8.4L164.6,100.2z"/>
<path class="st0" d="M141.9,129.3v-10.1h22.9v10.1H141.9z"/>
<path class="st1" d="M125.4,110.1v18.2H97.3V110h9.1l0.6-9.8h8.7l0.5,9.3L125.4,110.1z"/>
</svg>
