<?xml version="1.0" encoding="utf-8"?>
<!-- Generator: Adobe Illustrator 24.0.3, SVG Export Plug-In . SVG Version: 6.00 Build 0)  -->
<svg version="1.1" id="Calque_1" xmlns="http://www.w3.org/2000/svg" xmlns:xlink="http://www.w3.org/1999/xlink" x="0px" y="0px"
	 viewBox="0 0 596.8 600" style="enable-background:new 0 0 596.8 600;" xml:space="preserve">
<style type="text/css">
	.st0{fill:#76bbff;}
	.st1{fill:#FFFFFF;stroke:#FFFFFF;stroke-width:2.4331;}
</style>
<title>quiz</title>
<path class="st0" d="M69.9,3.1h457c38.6,0,69.9,31.3,69.9,69.9v457c0,38.6-31.3,69.9-69.9,69.9h-457C31.3,600,0,568.7,0,530V73
	C0,34.4,31.3,3.1,69.9,3.1z"/>
<path class="st1" d="M47.2,301.6V189.3h69.6v96.6h75.3v-96.6h56.2l-0.6,2.5c-1.2,4.9-21.7,95.9-24.2,107.3
	c-1.4,6.3-2.3,11.8-1.9,12.1c0.3,0.3,14.1,2.5,30.6,4.7l30,4.1l4.6-5.3c12.9-15.1,34.8-15.3,47.5-0.6c16.6,19.4,2.2,49.6-23.6,49.5
	c-9.1,0-16.5-3.4-23.3-10.7l-5.4-5.8l-29.9,4.2c-16.5,2.3-30.2,4.5-30.5,4.8c-1.2,1.2,4.8,15.9,9.7,23.8c8.9,14.4,19.6,23.5,35.3,30
	c4,1.7,7.5,3.2,7.7,3.5c0.3,0.2-18.1,0.4-40.7,0.4h-41.2v-83.1h-75.3v83.1H47.2V301.6z"/>
<path class="st1" d="M355.6,413c0.6-0.5,3.6-1.8,6.8-2.8c26.9-8.7,47.6-42,47.6-76.5c0-19.9-6-35.4-19.1-49.2
	c-8.9-9.4-18.3-15.3-30.9-19.5c-8.2-2.7-10.6-3-28.1-3.1c-17.9-0.1-19.7,0.1-28.9,3c-5.4,1.7-10.6,3.4-11.5,3.8
	c-1.1,0.4-1.5,0.1-1.2-0.9c0.3-0.8,2.1-8.5,4-17l3.5-15.4h102V189l52.5,0.6c48.9,0.5,53.1,0.7,61.5,2.9c23.3,6.2,37,18.7,44,40
	c2.6,7.9,3,10.9,3,24.7c0.1,11.7-0.4,17.6-1.9,23c-6.4,23.7-23.5,40.4-48,46.7c-9,2.3-30.3,3.8-55.9,3.8h-19.4V414h-40.7
	C371.8,414,354.9,413.5,355.6,413L355.6,413z M476.3,283c7.8-2.3,14.9-9.1,16.8-16.2c3.6-13.3-3.8-26.7-16.7-30.3
	c-2.2-0.6-12.3-1.5-22.3-1.9l-18.3-0.7v52.4l17.2-0.7C463.4,285.1,472.7,284.1,476.3,283L476.3,283z"/>
</svg>
