<?xml version="1.0" encoding="UTF-8"?> <svg xmlns="http://www.w3.org/2000/svg" viewBox="0 0 200 77"><title>logo-aunege</title><g id="Calque_2" data-name="Calque 2"><g id="Calque_1-2" data-name="Calque 1"><rect width="200" height="77" style="fill:none"></rect><rect x="34.5" y="41.32" width="132.05" height="1.06" style="fill:#fff"></rect><path d="M40.82,56.45H34.5v-9.7h1.43v8.51h4.89Z" style="fill:#fff"></path><path d="M43.63,48.24l-1.14,1.63h-.44l.48-1.48a.91.91,0,1,1,1.33-.81A1.12,1.12,0,0,1,43.63,48.24Z" style="fill:#fff"></path><path d="M46.68,49.94v3.61c0,1.3.52,1.88,1.62,1.88s1.61-.58,1.61-1.88V49.94h1.33v6.51H49.91v-1a2.64,2.64,0,0,1-2.25,1c-1.35,0-2.29-.72-2.29-2.56v-4Z" style="fill:#fff"></path><path d="M57,56.45V52.84c0-1.29-.52-1.87-1.62-1.87s-1.62.58-1.62,1.87v3.61H52.47V49.94H53.8v1a2.68,2.68,0,0,1,2.26-1c1.34,0,2.29.73,2.29,2.56v4Z" style="fill:#fff"></path><path d="M60.32,48.34a.73.73,0,0,1-.72-.73h0a.72.72,0,0,1,.72-.72.73.73,0,0,1,0,1.46Zm-.66,8.11V49.94H61v6.51Z" style="fill:#fff"></path><path d="M61.88,49.94h1.35l2,4.45,2-4.45H68.6l-2.94,6.51h-.81Z" style="fill:#fff"></path><path d="M70.1,53.73A1.78,1.78,0,0,0,72,55.42a2.67,2.67,0,0,0,1.9-.8l.79.74A3.57,3.57,0,0,1,72,56.52a3,3,0,0,1-3.21-3.24A3.24,3.24,0,0,1,72,49.89a3,3,0,0,1,3.07,3.26v.59ZM72,51a1.8,1.8,0,0,0-1.88,1.68h3.62A1.64,1.64,0,0,0,72,51Z" style="fill:#fff"></path><path d="M79,51c-1.19,0-1.44,1.06-1.44,2.41v3.07H76.17V49.94h1.34V51a1.57,1.57,0,0,1,1.6-1.15,1.27,1.27,0,0,1,1,.45l-.28,1.05A1.21,1.21,0,0,0,79,51Z" style="fill:#fff"></path><path d="M83.82,52.91c.73.29,1.73.76,1.73,1.88s-.88,1.72-2.25,1.72a3.83,3.83,0,0,1-2.71-1l.86-.81a2.76,2.76,0,0,0,1.69.7c.69,0,1.07-.24,1.07-.7s-.58-.74-1.53-1.13c-1.29-.52-1.9-1-1.9-1.94,0-1.1,1-1.78,2.38-1.78a3.23,3.23,0,0,1,2.33.94l-.83.79a2.13,2.13,0,0,0-1.5-.65c-.56,0-1,.24-1,.68S82.58,52.4,83.82,52.91Z" style="fill:#fff"></path><path d="M87.24,48.34a.72.72,0,0,1-.72-.72v0a.73.73,0,0,1,1.45,0h0a.72.72,0,0,1-.7.74Zm-.66,8.11V49.94h1.34v6.51Z" style="fill:#fff"></path><path d="M92.2,56.32a2.37,2.37,0,0,1-1,.19c-1.16,0-1.46-.8-1.46-2.54V51h-.78V49.94h.78V48.43h1.33v1.51H92.2V51H91.05v2.69c0,1.29,0,1.8,1.15,1.57Z" style="fill:#fff"></path><path d="M94.21,53.73a1.78,1.78,0,0,0,1.9,1.69,2.68,2.68,0,0,0,1.91-.8l.79.74a3.57,3.57,0,0,1-2.69,1.16,3,3,0,0,1-3.21-3.24,3.24,3.24,0,0,1,3.21-3.39,3.05,3.05,0,0,1,3.08,3.26v.59ZM96.11,51a1.8,1.8,0,0,0-1.87,1.68h3.62A1.64,1.64,0,0,0,96.11,51Zm.53-4.61L97.9,47l-1.27,1.5H95.52Z" style="fill:#fff"></path><path d="M110.09,56.45V52.84c0-1.29-.52-1.87-1.62-1.87s-1.61.58-1.61,1.87v3.61h-1.33V49.94h1.33v1a2.67,2.67,0,0,1,2.26-1c1.35,0,2.29.73,2.29,2.56l0,4Z" style="fill:#fff"></path><path d="M114,49.94v3.61c0,1.3.52,1.88,1.62,1.88s1.62-.58,1.62-1.88V49.94h1.33v6.51h-1.33v-1a2.66,2.66,0,0,1-2.27,1c-1.34,0-2.29-.72-2.29-2.56v-4Z" style="fill:#fff"></path><path d="M124.23,56.45V52.7a1.57,1.57,0,1,0-3.13,0v3.75h-1.33V49.94h1.33v1a2.24,2.24,0,0,1,2.08-1.09,2.1,2.1,0,0,1,2,1.31A2.57,2.57,0,0,1,130,52.63v3.82h-1.33V52.7a1.57,1.57,0,1,0-3.13,0v3.75Z" style="fill:#fff"></path><path d="M132.29,53.73a1.78,1.78,0,0,0,1.9,1.69,2.7,2.7,0,0,0,1.91-.8l.78.74a3.56,3.56,0,0,1-2.69,1.16,3,3,0,0,1-3.2-3.24,3.24,3.24,0,0,1,3.2-3.39,3.05,3.05,0,0,1,3.08,3.26v.59Zm1.9-2.76a1.8,1.8,0,0,0-1.87,1.68h3.62A1.64,1.64,0,0,0,134.19,51Zm.54-4.61L136,47l-1.27,1.5H133.6Z" style="fill:#fff"></path><path d="M141.15,51C140,51,139.7,52,139.7,53.38v3.07h-1.32V49.94h1.33V51a1.57,1.57,0,0,1,1.6-1.15,1.29,1.29,0,0,1,1,.45l-.29,1.05A1.21,1.21,0,0,0,141.15,51Z" style="fill:#fff"></path><path d="M143.91,48.34a.73.73,0,0,1-.73-.73h0a.73.73,0,0,1,.73-.73.72.72,0,0,1,.72.72h0a.72.72,0,0,1-.7.74Zm-.66,8.11V49.94h1.32v6.51Z" style="fill:#fff"></path><path d="M145.6,53.19a3,3,0,0,1,3.09-3.31,2.72,2.72,0,0,1,2.06.94v-.88h1.33v8.9h-1.32V55.56a2.76,2.76,0,0,1-2.06,1A3.08,3.08,0,0,1,145.6,53.19Zm1.33,0c0,1.31.69,2.23,1.91,2.23s1.92-.92,1.92-2.23S150.07,51,148.84,51s-1.91.93-1.91,2.22Z" style="fill:#fff"></path><path d="M154.65,49.94v3.61c0,1.3.52,1.88,1.62,1.88s1.61-.58,1.61-1.88V49.94h1.33v6.51h-1.33v-1a2.64,2.64,0,0,1-2.26,1c-1.35,0-2.29-.72-2.29-2.56v-4Z" style="fill:#fff"></path><path d="M161.49,53.73a1.78,1.78,0,0,0,1.9,1.69,2.65,2.65,0,0,0,1.9-.8l.79.74a3.57,3.57,0,0,1-2.69,1.16,3,3,0,0,1-3.2-3.24,3.23,3.23,0,0,1,3.2-3.39,3.05,3.05,0,0,1,3.08,3.26v.59Zm1.9-2.76a1.81,1.81,0,0,0-1.88,1.68h3.63A1.64,1.64,0,0,0,163.39,51Z" style="fill:#fff"></path><path d="M42.69,72.59H34.33V60.48h8.06V62H36.12v3.58h5.12v1.51H36.12v4h6.57Z" style="fill:#fff"></path><path d="M47.41,72.68a4.15,4.15,0,1,1,3.05-6.92l-1.15,1a2.37,2.37,0,0,0-1.9-1,2.81,2.81,0,0,0,0,5.58,2.34,2.34,0,0,0,1.9-1l1.15,1A4.14,4.14,0,0,1,47.41,72.68Z" style="fill:#fff"></path><path d="M59.65,68.54a4.15,4.15,0,1,1-4.15-4.16,4.09,4.09,0,0,1,4.15,4Zm-6.64,0a2.51,2.51,0,1,0,2.49-2.79A2.51,2.51,0,0,0,53,68.54Z" style="fill:#fff"></path><path d="M66.56,72.59v-4.5c0-1.62-.65-2.34-2-2.34s-2,.72-2,2.34v4.5H60.85V64.47h1.67v1.2a3.31,3.31,0,0,1,2.82-1.28c1.69,0,2.86.9,2.86,3.19l0,5Z" style="fill:#fff"></path><path d="M77.9,68.54a4.15,4.15,0,1,1-4.15-4.16,4.09,4.09,0,0,1,4.15,4Zm-6.64,0a2.5,2.5,0,1,0,2.49-2.79A2.5,2.5,0,0,0,71.26,68.54Z" style="fill:#fff"></path><path d="M84.66,72.59l0-.06V67.91a2,2,0,1,0-3.91,0v4.68H79.11V64.47h1.66v1.28a2.79,2.79,0,0,1,2.6-1.36A2.61,2.61,0,0,1,85.89,66a3,3,0,0,1,2.84-1.63c1.69,0,3.17,1,3.17,3.44v4.76H90.23V67.91a2,2,0,1,0-3.9,0v4.68Z" style="fill:#fff"></path><path d="M94.34,62.47a.92.92,0,1,1,0-1.84.92.92,0,0,1,.94.9v0a.9.9,0,0,1-.87.92Zm-.83,10.12V64.47h1.67v8.12Z" style="fill:#fff"></path><path d="M98.08,69.2a2.23,2.23,0,0,0,2.37,2.12,3.39,3.39,0,0,0,2.38-1l1,.92a4.5,4.5,0,0,1-3.36,1.46,3.81,3.81,0,0,1-4-4.06,4.05,4.05,0,0,1,4-4.24,3.81,3.81,0,0,1,3.84,4.07v.75Zm2.38-3.45a2.26,2.26,0,0,0-2.34,2.1h4.52A2,2,0,0,0,100.46,65.75Z" style="fill:#fff"></path><path d="M124,72.59h-1.8v-2a4.45,4.45,0,0,1-4.2,2.12,6.15,6.15,0,0,1,0-12.28,5.88,5.88,0,0,1,4.49,1.86l-1.17,1.18A4.52,4.52,0,0,0,118,61.89c-2.52,0-4,1.86-4,4.65,0,2.45,1.5,4.65,4.18,4.65a3.77,3.77,0,0,0,4-3.89h-3.13V65.82H124Z" style="fill:#fff"></path><path d="M127,69.2a2.22,2.22,0,0,0,2.37,2.12,3.37,3.37,0,0,0,2.37-1l1,.92a4.52,4.52,0,0,1-3.36,1.46,3.81,3.81,0,0,1-4-4.06,4,4,0,0,1,4-4.23,3.8,3.8,0,0,1,3.84,4.07v.75Zm2.37-3.45a2.26,2.26,0,0,0-2.34,2.1h4.52a2,2,0,0,0-2.18-2.1Z" style="fill:#fff"></path><path d="M138,68.17c.92.38,2.16,1,2.16,2.36,0,1.23-1.09,2.15-2.81,2.15A4.78,4.78,0,0,1,134,71.46l1.07-1a3.43,3.43,0,0,0,2.11.87c.86,0,1.34-.29,1.34-.87s-.72-.92-1.9-1.41c-1.62-.64-2.38-1.29-2.38-2.42,0-1.37,1.28-2.23,3-2.23a4.06,4.06,0,0,1,2.91,1.18l-1,1a2.71,2.71,0,0,0-1.88-.8c-.71,0-1.31.3-1.31.85S136.45,67.54,138,68.17Z" style="fill:#fff"></path><path d="M145.28,72.43a3.1,3.1,0,0,1-1.27.25c-1.46,0-1.83-1-1.83-3.17V65.83h-1V64.47h1V62.58h1.66v1.89h1.44v1.36h-1.44v3.36c0,1.61,0,2.24,1.44,2Z" style="fill:#fff"></path><path d="M147.4,62.47a.92.92,0,1,1,.9-.94v0a.9.9,0,0,1-.87.92Zm-.83,10.12V64.47h1.67v8.12Z" style="fill:#fff"></path><path d="M158,68.54a4.15,4.15,0,1,1-4.15-4.16,4.08,4.08,0,0,1,4.15,4A.33.33,0,0,1,158,68.54Zm-6.63,0a2.5,2.5,0,1,0,2.48-2.79A2.5,2.5,0,0,0,151.34,68.54Z" style="fill:#fff"></path><path d="M164.89,72.59v-4.5c0-1.62-.65-2.34-2-2.34s-2,.72-2,2.34v4.5h-1.67V64.47h1.67v1.2a3.31,3.31,0,0,1,2.82-1.28c1.69,0,2.86.9,2.86,3.19l0,5Z" style="fill:#fff"></path><path d="M56.9,36.56,46.22,14.26,35.54,36.54a.59.59,0,0,0-.09.31.35.35,0,0,0,.28.34.42.42,0,0,0,.46-.12c0-.06.07-.09.1-.15s8.9-18.76,9.83-20.58l.1-.22.12.22c.68,1.39,9.82,20.6,9.82,20.6l.09.15a.45.45,0,0,0,.46.13.36.36,0,0,0,.28-.35A.56.56,0,0,0,56.9,36.56Z" style="fill:none;stroke:#fff;stroke-miterlimit:10"></path><path d="M101.63,17.79a1,1,0,0,1-.75-.32,1.08,1.08,0,0,1-.3-.77V10a1,1,0,0,1,.3-.76,1,1,0,0,1,.75-.31h15.7a1,1,0,0,1,.75.31,1.06,1.06,0,0,1,.3.76,1.17,1.17,0,0,1-.3.78,1,1,0,0,1-.75.33H102.72V16.7a1.09,1.09,0,0,1-1.09,1.09m15.7,19.67h-15.7a1,1,0,0,1-1-1V21.51a1.1,1.1,0,0,1,.3-.77,1,1,0,0,1,.75-.32h11.9a1,1,0,0,1,.77.33,1,1,0,0,1,.32.78,1.1,1.1,0,0,1-1.09,1.07H102.72V35.29h14.61a1,1,0,0,1,.75.32,1.17,1.17,0,0,1,.3.78,1.08,1.08,0,0,1-.3.77,1,1,0,0,1-.75.3" style="fill:#fff"></path><path d="M142.66,27a1,1,0,0,0-.74-.3h-7A1.27,1.27,0,0,0,134,27a1,1,0,0,0-.31.78,1,1,0,0,0,.34.7,1.21,1.21,0,0,0,.79.3h4.27q-.06.36-.15.84a8.47,8.47,0,0,1-.81,1.94,12.89,12.89,0,0,1-1.29,1.52,8.32,8.32,0,0,1-6.12,2.14,9.1,9.1,0,0,1-4.64-1.07A6.87,6.87,0,0,1,123.3,31a9.2,9.2,0,0,1-.64-1.85c-.15-.71-.26-1.41-.34-2.1s-.12-1.34-.13-2,0-1.18,0-1.65a41.68,41.68,0,0,1,.23-4.32,12,12,0,0,1,1.09-4,6.92,6.92,0,0,1,2.57-2.77,8.75,8.75,0,0,1,4.67-1.07q4.13,0,6.27,2.22A7.9,7.9,0,0,1,138.14,15a8.58,8.58,0,0,1,.81,1.93c.1.58.18,1,.23,1.35s0,.38,0,.57a1.08,1.08,0,0,0,1.05,1.05,1.16,1.16,0,0,0,.77-.3,1,1,0,0,0,.32-.72v0c0-.1,0-.38-.06-.85A11,11,0,0,0,141,16.3a11.33,11.33,0,0,0-.83-2.16A9,9,0,0,0,138.58,12,10.54,10.54,0,0,0,130.73,9a11,11,0,0,0-6.16,1.62,9.14,9.14,0,0,0-3.27,4.13,13.05,13.05,0,0,0-.75,2.29,19.51,19.51,0,0,0-.37,2.29c-.08.75-.12,1.47-.13,2.18s0,1.32,0,1.87,0,1.13,0,1.82a19.43,19.43,0,0,0,.15,2.16c.08.75.35,2.48.35,2.48a13.33,13.33,0,0,0,.75,2.29,8.17,8.17,0,0,0,3.27,3.75,11,11,0,0,0,6.16,1.62,10.53,10.53,0,0,0,7.84-2.89,8.78,8.78,0,0,0,1.58-2.2,12.24,12.24,0,0,0,.52-1.21c-.31-.4.51.42.16.17v5.06a1,1,0,0,0,.31.71,1.06,1.06,0,0,0,1.83-.64V27.76a1,1,0,0,0-.32-.75" style="fill:#fff"></path><path d="M87.25,23.77s-5.71-7.24-6.87-8.87l0,22a.41.41,0,0,0,.39.41h.05a.45.45,0,0,0,.4-.41l-.07-19.76,5.45,7.09a.4.4,0,0,0,.55.11l0,0A.43.43,0,0,0,87.25,23.77Z" style="fill:none;stroke:#fff;stroke-miterlimit:10"></path><path d="M95.74,13.18a.47.47,0,0,0-.37-.38.4.4,0,0,0-.44.31c0,.1.15,20.33.15,20.33s-5.45-7.24-5.45-7.24a.41.41,0,0,0-.56-.08l0,0a.43.43,0,0,0-.09.57l6.79,9Z" style="fill:none;stroke:#fff;stroke-miterlimit:10"></path><path d="M164.54,30a.58.58,0,0,0-.6.35l-.13.49a8,8,0,0,1-12.67,4,7.47,7.47,0,0,1-.8-.69l12.78-11.5c-.36-.38-.74-.75-1.13-1.09a8.87,8.87,0,0,0-5.09-2.13A9,9,0,0,0,147,28.74a8.88,8.88,0,0,0,3.66,7,9.07,9.07,0,0,0,11.86-.87,8.87,8.87,0,0,0,2.4-4.24.57.57,0,0,0-.39-.63m-2.9-7.43c-4,3.59-8,7.16-11.94,10.79,2.76-2.52,8.73-7.91,11.94-10.79" style="fill:#fff"></path><path d="M64.49,36.67S63,35.55,63,35.57l-.43-.34a7.11,7.11,0,0,1-2.19-4.06,5.67,5.67,0,0,1-.12-1.24V13.25a.4.4,0,0,0-.4-.38h0a.39.39,0,0,0-.41.35v0c0,.06,0,.12,0,.19,0,3.62,0,13.18,0,16.5a8.27,8.27,0,0,0,3.53,6.79,10.28,10.28,0,0,0,1.08.6c.26.09.43.11.58-.09A.44.44,0,0,0,64.49,36.67Z" style="fill:none;stroke:#fff;stroke-miterlimit:10"></path><path d="M75.77,13.54c0-.06,0-.12,0-.19a.37.37,0,0,0-.38-.37h0a.38.38,0,0,0-.4.35V30a5.79,5.79,0,0,1-.12,1.24,7.13,7.13,0,0,1-2.2,4.06l-.35.29h0l-1.49.95a.39.39,0,0,0-.13.55l0,0a.42.42,0,0,0,.56.12,12.56,12.56,0,0,0,1.52-.85,8.15,8.15,0,0,0,3-6.38C75.77,26.72,75.77,17.16,75.77,13.54Z" style="fill:none;stroke:#fff;stroke-miterlimit:10"></path><path d="M67.6,36.53a1.4,1.4,0,0,1-1.33-1.39,1.37,1.37,0,0,1,1.35-1.39h0a1.39,1.39,0,0,1-.06,2.78" style="fill:#fff"></path><line x1="39.04" y1="30.27" x2="51.6" y2="25.66" style="fill:none;stroke:#fff;stroke-miterlimit:10;stroke-width:2px"></line></g></g></svg> 