<?xml version="1.0" encoding="utf-8"?>
<!-- Generator: Adobe Illustrator 26.5.0, SVG Export Plug-In . SVG Version: 6.00 Build 0)  -->
<svg version="1.1"
	 id="Calque_1" xmlns:svg="http://www.w3.org/2000/svg" xmlns:inkscape="http://www.inkscape.org/namespaces/inkscape" xmlns:sodipodi="http://sodipodi.sourceforge.net/DTD/sodipodi-0.dtd"
	 xmlns="http://www.w3.org/2000/svg" xmlns:xlink="http://www.w3.org/1999/xlink" x="0px" y="0px" viewBox="0 0 81.4 22.9"
	 style="enable-background:new 0 0 81.4 22.9;" xml:space="preserve">
<style type="text/css">
	.st0{fill:#FFFFFF;}
</style>
<sodipodi:namedview  bordercolor="#666666" borderopacity="1.0" id="namedview899" inkscape:current-layer="Calque_1" inkscape:cx="67.541649" inkscape:cy="11.413723" inkscape:pagecheckerboard="0" inkscape:pageopacity="0.0" inkscape:pageshadow="2" inkscape:window-height="970" inkscape:window-maximized="0" inkscape:window-width="1920" inkscape:window-x="0" inkscape:window-y="25" inkscape:zoom="7.9728584" pagecolor="#ffffff" showgrid="false">
	</sodipodi:namedview>
<path id="Tracé_437" class="st0" d="M31.8,16.6c1.1,0,2.2-0.4,2.9-1.2l0,0v1H37V5.7h-2.4v6.5c0.1,1.1-0.7,2.2-1.9,2.3
	c-0.1,0-0.2,0-0.3,0c-1.4,0-2.1-0.7-2.1-2.3V5.7h-2.4v7C28,15.1,29.4,16.6,31.8,16.6z M39.3,16.3h2.4V9.9c-0.1-1.2,0.8-2.2,1.9-2.2
	c0.1,0,0.2,0,0.3,0c1.1-0.1,2.1,0.7,2.2,1.8c0,0.2,0,0.3,0,0.5v6.4h2.4V9.5c0.2-2.1-1.4-3.9-3.5-4.1c-0.2,0-0.4,0-0.5,0
	c-1.1,0-2.2,0.4-2.9,1.3l0,0V5.7h-2.3L39.3,16.3z M55.2,16.6c1.9,0.1,3.6-0.9,4.5-2.5l-1.8-1.3c-0.5,1.1-1.6,1.8-2.8,1.8
	c-1.5,0-2.5-1.1-2.6-2.8H60v-0.8c0-3.3-2-5.5-4.9-5.5s-4.9,2.3-4.9,5.6S52.2,16.6,55.2,16.6z M52.6,9.9c0-1.4,1.1-2.5,2.5-2.5
	c1.3-0.1,2.4,1,2.5,2.3c0,0.1,0,0.1,0,0.2H52.6z M65.9,16.6c2.5,0,4.1-1.3,4.1-3.2c0-2.2-1.9-3-4.1-3.6c-1.4-0.4-2.1-0.7-2.1-1.3
	s0.6-1.1,1.6-1.1c1,0,1.9,0.7,2.2,1.7l2.2-0.6c-0.6-1.9-2.4-3.2-4.4-3.1c-2.2,0-3.9,1.3-3.9,3.2s1.6,2.6,3.7,3.2
	c1.6,0.5,2.5,0.9,2.5,1.8c0,0.7-0.7,1.1-1.9,1.1c-1.6,0-2.3-0.7-2.7-2.3L61,12.8C61.4,15.2,63.2,16.6,65.9,16.6z M75.7,16.6
	c2.5,0,4.1-1.3,4.1-3.2c0-2.2-1.9-3-4.1-3.6c-1.4-0.4-2.1-0.7-2.1-1.3s0.6-1.1,1.6-1.1c1,0,1.9,0.7,2.2,1.7l2.2-0.6
	c-0.6-1.9-2.4-3.2-4.4-3.1c-2.2,0-3.9,1.3-3.9,3.2s1.6,2.6,3.7,3.2c1.6,0.5,2.5,0.9,2.5,1.8c0,0.7-0.7,1.1-1.9,1.1
	c-1.6,0-2.3-0.7-2.7-2.3l-2.2,0.6C71.2,15.2,73,16.6,75.7,16.6z"/>
<path id="Soustraction_3" class="st0" d="M11.5,22.9C5.2,22.9,0,17.8,0,11.4C0,5.1,5.1,0,11.5,0c3.1,0,6,1.2,8.2,3.4
	c4.3,4.2,4.5,11,0.6,15.6c-0.1,0-0.3,0-0.4,0h-0.2c-0.2,0-0.3,0-0.5,0c-0.7,0.1-1.5-0.2-2-0.7c-0.4-0.5-0.6-1.1-0.6-1.7l0,0
	c-0.1-1-0.9-1.7-1.9-1.6s-1.7,0.9-1.6,1.9c0.1,0.8,0.7,1.5,1.6,1.6l0,0c0.6,0,1.3,0.3,1.7,0.7c0.5,0.7,0.7,1.6,0.5,2.5l0,0l0,0
	c-0.8,0.4-1.6,0.7-2.5,0.9C13.4,22.8,12.4,22.9,11.5,22.9z M11.1,9.5L11.1,9.5c0.2,0.9-0.1,1.9-0.6,2.7c-0.5,0.5-1.2,0.7-1.9,0.7
	l0,0c-1.1,0-2,0.9-2,2c0,1.1,0.9,2,2,2c0.5,0,1.1-0.2,1.4-0.6c0.3-0.3,0.5-0.7,0.6-1.2l0,0c0-0.6,0.3-1.3,0.6-1.8
	c0.6-0.5,1.3-0.8,2.1-0.7c0.3,0,0.5,0,0.8,0l0,0c1.9,0.2,3.6-1.1,3.8-3c0.2-1.9-1.1-3.6-3-3.8c-1.9-0.2-3.6,1.1-3.8,3
	C11.1,9,11.1,9.3,11.1,9.5L11.1,9.5z M6.3,6.6c-1.1,0.1-1.9,1-1.8,2.1c0.1,1,0.8,1.7,1.8,1.8c0.2,0,0.3,0,0.5-0.1
	c1-0.3,1.6-1.4,1.4-2.4C8,7.2,7.2,6.6,6.3,6.6z"/>
</svg>
