<?xml version="1.0" encoding="utf-8"?>
<!-- Generator: Adobe Illustrator 24.0.3, SVG Export Plug-In . SVG Version: 6.00 Build 0)  -->
<svg version="1.1" id="Calque_1" xmlns="http://www.w3.org/2000/svg" xmlns:xlink="http://www.w3.org/1999/xlink" x="0px" y="0px"
	 viewBox="0 0 289.2 289.2" style="enable-background:new 0 0 289.2 289.2;" xml:space="preserve">
<style type="text/css">
	.st0{fill:#76bbff;}
	.st1{fill:#FFFFFF;}
</style>
<title>baseDeDonne</title>
<path class="st0" d="M34,0.5h221.2c18.6,0,33.7,15.1,33.7,33.7v221.2c0,18.6-15.1,33.7-33.7,33.7H34c-18.6,0-33.7-15.1-33.7-33.7
	V34.2C0.3,15.6,15.4,0.5,34,0.5z"/>
<path class="st1" d="M143.1,128c13.9,0.1,27.7-1.3,41.3-4.2c12.8-2.8,22.9-7,30.3-12.5V128c0,4.5-3.2,8.7-9.6,12.6
	c-6.4,3.9-15.1,6.9-26.1,9.2c-11.8,2.3-23.9,3.5-35.9,3.4c-12.1,0.1-24.1-1-35.9-3.4c-11-2.3-19.7-5.3-26.1-9.2
	c-6.4-3.9-9.6-8.1-9.6-12.6v-16.7c7.4,5.5,17.5,9.6,30.3,12.5C115.4,126.7,129.2,128.1,143.1,128z M143.1,203.4
	c13.9,0.1,27.7-1.3,41.3-4.2c12.8-2.8,22.9-7,30.3-12.5v16.7c0,4.5-3.2,8.7-9.6,12.6c-6.4,3.9-15.1,6.9-26.1,9.2
	c-11.8,2.3-23.9,3.5-35.9,3.4c-12.1,0.1-24.1-1-35.9-3.4c-11-2.3-19.7-5.3-26.1-9.2c-6.4-3.9-9.6-8-9.6-12.6v-16.7
	c7.4,5.5,17.5,9.6,30.3,12.5C115.4,202,129.2,203.5,143.1,203.4L143.1,203.4z M143.1,165.7c13.9,0.1,27.7-1.3,41.3-4.2
	c12.8-2.8,22.9-7,30.3-12.5v16.7c0,4.5-3.2,8.7-9.6,12.6c-6.4,3.9-15.1,6.9-26.1,9.2c-11.8,2.3-23.9,3.5-35.9,3.4
	c-12.1,0.1-24.1-1-35.9-3.4c-11-2.3-19.7-5.3-26.1-9.2c-6.4-3.8-9.6-8-9.6-12.6V149c7.4,5.5,17.5,9.6,30.3,12.5
	C115.4,164.4,129.2,165.8,143.1,165.7L143.1,165.7z M143.1,52.7c12.1-0.1,24.1,1,35.9,3.4c11,2.3,19.7,5.3,26.1,9.2
	c6.4,3.9,9.6,8,9.6,12.6v12.6c0,4.5-3.2,8.7-9.6,12.6c-6.4,3.9-15.1,6.9-26.1,9.2c-11.8,2.3-23.9,3.5-35.9,3.4
	c-12.1,0.1-24.1-1-35.9-3.4c-11-2.3-19.7-5.3-26.1-9.2s-9.6-8-9.6-12.6V77.8c0-4.5,3.2-8.7,9.6-12.6s15.1-6.9,26.1-9.2
	C119,53.7,131,52.6,143.1,52.7L143.1,52.7z"/>
</svg>
