<?xml version="1.0" encoding="UTF-8" standalone="no"?>
<!-- Created with Inkscape (http://www.inkscape.org/) -->

<svg
   width="75.320129mm"
   height="92.604164mm"
   viewBox="0 0 75.320129 92.604164"
   version="1.1"
   id="svg8"
   inkscape:version="1.1.1 (c3084ef, 2021-09-22)"
   sodipodi:docname="pdf-24.svg"
   xmlns:inkscape="http://www.inkscape.org/namespaces/inkscape"
   xmlns:sodipodi="http://sodipodi.sourceforge.net/DTD/sodipodi-0.dtd"
   xmlns="http://www.w3.org/2000/svg"
   xmlns:svg="http://www.w3.org/2000/svg"
   xmlns:rdf="http://www.w3.org/1999/02/22-rdf-syntax-ns#"
   xmlns:cc="http://creativecommons.org/ns#"
   xmlns:dc="http://purl.org/dc/elements/1.1/">
  <title
     id="title2682">PDF file icon</title>
  <defs
     id="defs2">
    <clipPath
       clipPathUnits="userSpaceOnUse"
       id="clipPath839">
      <rect
         style="opacity:1;fill:#000000;fill-opacity:1;fill-rule:nonzero;stroke:none;stroke-width:1;stroke-linecap:butt;stroke-linejoin:round;stroke-miterlimit:4;stroke-dasharray:none;stroke-dashoffset:0;stroke-opacity:1;paint-order:fill markers stroke"
         id="rect841"
         width="68.688263"
         height="67.886459"
         x="-74.033661"
         y="141.44913" />
    </clipPath>
  </defs>
  <sodipodi:namedview
     id="base"
     pagecolor="#ffffff"
     bordercolor="#666666"
     borderopacity="1.0"
     inkscape:pageopacity="0.0"
     inkscape:pageshadow="2"
     inkscape:zoom="0.98994949"
     inkscape:cx="-67.680221"
     inkscape:cy="179.80715"
     inkscape:document-units="mm"
     inkscape:current-layer="g876"
     showgrid="false"
     inkscape:object-nodes="false"
     inkscape:window-width="1571"
     inkscape:window-height="970"
     inkscape:window-x="43"
     inkscape:window-y="25"
     inkscape:window-maximized="0"
     inkscape:snap-page="false"
     inkscape:snap-others="true"
     fit-margin-top="0"
     fit-margin-left="0"
     fit-margin-right="0"
     fit-margin-bottom="0"
     inkscape:pagecheckerboard="0"
     inkscape:snap-bbox="true" />
  <metadata
     id="metadata5">
    <rdf:RDF>
      <cc:Work
         rdf:about="">
        <dc:format>image/svg+xml</dc:format>
        <dc:type
           rdf:resource="http://purl.org/dc/dcmitype/StillImage" />
        <dc:title>PDF file icon</dc:title>
        <dc:date>08/10/2018</dc:date>
        <dc:creator>
          <cc:Agent>
            <dc:title>Adobe Systems</dc:title>
          </cc:Agent>
        </dc:creator>
        <dc:publisher>
          <cc:Agent>
            <dc:title>CMetalCore</dc:title>
          </cc:Agent>
        </dc:publisher>
        <dc:description>Fuente del texto &quot;PDF&quot;:
Franklin Gothic Medium Cond</dc:description>
        <cc:license
           rdf:resource="http://creativecommons.org/licenses/by-sa/4.0/" />
      </cc:Work>
      <cc:License
         rdf:about="http://creativecommons.org/licenses/by-sa/4.0/">
        <cc:permits
           rdf:resource="http://creativecommons.org/ns#Reproduction" />
        <cc:permits
           rdf:resource="http://creativecommons.org/ns#Distribution" />
        <cc:requires
           rdf:resource="http://creativecommons.org/ns#Notice" />
        <cc:requires
           rdf:resource="http://creativecommons.org/ns#Attribution" />
        <cc:permits
           rdf:resource="http://creativecommons.org/ns#DerivativeWorks" />
        <cc:requires
           rdf:resource="http://creativecommons.org/ns#ShareAlike" />
      </cc:License>
    </rdf:RDF>
  </metadata>
  <g
     inkscape:label="Capa 1"
     inkscape:groupmode="layer"
     id="layer1"
     transform="translate(36.076172,-93.731774)">
    <g
       id="g899"
       transform="matrix(1.4843054,0,0,1.4843054,17.471885,-90.243502)">
      <g
         id="g876">
        <path
           inkscape:connector-curvature="0"
           style="color:#000000;font-style:normal;font-variant:normal;font-weight:normal;font-stretch:normal;font-size:medium;line-height:normal;font-family:sans-serif;font-variant-ligatures:normal;font-variant-position:normal;font-variant-caps:normal;font-variant-numeric:normal;font-variant-alternates:normal;font-feature-settings:normal;text-indent:0;text-align:start;text-decoration:none;text-decoration-line:none;text-decoration-style:solid;text-decoration-color:#000000;letter-spacing:normal;word-spacing:normal;text-transform:none;writing-mode:lr-tb;direction:ltr;text-orientation:mixed;dominant-baseline:auto;baseline-shift:baseline;text-anchor:start;white-space:normal;shape-padding:0;clip-rule:nonzero;display:inline;overflow:visible;visibility:visible;opacity:1;isolation:auto;mix-blend-mode:normal;color-interpolation:sRGB;color-interpolation-filters:linearRGB;solid-color:#000000;solid-opacity:1;vector-effect:none;fill:#49a7ad;fill-opacity:1;fill-rule:nonzero;stroke:none;stroke-width:2.11667;stroke-linecap:round;stroke-linejoin:round;stroke-miterlimit:4;stroke-dasharray:none;stroke-dashoffset:0;stroke-opacity:1;paint-order:markers fill stroke;color-rendering:auto;image-rendering:auto;shape-rendering:auto;text-rendering:auto;enable-background:accumulate"
           d="m -29.632812,123.94727 c -3.551967,0 -6.44336,2.89347 -6.44336,6.44531 v 49.49804 c 0,3.55185 2.891393,6.44532 6.44336,6.44532 H 8.2167969 c 3.5519661,0 6.4433591,-2.89335 6.4433591,-6.44532 v -31.9951 -8.70607 c 0,0 0.101353,-1.19181 -0.416015,-2.35156 -0.484969,-1.08711 -1.275391,-1.84375 -1.275391,-1.84375 -0.002,-0.003 -0.0039,-0.005 -0.0059,-0.008 L 3.5722246,125.7752 c -0.00515,-0.005 -0.010363,-0.0104 -0.015625,-0.0156 0,0 -0.8017392,-0.76344 -1.9902344,-1.27344 -1.39939552,-0.6005 -2.8417968,-0.53711 -2.8417968,-0.53711 l 0.021484,-0.002 z"
           id="path890"
           sodipodi:nodetypes="csssssccsccccsccc" />
        <path
           inkscape:connector-curvature="0"
           style="color:#000000;font-style:normal;font-variant:normal;font-weight:normal;font-stretch:normal;font-size:medium;line-height:normal;font-family:sans-serif;font-variant-ligatures:normal;font-variant-position:normal;font-variant-caps:normal;font-variant-numeric:normal;font-variant-alternates:normal;font-feature-settings:normal;text-indent:0;text-align:start;text-decoration:none;text-decoration-line:none;text-decoration-style:solid;text-decoration-color:#000000;letter-spacing:normal;word-spacing:normal;text-transform:none;writing-mode:lr-tb;direction:ltr;text-orientation:mixed;dominant-baseline:auto;baseline-shift:baseline;text-anchor:start;white-space:normal;shape-padding:0;clip-rule:nonzero;display:inline;overflow:visible;visibility:visible;opacity:1;isolation:auto;mix-blend-mode:normal;color-interpolation:sRGB;color-interpolation-filters:linearRGB;solid-color:#000000;solid-opacity:1;vector-effect:none;fill:#49a7ad;fill-opacity:1;fill-rule:nonzero;stroke:none;stroke-width:2.11667;stroke-linecap:round;stroke-linejoin:round;stroke-miterlimit:4;stroke-dasharray:none;stroke-dashoffset:0;stroke-opacity:1;paint-order:markers fill stroke;color-rendering:auto;image-rendering:auto;shape-rendering:auto;text-rendering:auto;enable-background:accumulate"
           d="M -27.652111,126.06445 H 0.72679455 a 1.0584391,1.0584391 0 0 0 0.021484,0 c 0,0 1.13480445,0.011 1.96484375,0.36719 0.7988977,0.34282 1.3653698,0.86176 1.3691406,0.86524 1.25e-5,1e-5 0.00391,0.004 0.00391,0.004 l 9.3671871,9.18945 c 0,0 0.564354,0.59582 0.837891,1.20899 0.220779,0.49491 0.234375,1.40039 0.234375,1.40039 a 1.0584391,1.0584391 0 0 0 -0.002,0.0449 v 40.74609 c 0,2.41592 -1.910258,4.32813 -4.326172,4.32813 h -37.849565 c -2.415914,0 -4.326172,-1.91209 -4.326172,-4.32813 v -49.49804 c 0,-2.41603 1.910258,-4.32813 4.326172,-4.32813 z"
           id="rect2684" />
        <path
           sodipodi:nodetypes="scccscccscccccssscacccsccccccccccccccccccccaccccccccc"
           inkscape:connector-curvature="0"
           d="m -28.4139,162.68267 c -2.049897,-2.04989 0.167937,-4.86674 6.18685,-7.85791 l 3.787188,-1.88208 1.475408,-3.22816 c 0.811478,-1.77548 2.022595,-4.6725 2.691381,-6.4378 l 1.215986,-3.20961 -0.837949,-2.37531 c -1.030331,-2.92067 -1.397744,-7.30969 -0.74403,-8.88789 0.885471,-2.13771 3.785853,-1.91838 4.9341071,0.37312 0.8967848,1.78966 0.8051054,5.03068 -0.25793,9.11809 l -0.8714961,3.35095 0.767642,1.30317 c 0.4222121,0.71672 1.6554637,2.41856 2.7405775,3.78182 l 2.039412,2.53683 2.5377571,-0.33116 c 8.0620155,-1.05201 10.8233394,0.73599 10.8233394,3.29961 0,3.23553 -6.3304036,3.50258 -11.6463417,-0.2311 -1.1960971,-0.8401 -2.017488,-1.67462 -2.017488,-1.67462 0,0 -3.3302504,0.67796 -4.9699133,1.11991 -1.692483,0.45618 -2.536867,0.74188 -5.016077,1.57872 0,0 -0.869865,1.26323 -1.436696,2.18157 -2.108843,3.41661 -4.571141,6.24806 -6.329613,7.2786 -1.968853,1.15384 -4.032892,1.23248 -5.072114,0.19325 z m 3.216993,-1.14924 c 1.15228,-0.71216 3.484522,-3.47059 5.098964,-6.03073 l 0.653644,-1.03654 -2.976245,1.49644 c -4.596782,2.31123 -6.699715,4.48952 -5.6062,5.80712 0.614296,0.74017 1.349166,0.67881 2.829837,-0.23629 z m 29.8586936,-8.38115 c 1.1270349,-0.78942 0.9634305,-2.38022 -0.3107441,-3.0216 -0.9916174,-0.49915 -1.790849,-0.60171 -4.36685045,-0.5637 -1.58299095,0.10794 -4.12847615,0.42696 -4.55989015,0.52402 0,0 1.3983851,0.96645 2.0192261,1.32169 0.826479,0.47204 2.83488361,1.34828 4.3012153,1.79712 1.4464195,0.44272 2.2830871,0.39604 2.9170433,-0.0576 z m -12.0057959,-4.98994 c -0.6820822,-0.71702 -1.8419053,-2.21352 -2.5773666,-3.32557 -0.9618821,-1.26149 -1.4442231,-2.15147 -1.4442231,-2.15147 0,0 -0.703052,2.26134 -1.279846,3.62212 l -1.799508,4.44792 -0.521729,1.00891 c 0,0 2.773707,-0.90945 4.184942,-1.27807 1.494711,-0.39043 4.5282775,-0.98696 4.5282775,-0.98696 z m -3.8690047,-15.51573 c 0.173976,-1.45999 0.247814,-2.91783 -0.221272,-3.65297 -1.301123,-1.4224 -2.871548,-0.23624 -2.60554,3.14538 0.08951,1.13761 0.372114,3.0823 0.74994,4.28093 l 0.686967,2.17927 0.483496,-1.64137 c 0.265925,-0.90275 0.673809,-2.8428 0.906409,-4.31124 z"
           style="fill:#ffffff;fill-opacity:1;stroke-width:0.37233"
           id="path2697" />
        <g
           id="g858"
           transform="matrix(1.1015621,0,0,1.0379546,-3.6363009,-3.6716626)">
          <g
             id="g3714"
             transform="matrix(1.4901791,0,0,1.4901791,10.259656,-86.952637)">
            <path
               inkscape:connector-curvature="0"
               id="path845"
               style="font-style:normal;font-variant:normal;font-weight:normal;font-stretch:normal;font-size:medium;line-height:125%;font-family:'Franklin Gothic Medium Cond';-inkscape-font-specification:'Franklin Gothic Medium Cond';letter-spacing:0px;word-spacing:4.26px;fill:#ffffff;fill-opacity:1;stroke:none;stroke-width:0.358247px;stroke-linecap:butt;stroke-linejoin:miter;stroke-opacity:1"
               d="m -20.930423,167.83862 h 2.364986 q 1.133514,0 1.840213,0.2169 0.706698,0.20991 1.189489,0.9446 0.482795,0.72769 0.482795,1.75625 0,0.94459 -0.391832,1.6233 -0.391833,0.67871 -1.056548,0.97958 -0.65772,0.30087 -2.02913,0.30087 h -0.818651 v 3.72941 h -1.581322 z m 1.581322,1.22447 v 3.33058 h 0.783664 q 1.049552,0 1.44838,-0.39184 0.405826,-0.39183 0.405826,-1.27345 0,-0.65772 -0.265887,-1.06355 -0.265884,-0.41282 -0.587747,-0.50378 -0.314866,-0.098 -1.000572,-0.098 z" />
            <path
               inkscape:connector-curvature="0"
               id="path847"
               style="font-style:normal;font-variant:normal;font-weight:normal;font-stretch:normal;font-size:medium;line-height:125%;font-family:'Franklin Gothic Medium Cond';-inkscape-font-specification:'Franklin Gothic Medium Cond';letter-spacing:0px;word-spacing:4.26px;fill:#ffffff;fill-opacity:1;stroke:none;stroke-width:0.358247px;stroke-linecap:butt;stroke-linejoin:miter;stroke-opacity:1"
               d="m -13.842461,167.83862 h 2.148082 q 1.560333,0 2.4909318,0.55276 0.9375993,0.55276 1.4133973,1.6443 0.482791,1.09153 0.482791,2.42096 0,1.3994 -0.4338151,2.49793 -0.4268149,1.09153 -1.3154348,1.76324 -0.8816233,0.67172 -2.5189212,0.67172 h -2.267031 z m 1.581326,1.26645 v 7.018 h 0.657715 q 1.378411,0 2.001144,-0.9516 0.6227329,-0.95858 0.6227329,-2.5539 0,-3.5125 -2.6238769,-3.5125 z" />
            <path
               inkscape:connector-curvature="0"
               id="path849"
               style="font-style:normal;font-variant:normal;font-weight:normal;font-stretch:normal;font-size:medium;line-height:125%;font-family:'Franklin Gothic Medium Cond';-inkscape-font-specification:'Franklin Gothic Medium Cond';letter-spacing:0px;word-spacing:4.26px;fill:#ffffff;fill-opacity:1;stroke:none;stroke-width:0.358247px;stroke-linecap:butt;stroke-linejoin:miter;stroke-opacity:1"
               d="m -5.7889096,167.83862 h 5.30372941 v 1.26645 H -4.2075842 v 2.85478 h 2.9807225 v 1.26646 h -2.9807225 v 4.16322 h -1.5813254 z" />
          </g>
        </g>
      </g>
    </g>
  </g>
</svg>
