<?xml version="1.0" encoding="utf-8"?>
<!-- Generator: Adobe Illustrator 24.0.3, SVG Export Plug-In . SVG Version: 6.00 Build 0)  -->
<svg version="1.1" id="Calque_1" xmlns="http://www.w3.org/2000/svg" xmlns:xlink="http://www.w3.org/1999/xlink" x="0px" y="0px"
	 viewBox="0 0 289.2 289.2" style="enable-background:new 0 0 289.2 289.2;" xml:space="preserve">
<style type="text/css">
	.st0{fill:#49a7ad;}
	.st1{fill:#FFFFFF;}
</style>
<title>url</title>
<path class="st0" d="M33.7,0.2h221.4c18.6,0,33.7,15.1,33.7,33.7v221.4c0,18.6-15.1,33.7-33.7,33.7H33.7C15.1,289,0,273.9,0,255.3
	V33.9C0,15.3,15.1,0.2,33.7,0.2z"/>
<path class="st1" d="M228.9,196.8c0.1-3.3-1.3-6.5-3.6-8.8l-27-27c-2.3-2.4-5.5-3.7-8.8-3.6c-3.6,0-7,1.5-9.3,4.1l2.5,2.4
	c1.4,1.3,2.3,2.3,2.8,2.8c0.7,0.8,1.3,1.6,1.9,2.5c0.8,1,1.3,2.1,1.7,3.3c0.3,1.2,0.5,2.4,0.4,3.6c0,6.8-5.5,12.4-12.3,12.4h-0.1
	c-1.2,0-2.4-0.1-3.6-0.4c-1.2-0.4-2.3-0.9-3.3-1.7c-0.9-0.6-1.7-1.3-2.5-1.9c-0.5-0.5-1.4-1.4-2.8-2.8l-2.4-2.5
	c-2.7,2.4-4.3,5.8-4.3,9.4c-0.1,3.3,1.3,6.5,3.6,8.8l26.7,26.8c2.3,2.3,5.5,3.6,8.8,3.5c3.3,0.1,6.4-1.1,8.8-3.4l19-18.9
	C227.6,203.2,228.9,200,228.9,196.8z M137.9,105.5c0.1-3.3-1.3-6.5-3.6-8.8l-26.7-26.8c-2.3-2.4-5.5-3.7-8.8-3.6
	c-3.3,0-6.4,1.2-8.8,3.5L71,88.7c-2.4,2.3-3.7,5.4-3.6,8.7c-0.1,3.3,1.3,6.5,3.6,8.8L97.8,133c2.3,2.3,5.5,3.6,8.8,3.5
	c3.5,0,6.9-1.4,9.3-4l-2.5-2.4c-1.4-1.3-2.3-2.3-2.8-2.8c-0.7-0.8-1.3-1.6-1.9-2.5c-0.8-1-1.3-2.1-1.7-3.3c-0.3-1.2-0.5-2.4-0.4-3.6
	c0-6.8,5.5-12.4,12.3-12.4h0.1c1.2,0,2.4,0.1,3.6,0.4c1.2,0.4,2.3,0.9,3.3,1.7c0.9,0.6,1.7,1.3,2.5,1.9c0.5,0.5,1.4,1.4,2.8,2.8
	l2.4,2.5C136.3,112.5,137.9,109.1,137.9,105.5L137.9,105.5z M253.8,196.8c0.2,9.9-3.8,19.5-11,26.3l-19,18.9
	c-14.7,14.5-38.3,14.4-52.8-0.3l-26.7-26.8c-7.1-6.9-10.9-16.4-10.8-26.3c-0.2-10.2,4-20,11.4-27.1l-11.4-11.4
	c-7,7.4-16.8,11.5-26.9,11.4c-9.9,0.2-19.5-3.8-26.4-10.9l-27-26.9c-7.1-6.9-11-16.5-10.9-26.4c-0.2-9.9,3.8-19.5,11-26.3l19-18.9
	c6.9-7.1,16.4-10.9,26.3-10.7c10-0.2,19.5,3.8,26.4,11l26.7,26.8c7.1,6.9,10.9,16.4,10.8,26.3c0.2,10.2-4,20-11.4,27.1l11.4,11.4
	c14.4-14.9,38.2-15.2,53.1-0.8c0.1,0.1,0.2,0.2,0.3,0.3l26.9,26.9C250,177.3,253.9,186.8,253.8,196.8L253.8,196.8z"/>
</svg>
