<?xml version="1.0" encoding="utf-8"?>
<!-- Generator: Adobe Illustrator 24.0.3, SVG Export Plug-In . SVG Version: 6.00 Build 0)  -->
<svg version="1.1" id="Calque_1" xmlns="http://www.w3.org/2000/svg" xmlns:xlink="http://www.w3.org/1999/xlink" x="0px" y="0px"
	 viewBox="0 0 600.6 600" style="enable-background:new 0 0 600.6 600;" xml:space="preserve">
<style type="text/css">
	.st0{fill:#76bbff;}
	.st1{fill:#FFFFFF;}
</style>
<title>icon</title>
<path class="st0" d="M69.9-1h460.8c38.6,0,69.9,31.3,69.9,69.9v460.8c0,38.6-31.3,69.9-69.9,69.9H69.9C31.3,599.6,0,568.3,0,529.7
	V68.9C0,30.3,31.3-1,69.9-1z"/>
<path class="st1" d="M468.7,242.6c15.5,0,28,12.5,28,28s-12.5,28-28,28v83.8c-0.2,15.4-12.6,27.8-28,28
	c-60.7-50.5-119.9-78.2-177.4-83c-8,2.5-15,7.5-19.9,14.4c-4.7,6.4-7,14.1-6.8,22c0.2,7.6,3.3,14.8,8.7,20.2
	c-2.7,4.3-4.5,9.2-5,14.3c-0.5,4.3,0,8.6,1.3,12.7c1.7,4.4,4.2,8.5,7.3,12c3.2,3.9,6.7,7.6,10.5,10.9c3.4,3,7.9,6.7,13.4,11
	c-4.2,8.5-12.3,14.5-24.4,18.1c-11.9,3.6-24.5,4.5-36.8,2.5c-12.5-2-22.1-6-28.8-12.1c-1-3.3-3.2-9.7-6.5-19.1s-5.6-16.3-7-20.7
	c-1.4-4.4-3.1-10.9-5-19.4c-1.8-7.2-2.9-14.6-3.4-22c-0.1-7.2,0.1-14.3,0.9-21.5c0.7-8.2,2.3-16.3,4.8-24.1h-26.7
	c-19.3,0-35-15.7-35-35v-42c0.1-19.3,15.7-34.9,35-35h104.9c63.4,0,128.6-28,195.8-83.9c15.4,0.2,27.8,12.6,28,28L468.7,242.6z
	 M440.8,374.5V166.1c-57.4,44-113.3,69-167.8,74.9v59C327.9,306.1,383.8,330.9,440.8,374.5L440.8,374.5L440.8,374.5z"/>
</svg>
