<?xml version="1.0" encoding="utf-8"?>
<!-- Generator: Adobe Illustrator 24.0.3, SVG Export Plug-In . SVG Version: 6.00 Build 0)  -->
<svg version="1.1" id="Calque_1" xmlns="http://www.w3.org/2000/svg" xmlns:xlink="http://www.w3.org/1999/xlink" x="0px" y="0px"
	 viewBox="0 0 598.9 600" style="enable-background:new 0 0 598.9 600;" xml:space="preserve">
<style type="text/css">
	.st0{fill:#76bbff;}
	.st1{fill:#FFFFFF;}
</style>
<title>wiki</title>
<path class="st0" d="M69.9-1h459c38.6,0,69.9,31.3,69.9,69.9v459c0,38.6-31.3,69.9-69.9,69.9h-459C31.3,597.9,0,566.6,0,528V69
	C0,30.3,31.3-1,69.9-1z"/>
<path class="st1" d="M375.6,452.9l-59.7-140.4c-3.2,6.5-14.5,27.4-32.3,61.3c-17.7,33.9-30.7,61.3-40.3,79.1h-9.7
	c-11.3-25.8-29-66.1-51.6-119.4s-42-93.6-53.2-121c-3.2-6.5-8.1-14.5-12.9-22.6c-8.1-6.5-14.5-12.9-22.6-19.4s-14.5-8.1-21-8.1v-9.7
	H190v9.7c-5.5,0.3-10.9,1.4-16.1,3.2c-4.8,1.7-9.2,4.5-12.9,8.1c-3.8,3.3-4.5,8.9-1.6,12.9c3.2,8.1,17.7,42,43.6,101.7
	c25.8,59.7,42,95.2,48.4,109.7c4.8-8.1,12.9-25.8,29-53.2c14.5-27.4,24.2-45.2,25.8-50c-3.2-4.8-11.3-24.2-25.8-56.5
	s-24.2-53.3-27.5-59.8c-4.8-9.7-19.4-14.5-40.3-14.5v-9.7h103.3v9.7c-8.1,0-14.5,1.6-19.4,4.8c-4.8,3.2-4.8,8.1-3.2,14.5
	c4.8,9.7,9.7,22.6,17.7,38.7s12.9,29,17.7,38.7c14.5-29,25.8-53.2,35.5-74.2c3.2-8.1,3.2-12.9-1.6-16.1c-4.9-3.2-12.9-4.8-25.8-4.8
	V156h90.4v9.7c-8.1,0-16.1,3.2-24.2,6.5c-8.1,4.8-14.5,9.7-17.7,16.1l-43.6,90.3c1.6,4.8,9.7,24.2,25.8,58.1
	c16.1,35.5,24.2,53.2,24.2,54.9l88.8-206.5c-1.7-5.2-5.1-9.8-9.7-12.9c-4.1-2.5-8.5-4.7-12.9-6.5c-3.2-1.6-8.1-1.6-11.3-1.6v-9.7
	l93.6,1.6l0,0v9.7c-19.4,0-32.3,9.7-40.3,29c-71,164.6-108.1,251.7-113,261.4h-11.3L375.6,452.9L375.6,452.9z"/>
</svg>
