<?xml version="1.0" encoding="utf-8"?>
<!-- Generator: Adobe Illustrator 24.0.3, SVG Export Plug-In . SVG Version: 6.00 Build 0)  -->
<svg version="1.1" id="Calque_1" xmlns="http://www.w3.org/2000/svg" xmlns:xlink="http://www.w3.org/1999/xlink" x="0px" y="0px"
	 viewBox="0 0 289.2 289.2" style="enable-background:new 0 0 289.2 289.2;" xml:space="preserve">
<style type="text/css">
	.st0{fill:#49a7ad;}
	.st1{fill:#FFFFFF;}
</style>
<title>etiquette</title>
<path class="st0" d="M33.5,0h221.6c18.6,0,33.7,15.1,33.7,33.7v221.6c0,18.6-15.1,33.7-33.7,33.7H33.5c-18.6,0-33.7-15.1-33.7-33.7
	V33.7C-0.2,15.1,14.9,0,33.5,0z"/>
<path class="st1" d="M108.5,91.9c0-8.8-7.1-15.9-15.9-15.9c-4.2,0-8.2,1.7-11.2,4.6c-6.3,6.1-6.5,16.1-0.4,22.4s16.1,6.5,22.4,0.4
	c0.1-0.1,0.3-0.3,0.4-0.4C106.9,100.2,108.6,96.1,108.5,91.9z M240.8,163.3c0.1,4.2-1.6,8.2-4.6,11.2l-60.9,61
	c-3,3-7.1,4.6-11.3,4.5c-4.2,0.1-8.2-1.6-11.2-4.6l-88.6-88.7c-3.5-3.6-6.2-7.8-8-12.5c-2-4.6-3.1-9.5-3.2-14.5V68.1
	c0.1-8.7,7.1-15.7,15.8-15.9h51.6c5,0.1,9.9,1.3,14.5,3.3c4.7,1.8,9,4.5,12.6,8l88.6,88.5C239.1,155,240.8,159.1,240.8,163.3
	L240.8,163.3z"/>
</svg>
