<?xml version="1.0" encoding="utf-8"?>
<!-- Generator: Adobe Illustrator 24.0.3, SVG Export Plug-In . SVG Version: 6.00 Build 0)  -->
<svg version="1.1" id="Layer_1" xmlns="http://www.w3.org/2000/svg" xmlns:xlink="http://www.w3.org/1999/xlink" x="0px" y="0px"
	 viewBox="0 0 1231.2 314.4" style="enable-background:new 0 0 1231.2 314.4;" xml:space="preserve">
<style type="text/css">
	.st0{fill:#FFFFFF;}
	.st1{fill:#FFFFFF;stroke:#4A4A4C;stroke-width:2.37;}
	.st2{fill:#FFFFFF;stroke:#4A4A4C;stroke-width:2.38;}
</style>
<title>Moodle_Logo_UseonBlack_RGB</title>
<path class="st0" d="M1086.3,235.3c2.3,11.2,8.2,21.4,16.7,29c8.8,8.2,18.7,12.3,29.5,12.3c7.5,0,15.7-2,24.6-5.9
	c10.8-4.6,16.2-10,16.2-16.2l58-0.5c-8.2,19.3-22.1,34.4-41.8,45.2c-18.3,10.2-38.5,15.2-60.4,15.2c-28.2,0-51.5-8.8-70-26.3
	s-27.8-40.4-27.8-68.5c0-29.2,9.2-52.3,27.8-69.5s42.5-25.8,72-25.8c32.1,0,57.2,10.6,75.2,31.9c16.7,19.6,25.1,46,25.1,79.1
	L1086.3,235.3z M1176.2,201.4c-2.3-11.8-7.2-21.5-14.7-29c-8.5-8.2-18.4-12.3-29.5-12.3c-11.5,0-21.1,3.9-28.7,11.8
	c-7.7,7.9-12.8,17.7-15.5,29.5L1176.2,201.4z"/>
<path class="st0" d="M965.5,308.5V0h55v308.5H965.5z"/>
<path class="st0" d="M892.7,308.5v-18.2c-4.9,6.6-13.3,11.8-25.1,15.7c-9.6,3.5-19.8,5.3-30,5.4c-26.2,0-47.2-9-63.1-27
	s-23.8-40.3-23.8-66.8c0-26.2,7.8-48.1,23.3-65.8s36.3-26.5,62.2-26.5c29.1,0,48,7.9,56.5,23.6V0h53.5v308.5H892.7z M892.7,205.9
	c0-9.8-4.7-19.3-14-28.3c-9.3-9-18.9-13.5-28.7-13.5c-14.1,0-25.2,5.7-33.4,17.2c-7.2,10.2-10.8,22.6-10.8,37.3
	c0,14.4,3.6,26.7,10.8,36.9c8.2,11.8,19.3,17.7,33.4,17.7c8.5,0,17.8-4,27.8-12c10-8,15-16.3,15-24.8L892.7,205.9z"/>
<path class="st0" d="M647,313.5c-27.8,0-50.8-8.8-69-26.5c-18.2-17.7-27.2-40.5-27.3-68.3c0-27.8,9.1-50.6,27.3-68.3
	s41.2-26.5,69-26.5c27.8,0,50.9,8.8,69.3,26.5s27.5,40.4,27.5,68.3c0,27.9-9.2,50.6-27.5,68.3S674.8,313.4,647,313.5z M647,168
	c-13.3,0-23.5,5-30.6,15.1c-7.1,10-10.7,22-10.7,35.8c0,13.8,3.3,25.5,9.9,35.1c7.6,10.9,18.1,16.3,31.3,16.3
	c13.3,0,23.7-5.4,31.3-16.3c7-9.5,10.4-21.2,10.4-35.1c0-13.8-3.3-25.5-9.9-35C671.2,173.3,660.6,168,647,168z"/>
<path class="st0" d="M448.1,313.5c-27.8,0-50.8-8.8-69-26.5c-18.2-17.7-27.2-40.5-27.3-68.3c0-27.8,9.1-50.6,27.3-68.3
	s41.2-26.5,69-26.5c27.8,0,50.9,8.8,69.3,26.5s27.5,40.4,27.5,68.3c0,27.9-9.2,50.6-27.5,68.3C499,304.6,475.9,313.4,448.1,313.5z
	 M448.1,168c-13.3,0-23.5,5-30.6,15.1c-7.1,10-10.7,22-10.7,35.8c0,13.8,3.3,25.5,9.9,35.1c7.6,10.9,18.1,16.3,31.3,16.3
	c13.3,0,23.7-5.4,31.3-16.3c6.9-9.5,10.4-21.2,10.4-35.1c0-13.8-3.3-25.5-9.9-35C472.3,173.3,461.7,168,448.1,168L448.1,168z"/>
<path class="st0" d="M288.9,309.1V201c0-22.6-9.3-33.9-28-33.9s-28,11.3-28,33.9v108.1h-55V201c0-22.6-9.2-33.9-27.5-33.9
	c-18.7,0-28,11.3-28,33.9v108.1h-55V194.6c0-23.6,8.2-41.4,24.6-53.5c14.4-10.8,33.9-16.2,58.5-16.2c24.9,0,43.2,6.4,55,19.2
	c10.2-12.8,28.7-19.2,55.5-19.2c24.6,0,44.1,5.4,58.5,16.2c16.4,12.1,24.6,30,24.6,53.5v114.5H288.9z"/>
<path class="st1" d="M0.8,145.8"/>
<path class="st2" d="M1.7,145.3"/>
<path class="st0" d="M173.9,116.8l55.1-40.1l-0.7-2.4C135,83.9,80.4,96.4,0,144.1l0.7,2.4l21-0.7c15.2,0.5,30.9,1.3,46,1.3
	c-1,24.1,0.8,32.7,0.8,32.7c51.9,17.6,101.2,1.5,127.1-43.9C188.8,129.1,181.5,122.8,173.9,116.8z"/>
<path class="st0" d="M113.8,110c-0.3-1.1-2.2-1.5-4.3-0.9c-1.3,0.3-2.4,1.1-3.1,2.2c-18.5,5-49.2,13.7-70.7,21l-1.3,0.4
	c-16.7,5.6-24.7,8.5-25.2,12.6c-2.3,18.4-0.9,42.2-0.9,42.5l0.2,6.4c-9.7,27.6,0.1,49.6,8.4,69.8c0.1-24.9,1.1-45.2-6-71
	c-0.2-3.8-1.5-30.4,0.6-47.3C11.7,142.9,23,139,35,135l1.3-0.4c22-7.4,53.6-16.4,71.9-21.3c0.8,0,1.5,0,2.3-0.2
	C112.6,112.4,114.1,111.1,113.8,110z"/>
</svg>
