<?xml version="1.0" encoding="utf-8"?>
<!-- Generator: Adobe Illustrator 24.0.3, SVG Export Plug-In . SVG Version: 6.00 Build 0)  -->
<svg version="1.1" id="Calque_1" xmlns="http://www.w3.org/2000/svg" xmlns:xlink="http://www.w3.org/1999/xlink" x="0px" y="0px"
	 viewBox="0 0 598.9 600" style="enable-background:new 0 0 598.9 600;" xml:space="preserve">
<style type="text/css">
	.st0{fill:#76bbff;}
	.st1{fill:#FCFCFC;}
</style>
<title>sondage</title>
<path class="st0" d="M69.9-1h459c38.6,0,69.9,31.3,69.9,69.9v459c0,38.6-31.3,69.9-69.9,69.9h-459C31.3,597.9,0,566.6,0,528V69
	C0,30.3,31.3-1,69.9-1z"/>
<path class="st1" d="M346.2,431.8v86.1c-0.2,7.9-6.5,14.2-14.4,14.4h-86.1c-7.9-0.2-14.2-6.5-14.4-14.4v-86.1
	c0.2-7.9,6.5-14.2,14.4-14.4h86.1C339.7,417.6,346,424,346.2,431.8L346.2,431.8z M459.6,216.5c0,22.5-6.3,44.6-18.1,63.7
	c-5.5,8-12.2,15.2-19.7,21.4c-6.5,5.7-13.4,10.9-20.6,15.6c-5.3,3.2-12.6,7.5-21.9,12.7c-10,5.7-18.4,13.7-24.6,23.3
	c-6.6,10-9.9,18.1-9.9,24c-0.1,4.3-1.6,8.4-4.3,11.7c-2.2,3.4-6,5.5-10,5.6h-86.1c-3.6,0-6.6-2.2-9.1-6.6c-2.4-4.1-3.7-8.7-3.8-13.5
	v-16.1c0-19.9,7.8-38.6,23.3-56.1c15.5-17.6,32.7-30.6,51.3-38.9c14.1-6.5,24.2-13.2,30.1-20.1s9-16,9-27.3c0-10-5.5-18.9-16.6-26.6
	c-11.4-7.7-24.8-11.7-38.6-11.5c-15.5,0-28.5,3.5-38.8,10.4c-8.4,6-21.2,19.7-38.4,41.3c-2.6,3.6-6.7,5.7-11.1,5.7
	c-3.2-0.1-6.4-1-9.1-2.8l-58.8-44.9c-3-2.2-5-5.4-5.6-9c-0.6-3.5,0.2-7.1,2.1-10C168.6,104.8,224.1,73,296.8,73
	c19.8,0.1,39.4,3.9,57.8,11.1c18.9,7.2,36.5,17.2,52.3,29.8c15.6,12.5,28.6,28,38,45.6C454.5,177,459.6,196.6,459.6,216.5
	L459.6,216.5L459.6,216.5z"/>
</svg>
