<?xml version="1.0" encoding="utf-8"?>
<!-- Generator: Adobe Illustrator 24.0.3, SVG Export Plug-In . SVG Version: 6.00 Build 0)  -->
<svg version="1.1" id="Calque_1" xmlns="http://www.w3.org/2000/svg" xmlns:xlink="http://www.w3.org/1999/xlink" x="0px" y="0px"
	 viewBox="0 0 533.5 533.5" style="enable-background:new 0 0 533.5 533.5;" xml:space="preserve">
<style type="text/css">
	.st0{fill:#76bbff;}
	.st1{fill:#FFFFFF;}
</style>
<title>forum</title>
<path class="st0" d="M62.1,0h409.3c34.3,0,62.1,27.8,62.1,62.1v409.3c0,34.3-27.8,62.1-62.1,62.1H62.1C27.8,533.5,0,505.7,0,471.4
	V62.1C0,27.8,27.8,0,62.1,0z"/>
<path class="st1" d="M382.2,222.7c0,21.4-7.2,41.2-21.7,59.4s-34.2,32.6-59.3,43.2c-25.9,10.7-53.7,16.1-81.7,15.8
	c-13.6,0-27.3-1.3-40.7-3.7c-19.4,13.7-41.2,23.7-64.2,29.5c-6.6,1.6-13.2,2.8-19.9,3.7H94c-1.8,0-3.4-0.7-4.7-1.8
	c-1.4-1.2-2.4-2.9-2.6-4.8c-0.2-0.5-0.2-1-0.2-1.5s0-1,0.1-1.5s0.2-0.9,0.5-1.4l0.6-1.2l0.8-1.3l0.9-1.2l1-1.2l0.9-1
	c0.8-0.9,2.5-2.8,5.3-5.8c2.8-2.9,4.8-5.2,6-6.8c1.2-1.6,3-3.9,5.2-6.7c2.2-2.8,4.2-5.8,5.8-8.9c1.6-3.1,3.2-6.5,4.7-10.2
	c-19.1-11.1-34.2-24.7-45.1-40.9c-10.6-15.2-16.3-33.2-16.4-51.8c0-21.4,7.2-41.2,21.7-59.4s34.2-32.5,59.3-43.1
	c25.9-10.7,53.7-16.1,81.7-15.8c28-0.3,55.8,5.1,81.7,15.8c25,10.6,44.8,24.9,59.3,43.1C375.1,181.5,382.3,201.3,382.2,222.7z
	 M471,281.9c0,18.6-5.7,36.7-16.4,51.9c-10.9,16.1-26,29.7-45.1,40.8c1.5,3.7,3.1,7.1,4.7,10.2c1.7,3.1,3.6,6.1,5.8,8.9
	c2.2,2.9,4,5.1,5.2,6.7s3.2,3.9,6,6.8s4.5,4.8,5.3,5.8c0.2,0.2,0.5,0.5,0.9,1c0.5,0.5,0.8,0.9,1,1.2c0.3,0.4,0.6,0.8,0.9,1.2
	c0.3,0.4,0.6,0.8,0.8,1.3l0.6,1.2l0.5,1.4l0.1,1.5l-0.2,1.5c-0.4,2-1.4,3.8-3,5.1c-1.4,1.2-3.2,1.8-5.1,1.6
	c-30.4-3.9-59.3-15.4-84.1-33.3c-13.4,2.4-27,3.7-40.7,3.7c-41.8,0-78.1-10.2-109.1-30.5c8.9,0.6,15.7,0.9,20.3,0.9
	c24.2,0.1,48.3-3.4,71.5-10.3c21.9-6.5,42.5-16.6,61-29.8c19.3-14.2,34.1-30.6,44.4-49.1c16.2-28.5,19.9-62.5,10.2-93.8
	c19.9,10.9,35.6,24.6,47.1,41.1C464.9,244.2,470.9,262.8,471,281.9z"/>
</svg>
