<?xml version="1.0" encoding="utf-8"?>
<!-- Generator: Adobe Illustrator 24.0.3, SVG Export Plug-In . SVG Version: 6.00 Build 0)  -->
<svg version="1.1" id="Calque_1" xmlns="http://www.w3.org/2000/svg" xmlns:xlink="http://www.w3.org/1999/xlink" x="0px" y="0px"
	 viewBox="0 0 289.2 289.2" style="enable-background:new 0 0 289.2 289.2;" xml:space="preserve">
<style type="text/css">
	.st0{fill:#49a7ad;}
	.st1{fill:#FFFFFF;}
</style>
<title>dossier</title>
<path class="st0" d="M33.7,0.2h221.6c18.6,0,33.7,15.1,33.7,33.7v221.6c0,18.6-15.1,33.7-33.7,33.7H33.7C15.1,289.2,0,274.1,0,255.5
	V33.9C0,15.3,15.1,0.2,33.7,0.2z"/>
<path class="st1" d="M255.8,157.1c0,2.4-1.2,4.9-3.5,7.5l-38.2,45c-3.8,4.3-8.5,7.6-13.7,9.8c-5.1,2.5-10.7,3.9-16.3,4H60.3
	c-2.4,0-4.7-0.5-6.9-1.5c-1.9-0.9-3.1-2.8-3-4.9c0-2.4,1.2-4.9,3.5-7.5l38.2-45c3.8-4.3,8.5-7.6,13.7-9.8c5.1-2.5,10.7-3.9,16.3-4
	h123.7c2.4,0,4.7,0.5,6.9,1.5C254.8,153.1,255.9,155,255.8,157.1z M216.8,118v18.2h-94.6c-7.1,0-14.6,1.8-22.4,5.4
	s-14,8.1-18.7,13.6l-38.3,45l-0.6,0.7c0-0.3,0-0.8-0.1-1.4s-0.1-1.1-0.1-1.4V88.9c0.1-14,11.4-25.4,25.5-25.5H104
	c14,0.1,25.4,11.4,25.5,25.5v3.6h61.9C205.4,92.6,216.8,104,216.8,118L216.8,118z"/>
</svg>
