<?xml version="1.0" encoding="utf-8"?>
<!-- Generator: Adobe Illustrator 24.0.3, SVG Export Plug-In . SVG Version: 6.00 Build 0)  -->
<svg version="1.1" id="Calque_1" xmlns="http://www.w3.org/2000/svg" xmlns:xlink="http://www.w3.org/1999/xlink" x="0px" y="0px"
	 viewBox="0 0 289.2 289.2" style="enable-background:new 0 0 289.2 289.2;" xml:space="preserve">
<style type="text/css">
	.st0{fill:#76bbff;}
	.st1{fill:#FFFFFF;}
</style>
<title>outilExterne</title>
<path class="st0" d="M33.7,0.2h221.4c18.6,0,33.7,15.1,33.7,33.7v221.4c0,18.6-15.1,33.7-33.7,33.7H33.7C15.1,289,0,273.9,0,255.3
	V33.9C0,15.3,15.1,0.2,33.7,0.2z"/>
<path class="st1" d="M256.5,173.7c0,6.8-1.8,12.4-5.5,16.9s-8.9,6.8-15.5,6.8c-3.3,0-6.7-0.8-9.8-2.2c-2.7-1.2-5.2-2.9-7.4-4.8
	c-2.1-1.9-4.5-3.5-7.1-4.8c-2.8-1.4-5.8-2.2-8.9-2.2c-9.2,0-13.8,5.2-13.8,15.6c0.2,4.9,0.9,9.7,2,14.4c1.3,6.4,2,11.2,1.9,14.4v0.7
	c-1.8,0-3.3,0-4.1,0.1c-2.9,0.3-6.9,0.8-12.2,1.4c-5.3,0.7-10.1,1.2-14.4,1.7c-4.3,0.4-8.4,0.7-12.3,0.7c-4.5,0.2-9-1-12.9-3.3
	c-3.5-2.2-5.3-5.7-5.3-10.4c0-3.1,0.8-6.1,2.2-8.9c1.2-2.6,2.9-5,4.8-7.1c1.9-2.2,3.5-4.7,4.8-7.4c1.4-3.1,2.2-6.3,2.2-9.8
	c0-6.6-2.3-11.8-6.8-15.5s-10.1-5.5-16.9-5.5c-7,0-13,1.9-18,5.7s-7.5,9.2-7.5,16c0,3.5,0.7,7.1,1.9,10.4c1,2.9,2.4,5.6,4.1,8.1
	c1.5,2.1,3,4.3,4.2,6.6c1.1,1.9,1.8,4.1,1.9,6.3c0,3.7-1.9,7.5-5.7,11.2c-3.1,3-7.9,4.4-14.6,4.4c-7.9,0-18.2-1-30.7-3
	c-1.1-0.2-2.3-0.4-3.4-0.5c-1.1-0.1-2.3-0.3-3.4-0.5l-1.6-0.3c-0.1,0-0.3-0.1-0.4-0.1c-0.2,0-0.3,0-0.3-0.1V100.2
	c0.8,0.2,1.4,0.4,2.2,0.5c1.2,0.2,2.7,0.4,4.3,0.7c0.9,0.1,1.8,0.3,2.7,0.5c12.5,2,22.8,3.1,30.7,3.1c6.7,0,11.6-1.4,14.6-4.4
	c3.8-3.6,5.7-7.4,5.7-11.2c-0.1-2.2-0.8-4.4-1.9-6.3c-1.2-2.3-2.6-4.6-4.2-6.7c-1.8-2.5-3.2-5.2-4.2-8.1C96.7,65,96,61.4,96,57.9
	c0.1-6.9,2.6-12.1,7.5-16c5-3.8,10.9-5.7,18.1-5.7c6.7,0,12.2,1.8,16.8,5.5s6.8,8.9,6.8,15.5c0,3.3-0.8,6.7-2.2,9.8
	c-1.2,2.7-2.9,5.2-4.8,7.4c-1.9,2.1-3.5,4.5-4.8,7.1c-1.4,2.8-2.2,5.8-2.2,8.9c0,4.8,1.7,8.2,5.3,10.4c3.9,2.3,8.4,3.4,12.9,3.3
	c7.6-0.2,15.1-0.9,22.6-1.9c9.7-1.2,16.5-2,20.5-2.1v0.3c-0.2,0.8-0.4,1.4-0.5,2.2c-0.2,1.2-0.4,2.7-0.7,4.3
	c-0.1,0.9-0.3,1.8-0.5,2.7c-2,12.5-3,22.8-3,30.7c0,6.7,1.4,11.6,4.4,14.6c3.6,3.8,7.4,5.7,11.2,5.7c2.2-0.1,4.4-0.8,6.3-1.9
	c2.3-1.2,4.6-2.6,6.6-4.2c2.5-1.8,5.2-3.2,8.1-4.2c3.3-1.2,6.9-1.9,10.4-1.9c6.9,0,12.1,2.5,16,7.4
	C254.6,160.5,256.5,166.5,256.5,173.7z"/>
</svg>
