<?xml version="1.0" encoding="utf-8"?>
<!-- Generator: Adobe Illustrator 24.0.3, SVG Export Plug-In . SVG Version: 6.00 Build 0)  -->
<svg version="1.1" id="Calque_1" xmlns="http://www.w3.org/2000/svg" xmlns:xlink="http://www.w3.org/1999/xlink" x="0px" y="0px"
	 viewBox="0 0 289.2 289.2" style="enable-background:new 0 0 289.2 289.2;" xml:space="preserve">
<style type="text/css">
	.st0{fill:#49a7ad;}
	.st1{fill:#FFFFFF;}
</style>
<path class="st0" d="M34.7,0.4h221.6c18.6,0,33.7,15.1,33.7,33.7v221.6c0,18.6-15.1,33.7-33.7,33.7H34.7C16.1,289.4,1,274.3,1,255.7
	V34.1C1,15.5,16.1,0.4,34.7,0.4z"/>
<title>livre</title>
<path class="st1" d="M242.4,94.5c3.2,4.5,3.9,9.7,2.1,15.4l-32.8,107.9c-1.6,5.2-4.8,9.7-9.1,12.8c-4.2,3.3-9.3,5.1-14.6,5.2H78
	c-6.1,0-12-2.1-17.7-6.4c-5.4-3.9-9.6-9.4-11.9-15.7c-1.9-4.8-2-10.2-0.2-15.1c0-0.3,0.1-1.4,0.4-3.2c0.2-1.8,0.4-3.3,0.5-4.4
	c0-0.9-0.1-1.7-0.4-2.6c-0.3-0.7-0.4-1.5-0.4-2.3c0.2-0.9,0.5-1.7,1-2.5c0.6-1,1.3-1.9,2-2.8s1.4-1.8,2-2.8
	c2.1-3.5,3.9-7.1,5.4-10.9c1.5-3.5,2.7-7.2,3.6-10.9c0.3-1.2,0.3-2.4,0.1-3.6c-0.2-1.1-0.2-2.2-0.1-3.3c0.4-1.2,1.1-2.4,2-3.3
	c0.7-0.9,1.4-1.8,2-2.7c2-3.5,3.6-7.2,5-11c1.4-3.4,2.4-7,3-10.7c0-1.3-0.1-2.6-0.3-3.8c-0.3-1.8-0.3-2.9,0.1-3.3
	c0.6-1.4,1.5-2.6,2.6-3.6c1.4-1.4,2.3-2.3,2.6-2.7c2.1-3.1,3.7-6.5,5-10c1.6-3.7,2.7-7.5,3.3-11.5c0-1-0.1-2-0.4-3s-0.4-2.1-0.2-3.2
	c0.2-0.8,0.6-1.5,1.1-2.1c0.6-0.8,1.3-1.7,2.1-2.8c0.9-1,1.5-1.9,2-2.5c0.8-1.2,1.4-2.4,2-3.6c0.7-1.5,1.3-2.9,1.8-4.2
	c0.5-1.3,1.2-2.7,1.9-4.3c0.6-1.4,1.4-2.6,2.3-3.8c0.9-1.1,2-2,3.2-2.8c1.3-0.9,2.8-1.3,4.3-1.4c1.9,0,3.8,0.2,5.7,0.7l-0.1,0.4
	c2-0.5,4-0.9,6.1-1.1H210c5.9,0,10.4,2.2,13.6,6.7c3.2,4.4,3.9,9.6,2.2,15.5l-32.6,107.9c-2.9,9.5-5.7,15.6-8.5,18.3
	s-7.9,4.1-15.3,4.1H65.8c-2.1,0-3.7,0.6-4.5,1.8s-0.9,2.9-0.1,5.1c1.9,5.6,7.6,8.3,17.2,8.3h110c2.3,0,4.7-0.7,6.7-1.9
	c2-1,3.5-2.8,4.2-4.9L235,96.3c0.6-2.2,0.8-4.5,0.6-6.8C238.2,90.4,240.6,92.2,242.4,94.5z M115.7,94.7c-0.3,0.9-0.2,1.9,0.2,2.7
	c0.5,0.8,1.4,1.2,2.4,1.1h72.4c1.1,0,2.2-0.4,3-1.1c0.9-0.7,1.6-1.6,2-2.7l2.5-7.6c0.3-0.9,0.2-1.9-0.2-2.7
	c-0.5-0.8-1.4-1.2-2.4-1.1h-72.4c-1.1,0-2.2,0.4-3,1.1c-0.9,0.7-1.6,1.6-2,2.7L115.7,94.7z M105.8,125.2c-0.3,0.9-0.2,1.9,0.2,2.7
	c0.5,0.8,1.5,1.2,2.4,1.1h72.4c1.1,0,2.2-0.4,3-1.1c0.9-0.7,1.6-1.6,2-2.7l2.5-7.6c0.3-0.9,0.2-1.9-0.2-2.7
	c-0.5-0.8-1.4-1.2-2.4-1.1h-72.4c-1.1,0-2.2,0.4-3,1.1c-0.9,0.7-1.6,1.6-2,2.7L105.8,125.2z"/>
</svg>
