<svg id="Calque_1" data-name="Calque 1" xmlns="http://www.w3.org/2000/svg" viewBox="0 0 372.5 143.4"><defs><style>.cls-1{fill:#a1bd4b;}.cls-2{fill:#63a2a7;}.cls-3{fill:#36a9e1;}.cls-4{fill:#1d71b8;}.cls-5{fill:#2d2e83;}.cls-6{fill:#82368c;}.cls-7{fill:#be1622;}.cls-8{fill:#f39200;}.cls-9{fill:#fff;}.cls-10{isolation:isolate;}</style></defs><g id="ligne-gauche"><polygon class="cls-1" points="18.4 117.2 41.5 117.2 41.5 126 0 126 18.4 117.2"/><rect class="cls-2" x="41.5" y="117.2" width="31.6" height="8.7"/><rect class="cls-3" x="73.1" y="117.2" width="31.6" height="8.7"/></g><g id="ligne-droite"><path class="cls-4" d="M191.2,117.2h34v8.7h-34Z" transform="translate(0 0)"/><path class="cls-5" d="M225.2,117.2h34v8.7h-34Z" transform="translate(0 0)"/><path class="cls-6" d="M257.9,117.2h34v8.7h-34Z" transform="translate(0 0)"/><path class="cls-7" d="M292,117.2h34v8.7H292Z" transform="translate(0 0)"/><path class="cls-8" d="M326,117.2h34v8.7H326Z" transform="translate(0 0)"/></g><g id="lettres"><path id="Y" class="cls-9" d="M359,58.3c1.1-.1,13.7-.5,13.5.1L357.4,93.7c-2.3,5.7-5.1,9.8-8.5,12.1a21.13,21.13,0,0,1-12.2,3.5,25.75,25.75,0,0,1-7.7-1.2,16.77,16.77,0,0,1-5.8-3,.76.76,0,0,1-.2-.9l4.6-8.9a.71.71,0,0,1,1.1-.2,13.19,13.19,0,0,0,7.5,2.5,7.82,7.82,0,0,0,4.8-1.4,12.53,12.53,0,0,0,3.3-4.8l.2-.5L331,59.4a.7.7,0,0,1,.7-1h13a1,1,0,0,1,.7.4l5.9,14.3a.69.69,0,0,0,1.3,0l6-14.5a1.38,1.38,0,0,1,.4-.3Z" transform="translate(0 0)"/><g class="cls-10"><path class="cls-9" d="M198.41,88.59a32.65,32.65,0,0,1-12.78-12.13A33.41,33.41,0,0,1,181,58.93a33.41,33.41,0,0,1,4.65-17.53,32.65,32.65,0,0,1,12.78-12.13,40.8,40.8,0,0,1,33.75-1.36,31.13,31.13,0,0,1,11.61,8.65l-9.78,9a21,21,0,0,0-16.54-7.71,22,22,0,0,0-10.91,2.68A19.12,19.12,0,0,0,199.07,48a21.9,21.9,0,0,0-2.68,10.9,21.9,21.9,0,0,0,2.68,10.9,19.12,19.12,0,0,0,7.47,7.48A22,22,0,0,0,217.45,80,20.89,20.89,0,0,0,234,72.18l9.78,9A30.58,30.58,0,0,1,232.11,90a38.8,38.8,0,0,1-15.51,3A37.83,37.83,0,0,1,198.41,88.59Z" transform="translate(0 0)"/></g><g class="cls-10"><path class="cls-9" d="M319,25.21V93.08H302.72V65.25H270.85V93.08H254.61V25.21h16.24V52h31.87V25.21Z" transform="translate(0 0)"/></g><g id="UN"><path class="cls-9" d="M117.5,72l16.7-8.1V.4c-2.4-.2-4.9-.4-7.3-.4a73,73,0,0,0-9.4.6V60.8c-10.9,8.7-21.4,9-26.5,8.6V9.6A71.8,71.8,0,0,0,73.6,23.7c0,11,0,16-.1,22.1v7.5a20.69,20.69,0,0,0,8.4,15.8A13.77,13.77,0,0,0,89.5,72h-.3c1.1.1,2.9.3,4.6.3a38.37,38.37,0,0,0,23.6-8.4C117.5,66.4,117.5,69.2,117.5,72Z" transform="translate(0 0)"/><path class="cls-9" d="M178.4,91.6A20.69,20.69,0,0,0,170,75.8a13.8,13.8,0,0,0-7.7-2.9c-4.5-.6-16.1-1-28,8.3V72.4l-16.7,8.1v62.3a72.6,72.6,0,0,0,9.3.6,58.46,58.46,0,0,0,7.3-.4V84.1c11-8.8,21.6-9.2,26.7-8.7v59.4a73.2,73.2,0,0,0,17.5-13.2Z" transform="translate(0 0)"/></g><g id="P"><path class="cls-9" d="M48.4,28.5c19.3,7.5,19.4,38,0,45.5-7.5,4-21.5,3.1-30.5,3.1a.43.43,0,0,0-.4.4V101c0,.1-.1.3-.2.3l-5.4,3.1c-.4.2-.9.5-1.3.7C8.1,106.3,0,109.9,0,109.4V25.7a.43.43,0,0,1,.4-.4C11.7,25.9,38.9,23.3,48.4,28.5Zm-6,31.9c5.2-3.9,5.2-14.5,0-18.4-4.5-4.5-17.8-3-24.4-3.2a.43.43,0,0,0-.4.4v24a.43.43,0,0,0,.4.4C24.6,63.4,37.9,64.9,42.4,60.4Z" transform="translate(0 0)"/></g></g></svg>