<?xml version="1.0" encoding="utf-8"?>
<!-- Generator: Adobe Illustrator 25.1.0, SVG Export Plug-In . SVG Version: 6.00 Build 0)  -->
<svg version="1.1" id="Calque_1" xmlns="http://www.w3.org/2000/svg" xmlns:xlink="http://www.w3.org/1999/xlink" x="0px" y="0px"
	 viewBox="0 0 372.4 143.5" style="enable-background:new 0 0 372.4 143.5;" xml:space="preserve">
<style type="text/css">
	.st0{fill:#A1BD4B;}
	.st1{fill:#63A2A7;}
	.st2{fill:#36A9E1;}
	.st3{fill:#1D71B8;}
	.st4{fill:#2D2E83;}
	.st5{fill:#82368C;}
	.st6{fill:#BE1622;}
	.st7{fill:#F39200;}
	.st8{fill:#4D5151;}
	.st9{enable-background:new    ;}
</style>
<g id="ligne-gauche">
	<polygon class="st0" points="18.4,117.2 41.5,117.2 41.5,126 0,126 	"/>
	<rect x="41.5" y="117.2" class="st1" width="31.6" height="8.7"/>
	<rect x="73.1" y="117.2" class="st2" width="31.6" height="8.7"/>
</g>
<g id="ligne-droite">
	<path class="st3" d="M191.2,117.2h34v8.7h-34C191.2,126,191.2,116.2,191.2,117.2z"/>
	<path class="st4" d="M225.2,117.2h34v8.7h-34C225.2,126,225.2,116.2,225.2,117.2z"/>
	<path class="st5" d="M257.9,117.2h34v8.7h-34C257.9,126,257.9,116.2,257.9,117.2z"/>
	<path class="st6" d="M292,117.2h34v8.7h-34C292,126,292,116.2,292,117.2z"/>
	<path class="st7" d="M326,117.2h34v8.7h-34C326,126,326,116.2,326,117.2z"/>
</g>
<g id="lettres">
	<path id="Y" class="st8" d="M359,58.3c1.1-0.1,13.7-0.5,13.5,0.1l-15.1,35.3c-2.3,5.7-5.1,9.8-8.5,12.1c-3.4,2.3-7.4,3.5-12.2,3.5
		c-2.6,0-5.1-0.4-7.7-1.2c-2.3-0.7-4.2-1.7-5.8-3c-0.3-0.2-0.3-0.6-0.2-0.9l4.6-8.9c0.2-0.4,0.7-0.5,1.1-0.2c0.9,0.7,2,1.3,3.2,1.7
		c1.4,0.6,2.9,0.8,4.3,0.8c2,0,3.6-0.5,4.8-1.4c1.2-1,2.3-2.5,3.3-4.8l0.2-0.5L331,59.4c-0.2-0.5,0.1-1,0.7-1h13
		c0.3,0,0.5,0.2,0.7,0.4l5.9,14.3c0.2,0.6,1.1,0.6,1.3,0l6-14.5C358.7,58.5,358.8,58.4,359,58.3L359,58.3z"/>
	<g class="st9">
		<path class="st8" d="M198.4,88.6c-5.4-2.9-9.7-7-12.8-12.1c-3.1-5.2-4.7-11-4.7-17.5c0-6.5,1.6-12.4,4.7-17.5
			c3.1-5.2,7.4-9.2,12.8-12.1c5.4-2.9,11.5-4.4,18.3-4.4c5.7,0,10.9,1,15.5,3c4.6,2,8.5,4.9,11.6,8.6l-9.8,9
			c-4.5-5.1-10-7.7-16.5-7.7c-4.1,0-7.7,0.9-10.9,2.7c-3.2,1.8-5.7,4.3-7.5,7.5c-1.8,3.2-2.7,6.8-2.7,10.9c0,4.1,0.9,7.7,2.7,10.9
			c1.8,3.2,4.3,5.7,7.5,7.5c3.2,1.8,6.8,2.7,10.9,2.7c6.6,0,12.1-2.6,16.5-7.8l9.8,9c-3.1,3.8-7,6.7-11.7,8.7c-4.6,2-9.8,3-15.5,3
			C209.9,93,203.8,91.5,198.4,88.6z"/>
	</g>
	<g class="st9">
		<path class="st8" d="M319,25.2v67.9h-16.2V65.3h-31.9v27.8h-16.2V25.2h16.2V52h31.9V25.2H319z"/>
	</g>
	<g id="UN">
		<path class="st8" d="M117.5,72l16.7-8.1c0-16.1,0-34.9,0-48.3c0-5.3,0-10.5,0-15.2c-2.4-0.2-4.9-0.4-7.3-0.4
			c-3.2,0-6.3,0.2-9.4,0.6c0,19.3,0,36.4,0,53.4c0,0.3,0,0.5,0,0.8c0,1.8,0,3.9,0,6c-10.9,8.7-21.4,9-26.5,8.6c0-19.7,0-38.8,0-59.8
			c-6.5,3.8-12.4,8.5-17.4,14.1c0,11,0,16-0.1,22.1c0,2.6,0,5.1,0,7.5c0.4,6.8,3.4,11.9,8.4,15.8c2.3,1.8,4.9,2.7,7.6,2.9h-0.3
			c1.1,0.1,2.9,0.3,4.6,0.3c5.7,0,14.5-1.4,23.6-8.4C117.5,66.4,117.5,69.2,117.5,72z"/>
		<path class="st8" d="M178.4,91.6c-0.4-6.8-3.4-11.9-8.4-15.8c-2.3-1.8-4.9-2.7-7.7-2.9c-4.5-0.6-16.1-1-28,8.3c0-2.7,0-5.6,0-8.8
			l-16.7,8.1c0,19.2,0,45.6,0,62.3c3.1,0.4,6.2,0.6,9.3,0.6c2.5,0,4.9-0.1,7.3-0.4c0-19.2,0-38.7,0-56.6c0-0.3,0-0.5,0-0.8
			c0-0.5,0-1,0-1.5c11-8.8,21.6-9.2,26.7-8.7c0,20.2,0,38.5,0,59.4c6.5-3.5,12.4-8,17.5-13.2C178.4,111.9,178.4,101,178.4,91.6z"/>
	</g>
	<g id="P">
		<g>
			<path class="st8" d="M48.4,28.5c19.3,7.5,19.4,38,0,45.5c-7.5,4-21.5,3.1-30.5,3.1c-0.2,0-0.4,0.2-0.4,0.4V101
				c0,0.1-0.1,0.3-0.2,0.3l-5.4,3.1c-0.4,0.2-0.9,0.5-1.3,0.7C8.1,106.3,0,109.9,0,109.4V25.7c0-0.2,0.2-0.4,0.4-0.4
				C11.7,25.9,38.9,23.3,48.4,28.5z M42.4,60.4c5.2-3.9,5.2-14.5,0-18.4c-4.5-4.5-17.8-3-24.4-3.2c-0.2,0-0.4,0.2-0.4,0.4v24
				c0,0.2,0.2,0.4,0.4,0.4C24.6,63.4,37.9,64.9,42.4,60.4z"/>
		</g>
	</g>
</g>
</svg>
