<?xml version="1.0" encoding="utf-8"?>
<!-- Generator: Adobe Illustrator 24.0.3, SVG Export Plug-In . SVG Version: 6.00 Build 0)  -->
<svg version="1.1" id="Calque_1" xmlns="http://www.w3.org/2000/svg" xmlns:xlink="http://www.w3.org/1999/xlink" x="0px" y="0px"
	 viewBox="0 0 598.9 600" style="enable-background:new 0 0 598.9 600;" xml:space="preserve">
<style type="text/css">
	.st0{fill:#76bbff;}
	.st1{fill:#FFFFFF;}
	.st2{fill:#FFFFFF;stroke:#76bbff;stroke-width:8;stroke-miterlimit:10;}
</style>
<title>atelier</title>
<path class="st0" d="M69.9,1.1h459c38.6,0,69.9,31.3,69.9,69.9v459c0,38.6-31.3,69.9-69.9,69.9h-459C31.3,600,0,568.7,0,530V71
	C0,32.4,31.3,1.1,69.9,1.1z"/>
<path class="st1" d="M331.5,458.5c0,14.7-4.5,26.4-13.4,34.9c-9,8.5-20.9,12.8-35.7,12.8h-161c-14.9,0-26.8-4.3-35.7-12.8
	c-9-8.5-13.5-20.2-13.5-34.9c0-6.5,0.2-12.9,0.6-19.1c0.5-6.7,1.4-13.4,2.6-20.1c1.2-6.8,2.8-13.5,4.9-20c2-6.2,4.7-12.3,7.9-18
	c3.1-5.5,6.9-10.5,11.4-14.9c4.6-4.3,9.9-7.6,15.7-9.9c6.6-2.5,13.5-3.8,20.5-3.7c1.1,0,3.7,1.3,7.7,4c4.1,2.6,8.6,5.6,13.7,8.8
	c6.2,3.8,12.9,6.7,19.9,8.8c16,5.3,33.2,5.3,49.2,0c7-2.1,13.7-5.1,19.9-8.8c5.1-3.3,9.7-6.2,13.7-8.8s6.6-4,7.7-4
	c7-0.1,14,1.2,20.5,3.7c5.8,2.2,11.2,5.6,15.7,9.9c4.5,4.4,8.4,9.4,11.4,14.9c3.3,5.7,5.9,11.7,7.9,18c2.1,6.5,3.7,13.2,4.9,20
	c1.2,6.6,2.1,13.3,2.6,20.1C331.2,445.6,331.5,452,331.5,458.5z M272.5,294.1c-0.1,39-31.7,70.6-70.7,70.6
	c-39.1,0-70.7-31.7-70.7-70.7c0-39.1,31.7-70.7,70.7-70.7C240.9,223.3,272.5,254.9,272.5,294.1L272.5,294.1z"/>
<path class="st2" d="M148.1,144.7c9.7-11.6,22.2-20.5,36.3-26c15.9-6.5,33-9.7,50.1-9.5c13.1,0,26.1,1.9,38.7,5.6
	c11.4,3.3,22.1,8.4,31.8,15.2c8.6,6.1,15.8,13.8,21.3,22.8c5.2,8.3,7.9,17.8,8,27.6c0,11.2-3.5,22.2-10.1,31.3
	c-7.2,10.2-16.6,18.5-27.6,24.5c0.8,2.9,1.8,5.7,2.9,8.5c1.1,2.7,2.1,4.9,3,6.6c1.1,2,2.3,3.9,3.6,5.7c1.5,2.1,2.7,3.5,3.4,4.4
	l3.8,4.1l3.4,3.8l0.9,1l0.8,1l0.7,1c0.4,0.6,0.5,0.9,0.5,1.1c0,0.4,0.1,0.8,0.2,1.1c0.2,0.4,0.2,0.9,0,1.3v0.1
	c-0.3,1.3-0.9,2.4-2,3.2c-0.9,0.8-2.2,1.2-3.4,1c-4.3-0.5-8.5-1.3-12.7-2.4c-19-4.7-36.6-14-51.2-27c-5.4,0.6-10.8,0.9-16.1,0.9
	c-17.2,0.2-34.2-3.1-50.1-9.5c-14.1-5.5-26.6-14.4-36.3-26c-17.8-20.5-17.8-51.1,0-71.6L148.1,144.7z"/>
<path class="st2" d="M522.6,460.1c0,15.5-4.7,27.8-14.2,36.8c-9.4,9-22,13.5-37.7,13.5H301.1c-15.7,0-28.2-4.5-37.7-13.5
	c-9.4-9-14.2-21.3-14.2-36.8c0-6.9,0.2-13.6,0.7-20.1c0.5-7.1,1.4-14.2,2.7-21.2c1.2-7.1,3-14.2,5.1-21.1c2.1-6.6,4.9-12.9,8.3-18.9
	c3.2-5.8,7.3-11.1,12-15.7c4.8-4.5,10.4-8,16.6-10.4c6.9-2.7,14.2-4,21.6-3.9c1.2,0,3.9,1.4,8.2,4.1c4.3,2.8,9.1,5.9,14.5,9.3
	c6.6,4,13.6,7.1,21,9.3c16.8,5.6,35,5.6,51.9,0c7.4-2.2,14.4-5.3,21-9.3c5.4-3.4,10.2-6.5,14.5-9.3s7-4.2,8.2-4.1
	c7.3-0.1,14.6,1.2,21.5,3.8c6.2,2.3,11.8,5.9,16.6,10.4c4.8,4.6,8.8,9.9,12,15.7c3.4,6,6.2,12.3,8.3,18.9c2.2,6.9,3.9,13.9,5.1,21.1
	c1.3,7,2.2,14.1,2.7,21.2C522.3,446.6,522.6,453.3,522.6,460.1z M460.4,286.8c0,41.2-33.4,74.5-74.6,74.5
	c-19.8,0-38.7-7.9-52.7-21.8c-29.1-29.1-29.1-76.3,0-105.4l0,0c29.1-29.1,76.3-29.1,105.4,0C452.6,248.1,460.4,267,460.4,286.8
	L460.4,286.8z"/>
</svg>
