<?xml version="1.0" encoding="utf-8"?>
<!-- Generator: Adobe Illustrator 24.0.3, SVG Export Plug-In . SVG Version: 6.00 Build 0)  -->
<svg version="1.1" id="Calque_1" xmlns="http://www.w3.org/2000/svg" xmlns:xlink="http://www.w3.org/1999/xlink" x="0px" y="0px"
	 viewBox="0 0 599 600" style="enable-background:new 0 0 599 600;" xml:space="preserve">
<style type="text/css">
	.st0{fill:#76bbff;}
	.st1{fill:#D9D9D9;}
	.st2{fill:#FFFFFF;}
	.st3{fill:#F2EDEE;}
	.st4{fill:#D8D8D8;}
	.st5{fill:url(#SVGID_1_);}
	.st6{fill:url(#SVGID_2_);}
	.st7{fill:url(#SVGID_3_);}
	.st8{fill:url(#SVGID_4_);}
</style>
<path class="st0" d="M70,0.4h459c38.6,0,69.9,31.3,69.9,69.9v459c0,38.6-31.3,69.9-69.9,69.9H70C31.4,599.3,0.1,568,0.1,529.4V70.3
	C0.1,31.7,31.4,0.4,70,0.4z"/>
<title>icon</title>
<path class="st1" d="M379.7,105.9H201V453h277.6V220.2"/>
<path class="st2" d="M218.2,435.5V123.1H371l90.2,102.3v209.9"/>
<path class="st3" d="M235.7,418.1V140.6h128.4l79.8,92v185.5"/>
<path class="st4" d="M353.7,235.8c0,0,90.2-22.6,124.9,5.2v-20.8L378,105.7h-27.7C388.4,157.9,353.7,235.8,353.7,235.8z"/>
<linearGradient id="SVGID_1_" gradientUnits="userSpaceOnUse" x1="-49.4778" y1="1586.26" x2="-30.3147" y2="1567.0969" gradientTransform="matrix(2.0747 0 0 2.0747 480.9378 -3080.6003)">
	<stop  offset="0" style="stop-color:#E5F3FB"/>
	<stop  offset="0.7" style="stop-color:#ECECEC"/>
	<stop  offset="0.86" style="stop-color:#D9D9D9"/>
	<stop  offset="1" style="stop-color:#C6C6C5"/>
</linearGradient>
<path class="st5" d="M378.9,211.5c5.2-20.8,8.7-50.3,1.8-76.4l69.4,76.4c-9.2-2.3-18.3-3.3-27.7-3.6
	C407.7,208.4,393.2,209.6,378.9,211.5z"/>
<linearGradient id="SVGID_2_" gradientUnits="userSpaceOnUse" x1="-87.1822" y1="1628.4703" x2="-87.1822" y2="1735.6154" gradientTransform="matrix(2.0747 0 0 2.0747 480.9378 -3080.6003)">
	<stop  offset="0" style="stop-color:#DCA877"/>
	<stop  offset="1" style="stop-color:#9E6B37"/>
</linearGradient>
<path class="st6" d="M262.9,426c-5.8-41.8,178.5,9.4,176.7-26.6c0-15.2-159.4-64.6-216.4-77.9c-17.2-3.8-123.5-22.8-123.5-22.8
	c-3.8,2-24.5,62.8-26.6,98.7c9.4,5.8,138.7,127.4,189.8,123.5c51.1-3.8,269.6-68.4,264-89.4C515.4,391.5,268.5,471.3,262.9,426z"/>
<linearGradient id="SVGID_3_" gradientUnits="userSpaceOnUse" x1="-91.787" y1="1638.6547" x2="-91.787" y2="1727.0192" gradientTransform="matrix(2.0747 0 0 2.0747 480.9378 -3080.6003)">
	<stop  offset="0" style="stop-color:#FDDCA9"/>
	<stop  offset="1" style="stop-color:#E1B07E"/>
</linearGradient>
<path class="st7" d="M105.3,397.3c-5.6-3.8-9.4-7.6-13.3-9.4c1.8-22.8,11.4-53.2,17-68.4c34.1,5.8,96.9,17,108.3,18.9
	c49.3,11.4,178.5,43.8,184.3,57c9.4,21-157.7-36-153.8,32.2c3.8,66.5,235.4-11.4,241.3,9.4c3.8,13.3-191.8,68.4-227.8,66.5
	C223,499.9,135.7,423.9,105.3,397.3z"/>
<linearGradient id="SVGID_4_" gradientUnits="userSpaceOnUse" x1="-126.281" y1="1649.0439" x2="-126.281" y2="1717.8685" gradientTransform="matrix(2.0747 0 0 2.0747 480.9378 -3080.6003)">
	<stop  offset="0" style="stop-color:#F0C490"/>
	<stop  offset="1" style="stop-color:#E0AE7C"/>
</linearGradient>
<path class="st8" d="M264.8,482.7c-15.2-2-53.2-18.9-144.3-98.7l-5.8-5.8c2.3-13.3,5.4-26.8,9.4-39.9c39.7,7.6,81.7,15.2,89.4,17
	c28.6,7.6,51.4,13.3,72.1,17c-18.9,2-34.1,7.6-43.8,18.9c-5.8,5.8-13.3,17-11.4,36c1.8,21,15.2,45.5,75.9,45.5h17
	C297.2,479.1,276.2,482.7,264.8,482.7z"/>
</svg>
