<?xml version="1.0" encoding="utf-8"?>
<!-- Generator: Adobe Illustrator 24.0.3, SVG Export Plug-In . SVG Version: 6.00 Build 0)  -->
<svg version="1.1" id="Calque_1" xmlns="http://www.w3.org/2000/svg" xmlns:xlink="http://www.w3.org/1999/xlink" x="0px" y="0px"
	 viewBox="0 0 991.7 569" style="enable-background:new 0 0 991.7 569;" xml:space="preserve">
<style type="text/css">
	.st0{clip-path:url(#SVGID_2_);}
	.st1{fill:url(#SVGID_3_);}
	.st2{clip-path:url(#SVGID_5_);}
	.st3{fill:#FFFFFF;}
	.st4{clip-path:url(#SVGID_7_);}
	.st5{fill:#C5CAE9;}
	.st6{clip-path:url(#SVGID_11_);}
	.st7{clip-path:url(#SVGID_13_);}
	.st8{fill:#1A237E;}
	.st9{fill:#FF7043;}
	.st10{clip-path:url(#SVGID_15_);}
	.st11{fill:#FFD740;}
	.st12{fill:none;}
</style>
<title>hero-accueil_2</title>
<g>
	<g id="Calque_2_1_">
		<g id="Calque_1-2">
			<g>
				<defs>
					<path id="SVGID_1_" d="M369.9,57c-20.4,0-37,16.6-37,37v406.5h365.2V238.9h-0.1V94c0-20.4,16.6-37,37-37l0,0L369.9,57z"/>
				</defs>
				<clipPath id="SVGID_2_">
					<use xlink:href="#SVGID_1_"  style="overflow:visible;"/>
				</clipPath>
				<g class="st0">
					
						<linearGradient id="SVGID_3_" gradientUnits="userSpaceOnUse" x1="-2487.6614" y1="-3921.0317" x2="-2486.6614" y2="-3921.0317" gradientTransform="matrix(5.1246 624.709 -624.709 5.1246 -2436224 1574114.75)">
						<stop  offset="0" style="stop-color:#FBE9E7"/>
						<stop  offset="0.1" style="stop-color:#FBE9E7"/>
						<stop  offset="0.31" style="stop-color:#FAE6E4"/>
						<stop  offset="0.47" style="stop-color:#F8DCDB"/>
						<stop  offset="0.61" style="stop-color:#F5CCCC"/>
						<stop  offset="0.63" style="stop-color:#F4C9C9"/>
						<stop  offset="1" style="stop-color:#76BBFF"/>
					</linearGradient>
					<polygon class="st1" points="329.2,57 734.9,53.7 738.6,500.5 332.9,503.8 					"/>
				</g>
			</g>
			<g>
				<defs>
					<rect id="SVGID_4_" x="-755.3" y="-453.4" width="1920" height="4558"/>
				</defs>
				<clipPath id="SVGID_5_">
					<use xlink:href="#SVGID_4_"  style="overflow:visible;"/>
				</clipPath>
				<g class="st2">
					<rect x="382.4" y="201.8" class="st3" width="252.6" height="163.3"/>
					<g>
						<g>
							<defs>
								<rect id="SVGID_6_" x="697.9" y="189.1" width="20.1" height="312.3"/>
							</defs>
							<clipPath id="SVGID_7_">
								<use xlink:href="#SVGID_6_"  style="overflow:visible;"/>
							</clipPath>
							<g class="st4">
								<rect x="697.9" y="189.1" class="st5" width="20.1" height="312.3"/>
							</g>
						</g>
					</g>
					<path class="st3" d="M546.8,84.5H476c-3.2,0-5.8-2.6-5.8-5.8c0-3.2,2.6-5.8,5.8-5.8h70.8c3.2,0,5.8,2.6,5.8,5.8
						C552.6,81.9,550,84.5,546.8,84.5"/>
					<path class="st3" d="M667.3,84H576c-3.2,0-5.8-2.6-5.8-5.8c0-3.2,2.6-5.8,5.8-5.8h91.3c3.2,0,5.8,2.6,5.8,5.8
						C673.1,81.4,670.5,84,667.3,84"/>
					<path class="st3" d="M606.9,116.8H476c-3.2,0-5.8-2.6-5.8-5.8c0-3.2,2.6-5.8,5.8-5.8h130.9c3.2,0,5.8,2.6,5.8,5.8
						C612.7,114.2,610.1,116.8,606.9,116.8"/>
					<path class="st3" d="M644.3,149.1H476c-3.2,0-5.8-2.6-5.8-5.8c0-3.2,2.6-5.8,5.8-5.8h168.3c3.2,0,5.8,2.6,5.8,5.8
						C650.1,146.5,647.5,149.1,644.3,149.1"/>
					<path class="st3" d="M606.9,181.4H476c-3.2,0.1-5.9-2.3-6-5.5c-0.1-3.2,2.3-5.9,5.5-6c0.2,0,0.3,0,0.5,0h130.9
						c3.2-0.1,5.9,2.3,6,5.5c0.1,3.2-2.3,5.9-5.5,6C607.2,181.4,607,181.4,606.9,181.4"/>
				</g>
			</g>
			<g>
				<defs>
					<rect id="SVGID_8_" x="-755.3" y="-453.4" width="1920" height="4558"/>
				</defs>
				<clipPath id="SVGID_9_">
					<use xlink:href="#SVGID_8_"  style="overflow:visible;"/>
				</clipPath>
			</g>
			<g>
				<defs>
					<rect id="SVGID_10_" x="-755.3" y="-453.4" width="1920" height="4558"/>
				</defs>
				<clipPath id="SVGID_11_">
					<use xlink:href="#SVGID_10_"  style="overflow:visible;"/>
				</clipPath>
				<g class="st6">
					<g>
						<g>
							<defs>
								<rect id="SVGID_12_" x="290.1" y="248.4" width="310.2" height="263.6"/>
							</defs>
							<clipPath id="SVGID_13_">
								<use xlink:href="#SVGID_12_"  style="overflow:visible;"/>
							</clipPath>
							<g class="st7">
								<polygon class="st5" points="547.2,486.7 341,486.7 341.5,273.8 547.8,273.8 								"/>
								<polygon class="st5" points="559,512 547.2,512 547.8,248.4 559.7,248.4 								"/>
								<polygon class="st5" points="599.5,512 587.7,512 588.4,248.4 600.2,248.4 								"/>
								<polygon class="st5" points="598.7,262.6 598.6,273.8 547.8,273.8 547.8,262.6 								"/>
								<polygon class="st5" points="598.6,299.9 598.5,311.1 547.7,311.1 547.7,299.9 								"/>
								<polygon class="st5" points="598.5,337.3 598.4,348.5 547.6,348.5 547.6,337.3 								"/>
								<polygon class="st5" points="598.4,374.6 598.4,385.8 547.5,385.8 547.5,374.6 								"/>
								<polygon class="st5" points="598.3,412 598.3,423.1 547.4,423.1 547.4,412 								"/>
								<polygon class="st5" points="598.2,449.3 598.2,460.5 547.3,460.5 547.3,449.3 								"/>
								<polygon class="st5" points="598.1,486.7 598.1,497.8 547.2,497.8 547.2,486.7 								"/>
								<polygon class="st5" points="301.9,512 290.1,512 290.7,248.4 302.5,248.4 								"/>
								<polygon class="st5" points="342.4,512 330.6,512 331.3,248.4 343.1,248.4 								"/>
								<polygon class="st5" points="341.6,262.6 341.5,273.8 290.7,273.8 290.7,262.6 								"/>
								<polygon class="st5" points="341.5,299.9 341.4,311.1 290.6,311.1 290.6,299.9 								"/>
								<polygon class="st5" points="341.4,337.3 341.3,348.5 290.5,348.5 290.5,337.3 								"/>
								<polygon class="st5" points="341.3,374.6 341.2,385.8 290.4,385.8 290.4,374.6 								"/>
								<polygon class="st5" points="341.2,412 341.1,423.1 290.3,423.1 290.3,412 								"/>
								<polygon class="st5" points="341.1,449.3 341,460.5 290.2,460.5 290.2,449.3 								"/>
								<polygon class="st5" points="341,486.7 341,497.8 290.1,497.8 290.1,486.7 								"/>
							</g>
						</g>
					</g>
					<polygon class="st8" points="525,523.2 513.2,523.2 548.1,244.6 559.9,244.6 					"/>
					<polygon class="st8" points="565.5,523.2 553.7,523.2 588.6,244.6 600.4,244.6 					"/>
					<polygon class="st8" points="597,259.6 595.6,271.4 544.7,271.4 546.2,259.6 					"/>
					<polygon class="st8" points="592.1,299.1 590.6,310.9 539.8,310.9 541.2,299.1 					"/>
					<polygon class="st8" points="587.2,338.5 585.7,350.4 534.8,350.4 536.3,338.5 					"/>
					<polygon class="st8" points="582.2,378 580.7,389.8 529.9,389.8 531.4,378 					"/>
					<polygon class="st8" points="577.3,417.5 575.8,429.3 524.9,429.3 526.4,417.5 					"/>
					<polygon class="st8" points="572.3,457 570.8,468.8 520,468.8 521.5,457 					"/>
					<polygon class="st8" points="567.4,496.4 565.9,508.2 515,508.2 516.5,496.4 					"/>
					<polygon class="st9" points="516.5,496.4 310.3,496.4 338.5,271.4 544.7,271.4 					"/>
					<path class="st3" d="M491.9,387.4l-125,67.3c-4.3,2.3-9.7,0.7-12-3.7c-0.9-1.6-1.2-3.4-1-5.2l16.9-134.6
						c0.6-4.9,5.1-8.3,9.9-7.7c1.3,0.2,2.5,0.6,3.6,1.3L492.4,372c4.2,2.6,5.4,8.1,2.8,12.2C494.4,385.6,493.3,386.7,491.9,387.4"/>
					<polygon class="st8" points="267.9,523.2 256.1,523.2 290.9,244.6 302.8,244.6 					"/>
					<polygon class="st8" points="308.4,523.2 296.6,523.2 331.5,244.6 343.3,244.6 					"/>
					<polygon class="st8" points="339.9,259.6 338.5,271.4 287.6,271.4 289.1,259.6 					"/>
					<polygon class="st8" points="335,299.1 333.5,310.9 282.6,310.9 284.1,299.1 					"/>
					<polygon class="st8" points="330,338.5 328.6,350.4 277.7,350.4 279.2,338.5 					"/>
					<polygon class="st8" points="325.1,378 323.6,389.8 272.8,389.8 274.2,378 					"/>
					<polygon class="st8" points="320.2,417.5 318.7,429.3 267.8,429.3 269.3,417.5 					"/>
					<polygon class="st8" points="315.2,457 313.7,468.8 262.9,468.8 264.4,457 					"/>
					<polygon class="st8" points="310.3,496.4 308.8,508.2 257.9,508.2 259.4,496.4 					"/>
					<g>
						<g>
							<defs>
								<rect id="SVGID_14_" x="411.4" y="336.4" width="52.8" height="197"/>
							</defs>
							<clipPath id="SVGID_15_">
								<use xlink:href="#SVGID_14_"  style="overflow:visible;"/>
							</clipPath>
							<g class="st10">
								<polygon class="st5" points="464.1,336.4 443.4,511.7 411.4,533.4 437.8,336.4 								"/>
							</g>
						</g>
					</g>
					<polygon class="st3" points="411.4,533.4 152.8,533.4 205.6,336.4 464.1,336.4 					"/>
					<polygon class="st11" points="387.2,504.4 192.5,504.4 229.7,365.4 424.5,365.4 					"/>
					<path class="st3" d="M336.5,397.7c-1.9,7.2-9.3,13-16.4,13s-11.4-5.8-9.5-13s9.3-13,16.4-13S338.4,390.5,336.5,397.7"/>
					<polygon class="st8" points="209,442.7 264.8,398.8 313.4,465.2 360.7,427.9 395.1,474.9 387.2,504.4 192.5,504.4 					"/>
				</g>
			</g>
			<rect x="-755.3" y="-267.1" class="st12" width="1920" height="973.8"/>
		</g>
	</g>
</g>
</svg>
