<?xml version="1.0" encoding="UTF-8"?>
<svg xmlns="http://www.w3.org/2000/svg" viewBox="0 0 273.63 88.53"><defs><style>.cls-1{fill:#fff;}</style></defs><title>logo-un-blanc</title><g id="Calque_2" data-name="Calque 2"><g id="Calque_1-2" data-name="Calque 1"><path class="cls-1" d="M45.55,44.45c3.08-1.49,5.89-2.91,8.76-4.22a2.15,2.15,0,0,0,1.44-2.32c0-11.43,0-22.87,0-34.3,0-1,0-2,0-3.25-3,0-5.69,0-8.42,0-1.45,0-1.87.5-1.86,2q.09,17,0,34a2.85,2.85,0,0,1-.83,2,21.69,21.69,0,0,1-10.54,4.48,40,40,0,0,1-5,0V6.18a42.76,42.76,0,0,0-10.29,8.29,1.82,1.82,0,0,0-.3,1.17c0,5.75,0,11.49,0,17.24,0,6,5,11.51,10.62,11.76a24.37,24.37,0,0,0,14.65-3.93l1.83-1.18Z"/><path class="cls-1" d="M82.8,55.75c-.17-5.33-5.2-10.44-10.25-10.7A24.28,24.28,0,0,0,57.6,49l-1.87,1.21v-5.3c-3,1.47-5.73,2.87-8.51,4.1a2.45,2.45,0,0,0-1.7,2.64c0,10.09,0,20.18,0,30.27,0,2.08,0,4.15,0,6.47H55.74V57.21c0-6.08,0-6.08,5.64-8.65l.29-.13a20.77,20.77,0,0,1,10.62-1.66V83.3a43.52,43.52,0,0,0,10.42-7.85,1.08,1.08,0,0,0,.23-.71c0-6.33.07-12.67-.14-19"/><polygon class="cls-1" points="0 0 0 88.53 8.75 88.53 8.75 0 1.73 0 0 0"/><path class="cls-1" d="M142.61,55.05a9.67,9.67,0,0,0-10.71,2.8,1.71,1.71,0,0,0-.31.69c-.48-.17-.54-.17-.57-.21-.27-.26-.52-.54-.78-.8a9.79,9.79,0,0,0-10.08-2.62c-3.74,1-6.6,3.53-7.09,7.35-.54,4.19-.13,8.5-.13,12.83h3.8V73.16c0-2.79-.07-5.58,0-8.37a6.18,6.18,0,0,1,12.36,0c.06,1.45,0,2.9,0,4.35V75h4.15c0-.69,0-1.27,0-1.85,0-3-.07-5.9.06-8.85a6,6,0,0,1,5.92-5.65,6.09,6.09,0,0,1,6.34,6.09c.07,3.42,0,6.83,0,10.28h4c0-3.94.25-7.81-.07-11.62-.37-4.24-3-7.1-7-8.39"/><path class="cls-1" d="M213.33,54.82c-5.45.64-8.94,5.69-8.4,11.31a10.06,10.06,0,0,0,10.38,9,34.4,34.4,0,0,0,6-1.35V85.43h4.07V54.72c-4.09,0-8.14-.37-12.09.1m8,10.69a6.15,6.15,0,1,1-6.75-6.74c2.18-.16,4.38,0,6.77,0,0,2.39.12,4.59,0,6.77"/><path class="cls-1" d="M163.41,54.54a10.3,10.3,0,0,0-9.53,10.61,10.14,10.14,0,0,0,10.29,10c3,0,5.9,0,8.85,0,.46,0,.92-.07,1.36-.11V71H172.5c-2.85,0-5.69,0-8.53,0s-5-1.82-5.27-4.09h15.74c0-1.22.08-2.18,0-3.13a10.25,10.25,0,0,0-11-9.25m-4.69,8.17c.18-2,2.43-3.83,5-4a5.66,5.66,0,0,1,6,4Z"/><path class="cls-1" d="M273.61,64.48a10.32,10.32,0,0,0-20.54-1c-.76,5.14,2.61,10.53,7.81,11.27,4.13.59,8.41.12,12.62.12V71h-1.87c-2.85,0-5.69,0-8.54,0a5.41,5.41,0,0,1-5.32-4h15.85c0-1,0-1.76,0-2.5m-15.93-1.79a5.84,5.84,0,0,1,5.78-4,5.77,5.77,0,0,1,5.49,4Z"/><path class="cls-1" d="M245.53,71c-2.52,0-4.83.13-7.12,0a5.38,5.38,0,0,1-4.57-3.37,9.19,9.19,0,0,1-.64-3.42c-.08-3.15,0-6.31,0-9.53h-4.12c0,3.57,0,7,0,10.52.05,4.79,3.42,9.19,8.17,9.75,4.05.48,8.2.1,12.32.1V54.63h-4Z"/><path class="cls-1" d="M105.05,71c-1.91,0-3.62,0-5.33,0-4.53,0-6.91-2.43-6.92-7,0-3.09,0-6.19,0-9.38H88.72c0,3.39,0,6.6,0,9.81a13,13,0,0,0,.09,1.77c.54,4.27,3.42,8,7.58,8.52s8.51.11,12.75.11V54.65h-4.1Z"/><path class="cls-1" d="M195.15,34.29c-5.21,3.59-9.3,3.81-13.14.51l14.53-14.5a11.21,11.21,0,0,0-12.64-3A11.38,11.38,0,0,0,185,38.72c4.22,1.18,9.12-.25,11.19-3.29l-1.08-1.14m-14-12.72a9.16,9.16,0,0,1,12.44-1.29c-4.35,4.35-8.63,8.62-12.9,12.9-2.74-2.72-2.56-8.25.46-11.61"/><path class="cls-1" d="M128.07,35.57c-.19-.23-.36-.5-.58-.72s-.46-.39-.68-.57c-4.31,3.62-10,3.84-12.77.51l14.4-14.35a11.29,11.29,0,1,0-16.51,15.37,11.13,11.13,0,0,0,16.14-.24M112.48,22.12a9.23,9.23,0,0,1,12.88-1.89L112.44,33.11c-2.51-2.11-2.58-7.62,0-11"/><path class="cls-1" d="M187.82,54.52a10.07,10.07,0,0,0-10,8.87c-.32,2.8-.14,5.67-.18,8.51,0,1,0,2.1,0,3.15h4.15c0-3.47,0-6.84,0-10.21a6.1,6.1,0,0,1,6.14-6.14c1.33,0,2.66,0,4.07,0V54.52c-1.49,0-2.82,0-4.16,0"/><path class="cls-1" d="M63.43,36.62c0-3.81,0-7.62,0-11.42a5,5,0,0,1,.4-2,8.61,8.61,0,0,1,16.36,3.39c.06,3.32,0,6.65,0,10v1.84l1.86-.14c0-3.89.06-7.63,0-11.38a10.5,10.5,0,0,0-17.53-7.64c-.3.26-.61.5-1,.84,0-1-.1-1.88-.14-2.78H61.65v21h1.78Z"/><path class="cls-1" d="M24,.24H12.57V11.57C18.51,12.18,24.77,6,24,.24"/><path class="cls-1" d="M159.18,33.26c.13-3.19-1.77-5.32-5.53-6.21-1.62-.39-3.26-.71-4.83-1.22A3.74,3.74,0,0,1,146,22.67,3.63,3.63,0,0,1,147.76,19c2.08-1.35,7.21-1,9.08.56a4.25,4.25,0,0,1,.66,1.1l1.85-1.76c-3.61-2.58-7.38-3.48-11.5-2.1a5.59,5.59,0,0,0-3.75,6.51c.59,2.83,2.67,4.14,5.28,4.78,1.61.4,3.26.66,4.84,1.15,3,.93,4.12,4.33,1.93,6.48a7.37,7.37,0,0,1-3.86,1.65,10.65,10.65,0,0,1-7.53-1.85l-1.1,1.62a13.33,13.33,0,0,0,9.47,2.17c3.64-.51,5.91-2.83,6.05-6"/><rect class="cls-1" x="196.39" y="54.59" width="3.93" height="20.48"/><path class="cls-1" d="M98,37.11c.19.51.86,1.18,1.29,1.16s1.09-.69,1.28-1.21c2.3-6.17,4.53-12.37,6.77-18.56.14-.37.2-.76.3-1.13-1.4-.43-2.07,0-2.52,1.27-1.65,4.81-3.43,9.58-5.16,14.36-.17.48-.38.94-.69,1.69-.28-.72-.46-1.14-.62-1.57-1.74-4.78-3.51-9.55-5.19-14.35-.45-1.29-1-1.91-2.61-1.36.13.39.22.69.32,1C93.4,24.63,95.64,30.88,98,37.11"/><path class="cls-1" d="M134.3,29.21c-.43-6,3.64-10,8.82-10.1.08,0,.17-.1.36-.23,0-.49-.06-1-.11-2a29.43,29.43,0,0,0-5,1.38,28.76,28.76,0,0,0-4.11,2.85V17.33h-1.77V38.38l1.82-.1c0-3.09.17-6.09,0-9.07"/><path class="cls-1" d="M172.7,19.17h4.52c0-.76-.07-1.31-.1-2h-4.48V12h-1.81v26.3h1.87Z"/><rect class="cls-1" x="163.86" y="17.31" width="1.75" height="20.95"/><path class="cls-1" d="M86.52,38.22h1.7v-21l-1.7.26Z"/><path class="cls-1" d="M166.52,50.41c1.46-1.8,2.79-3.7,4.22-5.67a22.66,22.66,0,0,0-2.47-.84,1.51,1.51,0,0,0-1.26.21c-1.41,1.77-2.74,3.62-4.2,5.58a15.29,15.29,0,0,0,2.12.77c.52.11,1.37.23,1.59-.05"/><path class="cls-1" d="M198.25,45.48a2.8,2.8,0,0,0-2.74,2.94,2.87,2.87,0,0,0,2.88,2.82,2.94,2.94,0,0,0,2.85-2.88,2.87,2.87,0,0,0-3-2.88"/><path class="cls-1" d="M188,13.29c.68-1.9,1.11-3.88,1.63-5.83-.13-.14-.25-.29-.38-.44-.59.32-1.55.5-1.72,1-.66,1.84-1.08,3.77-1.73,6.17,1-.38,2.06-.47,2.2-.87"/><path class="cls-1" d="M86.51,13.85l1.75-.08V10.33l-1.75.09Z"/><path class="cls-1" d="M165.61,10.35l-1.73.08v3.34h1.73Z"/></g></g></svg>