<?xml version="1.0" encoding="utf-8"?>
<!-- Generator: Adobe Illustrator 25.1.0, SVG Export Plug-In . SVG Version: 6.00 Build 0)  -->
<svg version="1.1" id="b422ff3f-53cc-4ffe-bf25-56f303d2d1de"
	 xmlns="http://www.w3.org/2000/svg" xmlns:xlink="http://www.w3.org/1999/xlink" x="0px" y="0px" viewBox="0 0 426.6 346.8"
	 style="enable-background:new 0 0 426.6 346.8;" xml:space="preserve">
<style type="text/css">
	.st0{fill:#1A237E;}
	.st1{fill:#FF7043;}
	.st2{fill:#E6E6E6;}
	.st3{fill:#F0F1FC;}
	.st4{fill:#FFD740;}
	.st5{fill:#FFFFFF;}
	.st6{fill:#C5CAE9;}
	.st7{fill:url(#SVGID_1_);}
</style>
<path class="st0" d="M24.6,41.3c-1.6,0-2.9,1.3-2.9,2.9v299c0,1.6,1.3,2.9,2.9,2.9h374.9c1.6,0,2.9-1.3,2.9-2.9v-251
	c0-1.6-1.3-2.9-2.9-2.9H184.3c-2.2,0-4.3-0.8-5.9-2.3L130,43c-1.2-1.1-2.9-1.8-4.6-1.8H24.6V41.3z"/>
<path class="st1" d="M197.7,0.3c-1-0.6-2.2-0.2-2.8,0.7l-111,188.9c-0.6,1-0.2,2.2,0.7,2.8l152.2,89.5c1,0.6,2.2,0.2,2.8-0.7
	l111-188.9c0.6-1,0.2-2.2-0.7-2.8L197.7,0.3z"/>
<path class="st1" d="M200.1,9.2c-1-0.6-2.2-0.2-2.8,0.7L92.9,187.6c-0.6,1-0.2,2.2,0.7,2.8l140.9,82.8c1,0.6,2.2,0.2,2.8-0.7
	L341.7,94.9c0.6-1,0.2-2.2-0.7-2.8L200.1,9.2z"/>
<path class="st2" d="M173.4,97l103.8,61c1.5,0.9,3.3,0.4,4.2-1.1c0.9-1.5,0.4-3.3-1.1-4.2l0,0l-103.8-61c-1.5-0.9-3.3-0.4-4.2,1.1
	C171.5,94.3,172,96.1,173.4,97L173.4,97L173.4,97z"/>
<path class="st3" d="M201.6,47.1l68.9,40.5c1,0.6,2.5-0.2,3.3-1.6s0.8-3.1-0.2-3.7l-68.9-40.5c-1-0.6-2.5,0.2-3.3,1.6
	S200.6,46.6,201.6,47.1z"/>
<path class="st3" d="M192.6,62.3l68.9,40.5c1,0.6,2.5-0.2,3.3-1.6s0.8-3.1-0.2-3.7L195.7,57c-1-0.6-2.5,0.2-3.3,1.6
	S191.7,61.7,192.6,62.3z"/>
<path class="st2" d="M163.4,114.1l103.8,61c1.5,0.9,3.3,0.4,4.2-1.1c0.9-1.5,0.4-3.3-1.1-4.2l0,0l-103.8-61
	c-1.5-0.9-3.3-0.4-4.2,1.1C161.4,111.4,161.9,113.3,163.4,114.1L163.4,114.1z"/>
<path class="st2" d="M153.3,131.3l103.8,61c1.5,0.9,3.3,0.4,4.2-1.1c0.9-1.5,0.4-3.3-1.1-4.2l-103.8-61c-1.5-0.9-3.3-0.4-4.2,1.1
	C151.4,128.5,151.8,130.4,153.3,131.3L153.3,131.3z"/>
<path class="st2" d="M143.2,148.4l103.8,61c1.5,0.9,3.3,0.4,4.2-1.1s0.4-3.3-1.1-4.2l-103.8-61c-1.5-0.9-3.3-0.4-4.2,1.1
	C141.3,145.6,141.8,147.5,143.2,148.4L143.2,148.4z"/>
<path class="st2" d="M133.2,165.5l103.8,61c1.5,0.9,3.3,0.4,4.2-1.1s0.4-3.3-1.1-4.2l0,0l-103.8-61c-1.5-0.9-3.3-0.4-4.2,1.1
	S131.7,164.7,133.2,165.5L133.2,165.5z"/>
<path class="st2" d="M123.1,182.6l103.8,61c1.5,0.9,3.3,0.4,4.2-1.1s0.4-3.3-1.1-4.2l-103.8-61c-1.5-0.9-3.3-0.4-4.2,1.1
	C121.2,179.9,121.6,181.8,123.1,182.6L123.1,182.6z"/>
<circle class="st2" cx="292" cy="107.1" r="16.2"/>
<path class="st2" d="M244.5,138.7"/>
<path class="st4" d="M68.6,54.7c-1.1-0.2-2.2,0.5-2.4,1.6L20.5,270.6c-0.2,1.1,0.5,2.2,1.6,2.4l172.7,36.8c1.1,0.2,2.2-0.5,2.4-1.6
	l45.6-214.4c0.2-1.1-0.5-2.2-1.6-2.4L68.6,54.7z"/>
<path class="st4" d="M73.6,62.5c-1.1-0.2-2.2,0.5-2.4,1.6L28.3,265.6c-0.2,1.1,0.5,2.2,1.6,2.4l159.9,34c1.1,0.2,2.2-0.5,2.4-1.6
	l42.9-201.5c0.2-1.1-0.5-2.2-1.6-2.4L73.6,62.5z"/>
<path class="st2" d="M193.9,179.2L76.1,154.1c-1.7-0.3-2.7-2-2.4-3.6s2-2.7,3.6-2.4l0,0l117.9,25.1c1.7,0.3,2.7,2,2.4,3.6
	S195.6,179.5,193.9,179.2L193.9,179.2z"/>
<path class="st5" d="M206.8,123.4l-78.1-16.6c-1.1-0.2-1.7-1.8-1.4-3.4s1.5-2.8,2.6-2.6l78.2,16.6c1.1,0.2,1.7,1.8,1.4,3.4
	S207.9,123.6,206.8,123.4z"/>
<path class="st2" d="M203.1,140.6L124.9,124c-1.1-0.2-1.7-1.8-1.4-3.4s1.5-2.8,2.6-2.6l78.2,16.6c1.1,0.2,1.7,1.8,1.4,3.4
	S204.2,140.9,203.1,140.6z"/>
<path class="st2" d="M189.8,198.6L72,173.6c-1.7-0.4-2.7-2-2.4-3.7c0.4-1.7,2-2.7,3.6-2.4L191,192.6c1.7,0.3,2.7,2,2.4,3.6
	S191.4,199,189.8,198.6L189.8,198.6z"/>
<path class="st2" d="M185.6,218.1L67.8,193c-1.7-0.4-2.7-2-2.4-3.7c0.4-1.7,2-2.7,3.6-2.4L186.8,212c1.7,0.4,2.7,2,2.4,3.6
	C188.9,217.3,187.3,218.4,185.6,218.1L185.6,218.1L185.6,218.1z"/>
<path class="st2" d="M181.5,237.5L63.7,212.4c-1.7-0.3-2.7-2-2.4-3.6s2-2.7,3.6-2.4l0,0l117.8,25.1c1.7,0.4,2.7,2,2.4,3.7
	C184.8,236.8,183.1,237.8,181.5,237.5z"/>
<path class="st2" d="M177.4,256.9l-117.8-25c-1.7-0.3-2.7-2-2.4-3.6s2-2.7,3.6-2.4l0,0L178.6,251c1.7,0.3,2.7,2,2.4,3.6
	C180.7,256.2,179,257.3,177.4,256.9L177.4,256.9z"/>
<path class="st2" d="M173.2,276.4L55.4,251.3c-1.7-0.4-2.7-2-2.4-3.7c0.4-1.7,2-2.7,3.6-2.4l117.8,25.1c1.7,0.3,2.7,2,2.4,3.6
	S174.9,276.7,173.2,276.4L173.2,276.4z"/>
<g id="fichier-bleu">
	<path class="st6" d="M267.1,1.1c-1-0.6-2.2-0.3-2.8,0.6L146.9,186.8c-0.6,1-0.3,2.2,0.6,2.8l149.1,94.5c1,0.6,2.2,0.3,2.8-0.6
		l117.5-185c0.6-1,0.3-2.2-0.6-2.8L267.1,1.1z"/>
	<path class="st6" d="M269.2,10.2c-1-0.6-2.2-0.3-2.8,0.6L156,184.8c-0.6,1-0.3,2.2,0.6,2.8l138,87.5c1,0.6,2.2,0.3,2.8-0.6
		l110.3-174c0.6-1,0.3-2.2-0.6-2.8L269.2,10.2z"/>
	<path class="st5" d="M341.3,161.5L239.6,97c-1.4-0.9-1.9-2.8-0.9-4.2c0.9-1.4,2.8-1.9,4.2-0.9l0,0l101.7,64.5
		c1.4,0.9,1.9,2.8,1,4.2C344.6,161.9,342.7,162.4,341.3,161.5L341.3,161.5z"/>
	<path class="st5" d="M372.8,113.7l-67.5-42.8c-1-0.6-1-2.3-0.1-3.7s2.4-2.1,3.4-1.5l67.5,42.8c1,0.6,1,2.3,0.1,3.7
		S373.8,114.3,372.8,113.7z"/>
	<path class="st5" d="M363.4,128.5l-67.5-42.7c-1-0.6-1-2.3-0.1-3.7s2.4-2.1,3.4-1.5l67.5,42.8c1,0.6,1,2.3,0.1,3.7
		S364.3,129.1,363.4,128.5z"/>
	<path class="st5" d="M330.7,178.2L229,113.7c-1.4-0.9-1.9-2.8-0.9-4.2c0.9-1.4,2.8-1.9,4.2-0.9L334,173.1c1.4,0.9,1.9,2.8,0.9,4.2
		C334,178.7,332.1,179.1,330.7,178.2L330.7,178.2z"/>
	<path class="st6" d="M320,195l-101.7-64.5c-1.4-0.9-1.9-2.8-0.9-4.2c0.9-1.4,2.8-1.9,4.2-0.9l101.7,64.4c1.4,0.9,1.9,2.8,1,4.2
		C323.4,195.5,321.5,195.9,320,195L320,195L320,195z"/>
	<path class="st6" d="M309.4,211.8l-101.7-64.5c-1.4-0.9-1.9-2.8-1-4.2s2.8-1.9,4.2-1l0,0l101.7,64.5c1.4,0.9,1.8,2.8,0.9,4.2
		C312.7,212.3,310.8,212.7,309.4,211.8z"/>
	<path class="st6" d="M298.7,228.6L197,164.1c-1.4-0.9-1.9-2.8-0.9-4.2c0.9-1.4,2.8-1.9,4.2-0.9L302,223.5c1.4,0.9,1.8,2.8,0.9,4.2
		C302.1,229.1,300.2,229.5,298.7,228.6z"/>
	<path class="st6" d="M288.1,245.4l-101.7-64.5c-1.4-0.9-1.9-2.8-1-4.2s2.8-1.9,4.2-1l0,0l101.7,64.5c1.4,0.9,1.9,2.8,1,4.2
		C291.4,245.8,289.5,246.3,288.1,245.4L288.1,245.4z"/>
	<circle class="st5" cx="278.1" cy="60.7" r="16.2"/>
</g>
<circle class="st5" cx="99.6" cy="106.7" r="16.2"/>
<path class="st2" d="M113.3,162.1"/>
<path class="st2" d="M310.5,69.9"/>
<linearGradient id="SVGID_1_" gradientUnits="userSpaceOnUse" x1="97.8869" y1="230.3824" x2="425.2054" y2="230.3824" gradientTransform="matrix(6.123234e-17 1 -1 6.123234e-17 443.6723 19.4984)">
	<stop  offset="0" style="stop-color:#FBE9E7"/>
	<stop  offset="0.1" style="stop-color:#FBE9E7"/>
	<stop  offset="0.31" style="stop-color:#FAE6E4"/>
	<stop  offset="0.47" style="stop-color:#F8DCDB"/>
	<stop  offset="0.61" style="stop-color:#F5CCCC"/>
	<stop  offset="0.63" style="stop-color:#F4C9C9"/>
	<stop  offset="1" style="stop-color:#76BBFF"/>
</linearGradient>
<path class="st7" d="M5.9,117.5c-1.6,0-2.8,1.9-2.8,4.2c0,0.1,0,0.3,0,0.4L27.5,441c0.2,2.1,1.4,3.7,2.8,3.7h365.9
	c1.5,0,2.6-1.6,2.8-3.7l24.4-318.9c0.1-1.1-0.2-2.3-0.7-3.3c-0.5-0.9-1.3-1.4-2.1-1.4H5.9V117.5z"/>
<path class="st5" d="M33.3,154.8l120.4-0.7c1.7,0,3.1-1.4,3-3.1c0-1.7-1.4-3-3.1-3l-120.4,0.7c-1.7,0-3.1,1.4-3.1,3.1
	S31.6,154.8,33.3,154.8L33.3,154.8z"/>
<path class="st5" d="M33.3,173.8l71.4-0.7c1.7,0,3.1-1.4,3-3.1c0-1.7-1.4-3-3.1-3l-71.4,0.7c-1.7,0-3.1,1.4-3.1,3.1
	S31.6,173.8,33.3,173.8L33.3,173.8z"/>
</svg>
