<?xml version="1.0" encoding="utf-8"?>
<!-- Generator: Adobe Illustrator 24.0.3, SVG Export Plug-In . SVG Version: 6.00 Build 0)  -->
<svg version="1.1" id="a4b4d3ba-298a-4a01-b7c2-bf784b737cdf"
	 xmlns="http://www.w3.org/2000/svg" xmlns:xlink="http://www.w3.org/1999/xlink" x="0px" y="0px" viewBox="0 0 759.5 640.5"
	 style="enable-background:new 0 0 759.5 640.5;" xml:space="preserve">
<style type="text/css">
	.st0{fill:#E6E6E6;}
	.st1{fill:#FFFFFF;}
	.st2{fill:#1A237E;}
	.st3{fill:#FF7043;}
	.st4{fill:#A0616A;}
	.st5{fill:#223056;}
	.st6{fill:#7986CB;}
	.st7{fill:#2F2E41;}
	.st8{opacity:0.1;enable-background:new    ;}
	.st9{fill:#FBBEBE;}
	.st10{fill:#FFD740;}
	.st11{fill:#C5CAE9;}
	.st12{fill:none;stroke:#7986CB;stroke-width:10;stroke-miterlimit:10;}
	.st13{fill:none;stroke:#FFFFFF;stroke-width:9;stroke-miterlimit:10;}
</style>
<rect x="11.6" y="0.4" class="st0" width="699.3" height="447.9"/>
<rect x="31.6" y="56.6" class="st1" width="659.3" height="365.2"/>
<rect x="11.3" y="0" class="st2" width="699.3" height="29.7"/>
<circle class="st1" cx="33.4" cy="15.2" r="5.5"/>
<circle class="st1" cx="54.3" cy="15.2" r="5.5"/>
<circle class="st1" cx="75.2" cy="15.2" r="5.5"/>
<g id="play">
	<g>
		<path class="st3" d="M344.3,328.6c0,5.5-4.5,10-10,10H88.4c-5.5,0-10-4.5-10-10V106.8c0-5.5,4.5-10,10-10h245.9
			c5.5,0,10,4.5,10,10V328.6z"/>
	</g>
	<path class="st1" d="M284.9,231.5l-104.4,71.8c-2.9,2-6.3,3-9.7,3c-2.7,0-5.4-0.6-7.9-2c-5.6-3-9.1-8.8-9.1-15.1V145.7
		c0-6.3,3.5-12.1,9.1-15.1c5.6-2.9,12.4-2.5,17.6,1.1l104.4,71.8c4.6,3.2,7.4,8.4,7.4,14.1C292.3,223.1,289.6,228.3,284.9,231.5z"/>
</g>
<polygon class="st4" points="747.9,576.8 753.1,597.4 730.5,603.5 728.4,582 "/>
<polygon class="st4" points="665.7,602.5 665.7,622 643.1,626.2 639,615.9 647.2,598.4 "/>
<path class="st5" d="M710.9,389.8l-3.1,27.8l2.1,53.4c0,0,0,5.1,3.1,7.2c1.7,1.1,38,102.8,38,102.8s-8.2,10.3-23.6,7.2l-3.1-10.3
	c0,0-4.1-13.4-6.2-16.4s-32.9-65.8-32.9-65.8l-14.4-25.7l-4.1,34.9c0,0,8.2,44.2,6.2,64.8s-6.2,42.1-6.2,42.1l-24.7-4.1
	c-0.1-3.3-1.2-6.5-3.1-9.3c-3.1-4.1-2.1-18.5-2.1-18.5v-3.1l-6.2-79.1l-11.3-103.8L710.9,389.8z"/>
<circle class="st4" cx="641" cy="174.9" r="27.8"/>
<polygon class="st4" points="665.2,175.4 676.5,203.2 649.8,222.7 633.3,193.9 "/>
<path class="st6" d="M666.7,196.5l10.3-5.1l6.2,14.4c0,0,40.1,12.3,37,68.9s-10.3,78.1-10.3,78.1s17.5,37,7.2,41.1
	s-97.6,19.5-99.7,5.1s7.2-98.7,7.2-98.7s-3.1-60.6,22.6-73l-5.1-11.3L666.7,196.5z"/>
<path class="st4" d="M610.2,395.9c0,0-23.6,24.7-10.3,30.8s21.6-27.8,21.6-27.8L610.2,395.9z"/>
<path class="st7" d="M658.5,616.9l11.3-4.1c0,0,12.3,27.8,2.1,27.8h-26.7c0,0-15.4-5.1-23.6-5.1s-23.6-15.4-12.3-22.6
	s25.7-5.1,25.7-5.1l4.1-9.3l5.1,14.4C644.1,612.8,650.3,623.1,658.5,616.9z"/>
<path class="st7" d="M741.8,594.3c0,0,6.4-4.1,9.9-2.5s5.5,18,5.5,18s10.3,12.3-12.3,14.4s-27.8-2.1-29.8-8.2s2.1-12.3,2.1-12.3
	l6.2-2.1c0,0,7.2-5.1,5.1-7.2s0-6.2,0-6.2S735.6,602.5,741.8,594.3z"/>
<path class="st2" d="M650.5,174.5c-0.1-0.9-0.3-1.8-0.6-2.6c-1.5-3.1-7.3-2.2-8.3-5.5c-0.2-0.6-0.2-1.4-0.4-2
	c-0.5-1.7-2.5-2.5-4.2-2.4c-1.7,0.2-3.4,0.7-5,1.3c-4.1,1.2-8.4,0.7-12.6,0.3c-1.9-0.1-3.7-0.5-5.4-1.4c-1.6-1-2.7-3-2.2-4.7
	c0.6-1.7,2.4-2.6,3.3-4.2c1.3-2.5-0.3-5.8,0.8-8.4c1.7-4.2,8.3-3.4,11.6-6.5c0.8-0.8,1.4-1.7,2.2-2.5c2.3-2.3,5.9-2.8,9.2-2.5
	s6.5,1.3,9.8,1.2c3.1-0.1,6.4-1,9.3,0.2c1.7,0.9,3.2,2.1,4.3,3.6l7.4,8.1c1,1,1.8,2.1,2.3,3.4c0.4,1.5,0,3.2,0.2,4.8
	c0.4,3.6,3.8,6.4,4.3,10c0.1,1.1,0,2.3-0.2,3.4l-1,7.6c-0.1,0.7-0.2,1.5-0.6,2.1c-0.3,0.5-0.8,0.9-1.1,1.4c-1,1.4-0.9,3.2-1.3,4.8
	c-0.5,1.6-2.2,3.2-3.7,2.4c-1-0.5-1.6-4.7-2.8-5.8c-1.6-1.5-2.5-1.3-4.5-1.3C657.2,179.3,651.8,179.7,650.5,174.5z"/>
<path class="st6" d="M655.4,234.5c0,0,30.8,12.3,21.6,40.1s-33.9,113.1-33.9,113.1l-14.4,7.2l-4.1,11.3l-19.5-7.2l3.1-15.4l7.2-15.4
	L633.8,253C633.8,253,633.8,233.5,655.4,234.5z"/>
<polygon class="st8" points="678.6,280.3 646.7,389.2 633.3,402.6 641,388.7 "/>
<path class="st9" d="M51.2,297.9l6,42.7L82.6,386c7.3,6.7,0.7,22.7,0.7,22.7l-6.7-4.7l-1.3-8c0,0-29.4-33.4-36.7-41.4
	s-10-52.1-10-52.1L51.2,297.9z"/>
<path class="st9" d="M29.1,587.6c0,0,1.3,15.4,0.7,19.4s-20.7-0.7-20.7-0.7c3.3-6.7,5.3-26.7,5.3-26.7L29.1,587.6z"/>
<path class="st9" d="M128.6,591.6c0,0,2,21.4,1.3,25.4s-20.7-0.7-20.7-0.7c3.3-6.7,5.3-26.7,5.3-26.7L128.6,591.6z"/>
<circle class="st9" cx="87.6" cy="224.9" r="24.3"/>
<path class="st9" d="M91.8,247.8c-4,5.3-2,14.7-2,14.7s-40.7,47.4-48.1,47.4s-6-33.4-6-33.4s10.7-12.7,16.7-15.4
	s16.7-31.4,16.7-31.4S95.8,242.5,91.8,247.8z"/>
<path class="st5" d="M119.2,338.6l26.1,43.9c4.8,7.8-4.1,47.6-4.1,47.6l-4,84.8l-6.7,85.4v9.3l-22-0.7l-7.3-91.4l-10.7-68.8
	l-17.4,52.7l-28.7,64.8c-2.5,8-5.5,15.8-9,23.4l-5.3,9.3l-20-2.3l30.4-102.5l6-66.8c0.7-37.4,12.7-58.1,12.7-58.1v-8L119.2,338.6z"
	/>
<path class="st2" d="M27.8,603.7c0,0,3.3-5.3,3.3-3.3s8.7,7.3,8.7,7.3s8.7-1.3,10,8.7s-12,12-15.4,11.3s-12,0.7-12,0.7
	s-6.7,1.3-17.4,0s-1.3-19.4,0-22.7s8-0.7,8-0.7C25.1,608.3,27.8,603.7,27.8,603.7z"/>
<path class="st2" d="M127.9,613.7c0,0,3.3-5.3,3.3-3.3s8.7,7.3,8.7,7.3s8.7-1.3,10,8.7s-12,12-15.4,11.3s-12,0.7-12,0.7
	s-6.7,1.3-17.4,0s-1.3-19.4,0-22.7s8-0.7,8-0.7C125.2,618.3,127.9,613.7,127.9,613.7z"/>
<path class="st10" d="M81.8,261.9c16.7-17.4,34.7,26,34.7,26s6,16,1.3,24.7s4.7,28,4.7,28c-22.9,19.5-45.6,37.5-66.8,24.7
	c2.7-16-6-24-12-39.4s-17.4-12-17.4-12s0.7-17.4,2.7-31.4s20-19.3,20-19.3C52.4,269.1,65.1,279.2,81.8,261.9z"/>
<path class="st9" d="M111.2,289.9l6,42.7l25.4,45.4c7.3,6.7,0.7,22.7,0.7,22.7l-6.7-4.7l-1.3-8c0,0-29.4-33.4-36.7-41.4
	s-10-52.1-10-52.1L111.2,289.9z"/>
<path class="st10" d="M115.2,296.6l-28,3.3c0,0-2-32.7,2.2-40.9s19.8,0.8,19.8,0.8C113.2,260.5,115.2,296.6,115.2,296.6z"/>
<path class="st2" d="M114.8,210.8c-18,9-7.6,33.5-9.7,43.8c-3.5,16.8-54.7,8.3-54.7,8.3c-6.2-1.1-10-70.4,24.1-69.8
	C91.7,193.4,130.2,203.2,114.8,210.8z"/>
<ellipse class="st9" cx="103.9" cy="228.1" rx="2.5" ry="4"/>
<g id="certificate">
	<g>
		<g>
			<path class="st11" d="M401.1,254.8C401.1,254.8,401.1,254.8,401.1,254.8l178,0c0,0,0,0,0,0v131c0,0,0,0,0,0h-178c0,0,0,0,0,0
				V254.8z"/>
			<path class="st12" d="M401.1,254.8C401.1,254.8,401.1,254.8,401.1,254.8l178,0c0,0,0,0,0,0v131c0,0,0,0,0,0h-178c0,0,0,0,0,0
				V254.8z"/>
		</g>
		<g>
			<line class="st13" x1="425" y1="287" x2="552.5" y2="287"/>
		</g>
		<g>
			<line class="st13" x1="425" y1="309.4" x2="552.5" y2="309.4"/>
		</g>
		<g>
			<line class="st13" x1="425" y1="332.3" x2="498.7" y2="332.3"/>
		</g>
		<g>
			<line class="st13" x1="425" y1="355.3" x2="498.7" y2="355.3"/>
		</g>
	</g>
</g>
</svg>
