<?xml version="1.0" encoding="utf-8"?>
<!-- Generator: Adobe Illustrator 24.0.3, SVG Export Plug-In . SVG Version: 6.00 Build 0)  -->
<svg version="1.1" id="a4b4d3ba-298a-4a01-b7c2-bf784b737cdf"
	 xmlns="http://www.w3.org/2000/svg" xmlns:xlink="http://www.w3.org/1999/xlink" x="0px" y="0px" viewBox="0 0 1045.2 669.7"
	 style="enable-background:new 0 0 1045.2 669.7;" xml:space="preserve">
<style type="text/css">
	.st0{fill:#E3F2FD;}
	.st1{opacity:0.8;}
	.st2{fill:#B9DAFC;}
	.st3{fill:#FFFFFF;}
	.st4{clip-path:url(#SVGID_2_);}
	.st5{fill:#E6E6E6;}
	.st6{fill:#1A237E;}
	.st7{fill:#FFD740;}
	.st8{fill:#FF7043;}
	.st9{fill:#C5CAE9;}
	.st10{fill:none;stroke:#7986CB;stroke-width:10;stroke-miterlimit:10;}
	.st11{fill:none;stroke:#FFFFFF;stroke-width:9;stroke-miterlimit:10;}
	.st12{clip-path:url(#SVGID_4_);}
	.st13{fill:#FEFFFF;}
	.st14{fill:#FEFEFF;}
	.st15{fill:#FDFEFF;}
	.st16{fill:#FCFEFF;}
	.st17{fill:#FBFDFF;}
	.st18{fill:#FAFDFF;}
	.st19{fill:#F9FCFF;}
	.st20{fill:#F8FCFE;}
	.st21{fill:#F7FBFE;}
	.st22{fill:#F5FBFE;}
	.st23{fill:#F4FAFE;}
	.st24{fill:#F3F9FE;}
	.st25{fill:#F2F9FE;}
	.st26{fill:#F0F8FE;}
	.st27{fill:#EFF8FE;}
	.st28{fill:#EDF7FE;}
	.st29{fill:#ECF6FE;}
	.st30{fill:#EAF5FE;}
	.st31{fill:#E8F5FD;}
	.st32{fill:#E7F4FD;}
	.st33{fill:#E5F3FD;}
	.st34{fill:#A0616A;}
	.st35{fill:#223056;}
	.st36{fill:#7986CB;}
	.st37{fill:#2F2E41;}
	.st38{opacity:0.1;enable-background:new    ;}
	.st39{fill:#FBBEBE;}
</style>
<path class="st0" d="M1045.2,612.3c0,31.7-233.9,57.4-522.6,57.4S0,644,0,612.3s233.9-57.4,522.6-57.4S1045.2,580.6,1045.2,612.3"/>
<g id="leave" class="st1">
	<path class="st2" d="M54.5,442c-35.9-64.4-44.3-143.5-22.7-214.1c77.6,9.1,149.5,57.6,187.1,126c27.7,50.4,36.3,110.7,25.4,167
		c-4.9,25.1-7.1,57.4-37.8,47.8c-29.8-9.3-58.1-26-82.5-45.3C95.8,501.1,72.2,473.4,54.5,442"/>
	<path class="st3" d="M221.6,562.1c-0.7,0-1.4-0.5-1.5-1.3c-28.5-156.6-187.8-329-189.4-330.7c-0.6-0.7-0.5-1.6,0.2-2.2
		c0.6-0.5,1.5-0.5,2.1,0.1c1.6,1.7,161.5,174.8,190.1,332.3c0.2,0.8-0.4,1.6-1.2,1.8C221.7,562.1,221.7,562.1,221.6,562.1"/>
	<path class="st3" d="M126.8,352.5c-0.1,0-0.2,0-0.3,0c-0.8-0.2-1.4-1-1.2-1.8l15.3-80c0.2-0.8,1-1.4,1.9-1.2
		c0.8,0.2,1.3,0.9,1.2,1.7l-15.3,80C128.2,352,127.6,352.6,126.8,352.5"/>
	<path class="st3" d="M179.8,443.5c-0.9,0-1.5-0.7-1.5-1.6c0-0.2,0-0.4,0.1-0.6l36.8-90.9c0.2-0.8,1-1.3,1.9-1.1
		c0.8,0.2,1.3,1,1.1,1.9c0,0.2-0.1,0.3-0.2,0.4l-36.8,90.9C181,443.1,180.4,443.5,179.8,443.5"/>
	<path class="st3" d="M83.1,292.2H20.7c-0.9,0-1.5-0.7-1.5-1.5s0.7-1.5,1.5-1.5h62.5c0.9,0,1.5,0.7,1.5,1.5S84,292.2,83.1,292.2"/>
	<path class="st3" d="M150.5,390.2H33.4c-0.9,0-1.5-0.7-1.5-1.5c0-0.9,0.7-1.5,1.5-1.5h117.1c0.9,0,1.5,0.7,1.5,1.5
		C152.1,389.5,151.4,390.2,150.5,390.2"/>
	<path class="st3" d="M197.7,489.3L197.7,489.3l-117.2-6c-0.8,0-1.5-0.7-1.5-1.6c0,0,0,0,0,0c0-0.8,0.6-1.5,1.5-1.5
		c0.1,0,0.1,0,0.2,0l117.1,6c0.9,0.1,1.5,0.8,1.4,1.7C199.1,488.6,198.5,489.2,197.7,489.3"/>
</g>
<g id="leaves" class="st1">
	<path class="st2" d="M965.2,402.4c16.3-54,9.8-114.6-17.8-163.9C890.9,258,845,305.9,827.9,363.2c-12.5,42.2-9.2,88.7,8.1,129.1
		c7.7,17.9,14.7,41.8,36,29.6c20.8-11.8,39.3-28.9,54.3-47.3C943.9,453.3,957.1,428.8,965.2,402.4"/>
	<path class="st2" d="M1005,475.5c27.4-49.3,33.9-109.9,17.4-163.9c-59.4,7-114.4,44.1-143.2,96.4c-21.2,38.6-27.8,84.7-19.4,127.8
		c3.7,19.2,5.4,43.9,28.9,36.6c22.8-7.1,44.5-19.9,63.1-34.7C973.5,520.8,991.6,499.6,1005,475.5"/>
	<g>
		<g>
			<defs>
				<rect id="SVGID_1_" x="841.8" y="307.7" width="130" height="217.4"/>
			</defs>
			<clipPath id="SVGID_2_">
				<use xlink:href="#SVGID_1_"  style="overflow:visible;"/>
			</clipPath>
			<g class="st4">
				<path class="st0" d="M864.7,395.3c22.5-40.9,61-72.4,105-87.7c0.9,5.7,1.6,11.5,2.1,17.3c-39.4,16.4-73.4,46-94,83.5
					c-19.4,35.2-26.5,76.8-21.2,116.6c-5.5-1.4-9.5-6.2-12.9-12.3C838.2,472.8,845.3,430.8,864.7,395.3"/>
			</g>
		</g>
	</g>
	<path class="st3" d="M877.2,569.5c0.6,0,1.1-0.4,1.2-1c21.8-119.8,143.7-251.8,144.9-253.1c0.4-0.5,0.4-1.3-0.1-1.7
		c-0.5-0.4-1.2-0.4-1.6,0.1c-1.2,1.3-123.6,133.8-145.5,254.3c-0.1,0.6,0.3,1.3,1,1.4c0,0,0,0,0,0
		C877.1,569.5,877.2,569.5,877.2,569.5"/>
	<path class="st3" d="M949.7,409.2h0.2c0.6-0.1,1.1-0.7,0.9-1.4l-11.7-61.2c-0.1-0.6-0.7-1.1-1.4-0.9c-0.6,0.1-1.1,0.7-0.9,1.4
		c0,0,0,0,0,0l11.7,61.2C948.6,408.8,949.1,409.2,949.7,409.2"/>
	<path class="st3" d="M909.1,478.8c0.2,0,0.3,0,0.4-0.1c0.6-0.2,0.9-0.9,0.7-1.5c0,0,0,0,0,0l-28.2-69.6c-0.3-0.6-1-0.8-1.6-0.5
		c-0.5,0.3-0.8,0.9-0.6,1.4L908,478C908.2,478.5,908.7,478.8,909.1,478.8"/>
	<path class="st3" d="M983.1,363h47.8c0.7,0.1,1.2-0.4,1.3-1.1c0.1-0.7-0.4-1.2-1.1-1.3c-0.1,0-0.1,0-0.2,0h-47.8
		c-0.7-0.1-1.2,0.4-1.3,1.1c-0.1,0.7,0.4,1.2,1.1,1.3C983,363,983.1,363,983.1,363"/>
	<path class="st3" d="M931.6,438h89.6c0.7,0.1,1.2-0.4,1.3-1.1c0.1-0.7-0.4-1.2-1.1-1.3c-0.1,0-0.1,0-0.2,0h-89.6
		c-0.7,0.1-1.1,0.6-1.1,1.3C930.5,437.5,931,437.9,931.6,438"/>
	<path class="st3" d="M895.5,513.8L895.5,513.8l89.7-4.6c0.7,0,1.2-0.6,1.1-1.2c0,0,0,0,0,0c0-0.6-0.5-1.1-1.1-1.1c0,0-0.1,0-0.1,0
		l-89.6,4.6c-0.7,0.1-1.1,0.7-1,1.3C894.4,513.3,894.9,513.8,895.5,513.8"/>
</g>
<g id="screen">
	<rect x="123.4" y="0.4" class="st5" width="783.4" height="501.8"/>
	<rect x="145.8" y="63.4" class="st3" width="738.6" height="409.1"/>
	<rect x="123.1" y="0" class="st6" width="783.4" height="33.3"/>
	<circle class="st3" cx="147.9" cy="17" r="6.2"/>
	<circle class="st3" cx="171.3" cy="17" r="6.2"/>
	<circle class="st3" cx="194.7" cy="17" r="6.2"/>
	<g id="image">
		<rect x="576.9" y="90.2" class="st7" width="199" height="149.3"/>
		<polyline class="st6" points="576.9,175.2 621.6,141.8 679.2,199.4 724.7,168.1 776.2,219.7 776.2,239.5 576.9,239.5 576.9,175.2 
					"/>
		<circle class="st3" cx="689.9" cy="127.8" r="13.4"/>
	</g>
	<g id="play">
		<g>
			<path class="st8" d="M472.2,342.9c0,6.2-5,11.2-11.2,11.2H193.3c-6.2,0-11.2-5-11.2-11.2V101.4c0-6.2,5-11.2,11.2-11.2H461
				c6.2,0,11.2,5,11.2,11.2V342.9z"/>
		</g>
		<path class="st3" d="M404.6,237.5l-113.8,78.3c-3.1,2.1-6.8,3.2-10.5,3.2c-3,0-5.9-0.7-8.6-2.1c-6.2-3.2-10-9.5-10-16.5V143.7
			c0-6.9,3.8-13.2,10-16.5s13.6-2.8,19.2,1.1l113.9,78.3c5,3.5,8.1,9.2,8.1,15.3C412.7,228.2,409.7,234,404.6,237.5z"/>
	</g>
	<g id="certificate">
		<g>
			<g>
				<path class="st9" d="M509.5,272.4L509.5,272.4h241.3l0,0V450l0,0H509.5l0,0V272.4z"/>
				<path class="st10" d="M509.5,272.4L509.5,272.4h241.3l0,0V450l0,0H509.5l0,0V272.4z"/>
			</g>
			<g>
				<line class="st11" x1="541.8" y1="316.1" x2="714.7" y2="316.1"/>
			</g>
			<g>
				<line class="st11" x1="541.8" y1="346.5" x2="714.7" y2="346.5"/>
			</g>
			<g>
				<line class="st11" x1="541.8" y1="377.5" x2="641.8" y2="377.5"/>
			</g>
			<g>
				<line class="st11" x1="541.8" y1="408.7" x2="641.8" y2="408.7"/>
			</g>
		</g>
	</g>
</g>
<g id="boy">
	<g>
		<defs>
			<polygon id="SVGID_3_" points="691.9,452.8 730.3,472.4 767.7,424.6 728,405.4 			"/>
		</defs>
		<clipPath id="SVGID_4_">
			<use xlink:href="#SVGID_3_"  style="overflow:visible;"/>
		</clipPath>
		<g class="st12">
			<path class="st3" d="M689.8,459.5L689.8,459.5z"/>
			<polygon class="st3" points="691.9,460.1 711.1,400 708.9,399.3 691.9,452.8 689.8,459.5 			"/>
			
				<rect x="671" y="429.3" transform="matrix(0.3039 -0.9527 0.9527 0.3039 79.0575 968.999)" class="st3" width="63.2" height="2.3"/>
			
				<rect x="673.2" y="430" transform="matrix(0.3039 -0.9527 0.9527 0.3039 79.9074 971.5441)" class="st3" width="63.2" height="2.3"/>
			
				<rect x="675.3" y="430.6" transform="matrix(0.3039 -0.9527 0.9527 0.3039 80.7574 974.0894)" class="st3" width="63.2" height="2.3"/>
			
				<rect x="677.5" y="431.3" transform="matrix(0.3039 -0.9527 0.9527 0.3039 81.6073 976.6345)" class="st13" width="63.2" height="2.3"/>
			
				<rect x="679.7" y="432" transform="matrix(0.3039 -0.9527 0.9527 0.3039 82.4572 979.1798)" class="st14" width="63.2" height="2.3"/>
			
				<rect x="681.8" y="432.7" transform="matrix(0.3039 -0.9527 0.9527 0.3039 83.3027 981.7118)" class="st15" width="63.2" height="2.3"/>
			
				<rect x="684" y="433.4" transform="matrix(0.3039 -0.9527 0.9527 0.3039 84.1527 984.2571)" class="st15" width="63.2" height="2.3"/>
			
				<rect x="686.2" y="434.1" transform="matrix(0.3039 -0.9527 0.9527 0.3039 85.0025 986.8022)" class="st16" width="63.2" height="2.3"/>
			
				<rect x="688.3" y="434.8" transform="matrix(0.3039 -0.9527 0.9527 0.3039 85.8525 989.3475)" class="st17" width="63.2" height="2.3"/>
			
				<rect x="690.5" y="435.5" transform="matrix(0.3039 -0.9527 0.9527 0.3039 86.7024 991.8926)" class="st18" width="63.2" height="2.3"/>
			
				<rect x="692.7" y="436.2" transform="matrix(0.3039 -0.9527 0.9527 0.3039 87.5479 994.4247)" class="st18" width="63.2" height="2.3"/>
			
				<rect x="694.8" y="436.9" transform="matrix(0.3039 -0.9527 0.9527 0.3039 88.3978 996.9698)" class="st19" width="63.2" height="2.3"/>
			
				<rect x="697" y="437.5" transform="matrix(0.3039 -0.9527 0.9527 0.3039 89.2478 999.5151)" class="st20" width="63.2" height="2.3"/>
			
				<rect x="699.2" y="438.2" transform="matrix(0.3039 -0.9527 0.9527 0.3039 90.0977 1002.0602)" class="st21" width="63.2" height="2.3"/>
			
				<rect x="701.3" y="438.9" transform="matrix(0.3039 -0.9527 0.9527 0.3039 90.9476 1004.6055)" class="st22" width="63.2" height="2.3"/>
			
				<rect x="703.5" y="439.6" transform="matrix(0.3039 -0.9527 0.9527 0.3039 91.7975 1007.1506)" class="st23" width="63.2" height="2.3"/>
			
				<rect x="705.6" y="440.3" transform="matrix(0.3039 -0.9527 0.9527 0.3039 92.6431 1009.6827)" class="st24" width="63.2" height="2.3"/>
			
				<rect x="707.8" y="441" transform="matrix(0.3039 -0.9527 0.9527 0.3039 93.4929 1012.2279)" class="st25" width="63.2" height="2.3"/>
			
				<rect x="710" y="441.7" transform="matrix(0.3039 -0.9527 0.9527 0.3039 94.3429 1014.7731)" class="st26" width="63.2" height="2.3"/>
			
				<rect x="712.1" y="442.4" transform="matrix(0.3039 -0.9527 0.9527 0.3039 95.1928 1017.3183)" class="st27" width="63.2" height="2.3"/>
			
				<rect x="714.3" y="443.1" transform="matrix(0.3039 -0.9527 0.9527 0.3039 96.0427 1019.8634)" class="st28" width="63.2" height="2.3"/>
			
				<rect x="716.5" y="443.8" transform="matrix(0.3039 -0.9527 0.9527 0.3039 96.8926 1022.4087)" class="st29" width="63.2" height="2.3"/>
			
				<rect x="718.6" y="444.5" transform="matrix(0.3039 -0.9527 0.9527 0.3039 97.7382 1024.9408)" class="st30" width="63.2" height="2.3"/>
			
				<rect x="720.8" y="445.1" transform="matrix(0.3039 -0.9527 0.9527 0.3039 98.5881 1027.486)" class="st31" width="63.2" height="2.3"/>
			
				<rect x="723" y="445.8" transform="matrix(0.3039 -0.9527 0.9527 0.3039 99.438 1030.031)" class="st32" width="63.2" height="2.3"/>
			
				<rect x="725.1" y="446.5" transform="matrix(0.3039 -0.9527 0.9527 0.3039 100.2879 1032.5763)" class="st33" width="63.2" height="2.3"/>
			<polygon class="st0" points="767.7,424.6 769.6,418.6 767.4,417.9 748.2,478.1 750.4,478.8 			"/>
			<path class="st0" d="M769.6,418.6L769.6,418.6z"/>
		</g>
	</g>
	<polygon class="st34" points="889.6,576.8 894.8,597.4 872.2,603.5 870.1,582 	"/>
	<polygon class="st34" points="807.4,602.5 807.4,622 784.8,626.2 780.7,615.9 788.9,598.4 	"/>
	<path class="st35" d="M852.6,389.8l-3.1,27.8l2.1,53.4c0,0,0,5.1,3.1,7.2c1.7,1.1,38,102.8,38,102.8s-8.2,10.3-23.6,7.2l-3.1-10.3
		c0,0-4.1-13.4-6.2-16.4s-32.9-65.8-32.9-65.8L812.5,470l-4.1,34.9c0,0,8.2,44.2,6.2,64.8s-6.2,42.1-6.2,42.1l-24.7-4.1
		c-0.1-3.3-1.2-6.5-3.1-9.3c-3.1-4.1-2.1-18.5-2.1-18.5v-3.1l-6.2-79.1L761,393.9L852.6,389.8z"/>
	<circle class="st34" cx="782.7" cy="174.9" r="27.8"/>
	<polygon class="st34" points="806.9,175.4 818.2,203.2 791.5,222.7 775,193.9 	"/>
	<path class="st36" d="M808.4,196.5l10.3-5.1l6.2,14.4c0,0,40.1,12.3,37,68.9s-10.3,78.1-10.3,78.1s17.5,37,7.2,41.1
		s-97.6,19.5-99.7,5.1s7.2-98.7,7.2-98.7s-3.1-60.6,22.6-73l-5.1-11.3L808.4,196.5z"/>
	<path class="st34" d="M751.9,395.9c0,0-23.6,24.7-10.3,30.8s21.6-27.8,21.6-27.8L751.9,395.9z"/>
	<path class="st37" d="M798.5,614.4l10.2-2.9c0,0,11.1,19.6,1.9,19.6h-24.2c0,0-13.9-3.6-21.4-3.6c-7.4,0-21.4-10.9-11.1-15.9
		c10.2-5.1,23.3-3.6,23.3-3.6l3.7-6.6l4.6,10.2C785.5,611.5,791.1,618.7,798.5,614.4z"/>
	<path class="st37" d="M883.5,593c0,0,6.4-3.2,9.9-2s5.5,14.2,5.5,14.2s10.3,9.7-12.3,11.4c-22.6,1.7-27.8-1.7-29.8-6.5
		c-2-4.8,2.1-9.7,2.1-9.7l6.2-1.7c0,0,7.2-4,5.1-5.7c-2.1-1.7,0-4.9,0-4.9S877.3,599.5,883.5,593z"/>
	<path class="st6" d="M792.2,174.5c-0.1-0.9-0.3-1.8-0.6-2.6c-1.5-3.1-7.3-2.2-8.3-5.5c-0.2-0.6-0.2-1.4-0.4-2
		c-0.5-1.7-2.5-2.5-4.2-2.4c-1.7,0.2-3.4,0.7-5,1.3c-4.1,1.2-8.4,0.7-12.6,0.3c-1.9-0.1-3.7-0.5-5.4-1.4c-1.6-1-2.7-3-2.2-4.7
		c0.6-1.7,2.4-2.6,3.3-4.2c1.3-2.5-0.3-5.8,0.8-8.4c1.7-4.2,8.3-3.4,11.6-6.5c0.8-0.8,1.4-1.7,2.2-2.5c2.3-2.3,5.9-2.8,9.2-2.5
		s6.5,1.3,9.8,1.2c3.1-0.1,6.4-1,9.3,0.2c1.7,0.9,3.2,2.1,4.3,3.6l7.4,8.1c1,1,1.8,2.1,2.3,3.4c0.4,1.5,0,3.2,0.2,4.8
		c0.4,3.6,3.8,6.4,4.3,10c0.1,1.1,0,2.3-0.2,3.4l-1,7.6c-0.1,0.7-0.2,1.5-0.6,2.1c-0.3,0.5-0.8,0.9-1.1,1.4c-1,1.4-0.9,3.2-1.3,4.8
		c-0.5,1.6-2.2,3.2-3.7,2.4c-1-0.5-1.6-4.7-2.8-5.8c-1.6-1.5-2.5-1.3-4.5-1.3C798.9,179.3,793.5,179.7,792.2,174.5z"/>
	<path class="st36" d="M797.1,234.5c0,0,30.8,12.3,21.6,40.1s-33.9,113.1-33.9,113.1l-14.4,7.2l-4.1,11.3l-19.5-7.2l3.1-15.4
		l7.2-15.4L775.5,253C775.5,253,775.5,233.5,797.1,234.5z"/>
	<polygon class="st38" points="820.3,280.3 788.4,389.2 775,402.6 782.7,388.7 	"/>
</g>
<g id="girl">
	<path class="st39" d="M162.9,295.9l6,42.7l25.4,45.4c7.3,6.7,0.7,22.7,0.7,22.7l-6.7-4.7l-1.3-8c0,0-29.4-33.4-36.7-41.4
		c-7.3-8-10-52.1-10-52.1L162.9,295.9z"/>
	<path class="st39" d="M140.8,585.6c0,0,1.3,15.4,0.7,19.4c-0.6,4-20.7-0.7-20.7-0.7c3.3-6.7,5.3-26.7,5.3-26.7L140.8,585.6z"/>
	<path class="st39" d="M240.3,589.6c0,0,2,21.4,1.3,25.4s-20.7-0.7-20.7-0.7c3.3-6.7,5.3-26.7,5.3-26.7L240.3,589.6z"/>
	<circle class="st39" cx="199.3" cy="222.9" r="24.3"/>
	<path class="st39" d="M203.5,245.8c-4,5.3-2,14.7-2,14.7s-40.7,47.4-48.1,47.4s-6-33.4-6-33.4s10.7-12.7,16.7-15.4
		s16.7-31.4,16.7-31.4S207.5,240.5,203.5,245.8z"/>
	<path class="st35" d="M230.9,336.6l26.1,43.9c4.8,7.8-4.1,47.6-4.1,47.6l-4,84.8l-6.7,85.4v9.3l-22-0.7l-7.3-91.4l-10.7-68.8
		l-17.4,52.7l-28.7,64.8c-2.5,8-5.5,15.8-9,23.4l-5.3,9.3l-20-2.3l30.4-102.5l6-66.8c0.7-37.4,12.7-58.1,12.7-58.1v-8L230.9,336.6z"
		/>
	<path class="st6" d="M139.5,601.7c0,0,3.3-5.3,3.3-3.3s8.7,7.3,8.7,7.3s8.7-1.3,10,8.7s-12,12-15.4,11.3s-12,0.7-12,0.7
		s-6.7,1.3-17.4,0s-1.3-19.4,0-22.7c1.3-3.3,8-0.7,8-0.7C136.8,606.3,139.5,601.7,139.5,601.7z"/>
	<path class="st6" d="M239.6,611.7c0,0,3.3-5.3,3.3-3.3s8.7,7.3,8.7,7.3s8.7-1.3,10,8.7c1.3,10-12,12-15.4,11.3s-12,0.7-12,0.7
		s-6.7,1.3-17.4,0c-10.7-1.3-1.3-19.4,0-22.7s8-0.7,8-0.7C236.9,616.3,239.6,611.7,239.6,611.7z"/>
	<path class="st7" d="M193.5,259.9c16.7-17.4,34.7,26,34.7,26s6,16,1.3,24.7s4.7,28,4.7,28c-22.9,19.5-45.6,37.5-66.8,24.7
		c2.7-16-6-24-12-39.4s-17.4-12-17.4-12s0.7-17.4,2.7-31.4s20-19.3,20-19.3C164.1,267.1,176.8,277.2,193.5,259.9z"/>
	<path class="st39" d="M222.9,287.9l6,42.7l25.4,45.4c7.3,6.7,0.7,22.7,0.7,22.7l-6.7-4.7l-1.3-8c0,0-29.4-33.4-36.7-41.4
		c-7.3-8-10-52.1-10-52.1L222.9,287.9z"/>
	<path class="st7" d="M226.9,294.6l-28,3.3c0,0-2-32.7,2.2-40.9s19.8,0.8,19.8,0.8C224.9,258.5,226.9,294.6,226.9,294.6z"/>
	<path class="st6" d="M226.5,208.8c-18,9-7.6,33.5-9.7,43.8c-3.5,16.8-54.7,8.3-54.7,8.3c-6.2-1.1-10-70.4,24.1-69.8
		C203.4,191.4,241.9,201.2,226.5,208.8z"/>
	<ellipse class="st39" cx="215.6" cy="226.1" rx="2.5" ry="4"/>
</g>
</svg>
