<?xml version="1.0" encoding="UTF-8"?> <svg xmlns="http://www.w3.org/2000/svg" xmlns:xlink="http://www.w3.org/1999/xlink" viewBox="0 0 1920 973.77"><defs><clipPath id="clip-path" transform="translate(0 -186.23)"><rect width="1920" height="4558" style="fill:none"></rect></clipPath><clipPath id="clip-path-2" transform="translate(0 -186.23)"><rect x="1498.52" y="598.15" width="129.98" height="217.43" style="fill:none"></rect></clipPath><clipPath id="clip-path-3" transform="translate(0 -186.23)"><path d="M1125.2,510.38a37,37,0,0,0-37,37V953.89h365.2V692.26h-.12V547.41a37,37,0,0,1,37-37Z" style="fill:none"></path></clipPath><linearGradient id="Dégradé_sans_nom_2" x1="-2394.21" y1="4561.83" x2="-2393.21" y2="4561.83" gradientTransform="matrix(0, 624.73, 624.73, 0, -2848634.33, 1496144.68)" gradientUnits="userSpaceOnUse"><stop offset="0" stop-color="#fbe9e7"></stop><stop offset="0.1" stop-color="#fbe9e7"></stop><stop offset="0.31" stop-color="#fae6e4"></stop><stop offset="0.47" stop-color="#f8dcdb"></stop><stop offset="0.61" stop-color="#f5cccc"></stop><stop offset="0.63" stop-color="#f4c9c9"></stop><stop offset="1" stop-color="#76bbff"></stop></linearGradient><clipPath id="clip-path-5" transform="translate(0 -186.23)"><rect x="1164.88" y="414.07" width="7.09" height="8.2" style="fill:none"></rect></clipPath><clipPath id="clip-path-6" transform="translate(0 -186.23)"><rect x="1453.25" y="642.5" width="20.11" height="312.32" style="fill:none"></rect></clipPath><clipPath id="clip-path-7" transform="translate(0 -186.23)"><polygon points="1607.48 748.36 1640.9 794.08 1669.36 791.24 1637.13 745.98 1607.48 748.36" style="fill:none"></polygon></clipPath><clipPath id="clip-path-9" transform="translate(0 -186.23)"><polygon points="1715.48 817.99 1751.8 823.2 1769.75 780.89 1732.58 776.25 1715.48 817.99" style="fill:none"></polygon></clipPath><clipPath id="clip-path-11" transform="translate(0 -186.23)"><rect x="1713.99" y="724.91" width="8.78" height="10.14" style="fill:none"></rect></clipPath><clipPath id="clip-path-12" transform="translate(0 -186.23)"><rect x="1045.39" y="701.78" width="310.17" height="263.61" style="fill:none"></rect></clipPath><clipPath id="clip-path-13" transform="translate(0 -186.23)"><rect x="1166.7" y="789.76" width="52.78" height="196.98" style="fill:none"></rect></clipPath></defs><title>hero-accueil_2</title><g style="isolation:isolate"><g id="Calque_2" data-name="Calque 2"><g id="Calque_1-2" data-name="Calque 1"><g style="clip-path:url(#clip-path)"><path d="M1775.1,1029.58c0,31.72-246,57.42-549.55,57.42S676,1061.3,676,1029.58s246-57.41,549.55-57.41,549.55,25.71,549.55,57.41" transform="translate(0 -186.23)" style="fill:#e3f2fd"></path><path d="M1634.56,1045H899.68a15.4,15.4,0,1,1,0-30.8h734.88a15.4,15.4,0,1,1,0,30.8" transform="translate(0 -186.23)" style="fill:#8fa5e2"></path><path d="M1621.9,692.86c16.35-54,9.77-114.6-17.8-163.86-56.53,19.44-102.44,67.35-119.46,124.65-12.54,42.2-9.17,88.69,8.14,129.06,7.7,17.94,14.65,41.78,36,29.62,20.75-11.79,39.26-28.87,54.32-47.27a211,211,0,0,0,38.75-72.2" transform="translate(0 -186.23)" style="fill:#b9dafc"></path><path d="M1661.74,766c27.45-49.33,33.89-109.91,17.41-163.9-59.37,7-114.41,44.06-143.21,96.44-21.21,38.57-27.79,84.71-19.44,127.84,3.71,19.17,5.44,43.94,28.93,36.6,22.79-7.12,44.49-19.88,63.12-34.65A210.81,210.81,0,0,0,1661.74,766" transform="translate(0 -186.23)" style="fill:#b9dafc"></path><g style="mix-blend-mode:multiply"><g style="clip-path:url(#clip-path-2)"><path d="M1521.44,685.8c22.49-40.89,61-72.44,105-87.65.93,5.74,1.59,11.52,2.06,17.32-39.42,16.4-73.43,46-94,83.47-19.38,35.25-26.51,76.82-21.23,116.64-5.47-1.41-9.53-6.2-12.92-12.3-5.5-40.07,1.6-82,21.12-117.48" transform="translate(0 -186.23)" style="fill:#e3f2fd"></path></g></g><path d="M1533.89,860a1.2,1.2,0,0,0,1.17-1c21.79-119.85,143.71-251.81,144.94-253.13a1.19,1.19,0,0,0-1.74-1.62c-1.23,1.33-123.62,133.79-145.54,254.33a1.18,1.18,0,0,0,1,1.37.75.75,0,0,0,.21,0" transform="translate(0 -186.23)" style="fill:#fff"></path><path d="M1606.4,699.61l.23,0a1.19,1.19,0,0,0,.94-1.39L1595.88,637a1.2,1.2,0,0,0-1.39-.94,1.18,1.18,0,0,0-.94,1.39l11.69,61.22a1.19,1.19,0,0,0,1.16,1" transform="translate(0 -186.23)" style="fill:#fff"></path><path d="M1565.83,769.22a1.2,1.2,0,0,0,.45-.09,1.18,1.18,0,0,0,.65-1.54L1538.77,698a1.19,1.19,0,0,0-2.2.89l28.16,69.61a1.19,1.19,0,0,0,1.1.74" transform="translate(0 -186.23)" style="fill:#fff"></path><path d="M1639.84,653.41h47.82a1.19,1.19,0,1,0,0-2.37h-47.82a1.19,1.19,0,1,0,0,2.37" transform="translate(0 -186.23)" style="fill:#fff"></path><path d="M1588.25,728.45h89.63a1.19,1.19,0,1,0,0-2.37h-89.63a1.19,1.19,0,0,0,0,2.37" transform="translate(0 -186.23)" style="fill:#fff"></path><path d="M1552.15,804.26h.06l89.61-4.62a1.18,1.18,0,0,0,1.12-1.24,1.12,1.12,0,0,0-1.24-1.12l-89.61,4.61a1.19,1.19,0,0,0,.06,2.37" transform="translate(0 -186.23)" style="fill:#fff"></path><rect x="1476.69" y="664.55" width="121.45" height="121.45" style="fill:#ff9045"></rect><path d="M834.58,822.4c-38-68.24-46.88-152-24.07-226.75,82.13,9.68,158.27,61,198.11,133.42,29.35,53.37,38.46,117.21,26.91,176.87-5.14,26.53-7.53,60.79-40,50.64-31.53-9.85-61.56-27.5-87.32-47.94a291.93,291.93,0,0,1-73.6-86.24" transform="translate(0 -186.23)" style="fill:#b9dafc"></path><path d="M1011.46,949.6a1.63,1.63,0,0,1-1.61-1.34C979.7,782.45,811,599.89,809.33,598.06a1.64,1.64,0,0,1,2.4-2.23c1.71,1.83,171,185.08,201.34,351.84a1.64,1.64,0,0,1-1.31,1.91,1.51,1.51,0,0,1-.3,0" transform="translate(0 -186.23)" style="fill:#fff"></path><path d="M911.15,727.72a1.73,1.73,0,0,1-.32,0,1.65,1.65,0,0,1-1.3-1.92l16.18-84.69a1.64,1.64,0,0,1,3.22.61l-16.18,84.7a1.64,1.64,0,0,1-1.6,1.33" transform="translate(0 -186.23)" style="fill:#fff"></path><path d="M967.27,824a1.64,1.64,0,0,1-1.52-2.25l39-96.3a1.64,1.64,0,1,1,3,1.23l-39,96.3a1.65,1.65,0,0,1-1.52,1" transform="translate(0 -186.23)" style="fill:#fff"></path><path d="M864.89,663.81H798.72a1.64,1.64,0,0,1,0-3.28h66.17a1.64,1.64,0,0,1,0,3.28" transform="translate(0 -186.23)" style="fill:#fff"></path><path d="M936.26,767.62h-124a1.64,1.64,0,0,1,0-3.28h124a1.64,1.64,0,0,1,0,3.28" transform="translate(0 -186.23)" style="fill:#fff"></path><path d="M986.2,872.5h-.08l-124-6.39a1.62,1.62,0,0,1-1.55-1.72,1.55,1.55,0,0,1,1.72-1.55l124,6.39a1.64,1.64,0,0,1-.09,3.27" transform="translate(0 -186.23)" style="fill:#fff"></path><path d="M1497,648.49a2.38,2.38,0,0,1-2.1-1.26q-2.27-4.29-4.35-8.47a2.37,2.37,0,0,1,4.24-2.11q2.06,4.13,4.3,8.36a2.37,2.37,0,0,1-2.09,3.48m-10.41-21.26a2.36,2.36,0,0,1-2.16-1.4c-2-4.43-3.85-8.87-5.55-13.2a2.37,2.37,0,0,1,4.41-1.73c1.67,4.26,3.51,8.63,5.46,13a2.36,2.36,0,0,1-1.19,3.13,2.27,2.27,0,0,1-1,.21m-10.4-26.64a2.37,2.37,0,0,1-2.25-1.63c-1.53-4.61-2.9-9.25-4.08-13.76a2.37,2.37,0,0,1,4.58-1.2c1.16,4.42,2.5,9,4,13.48a2.37,2.37,0,0,1-2.25,3.11M1469,573.11a2.36,2.36,0,0,1-2.32-1.94c-.9-4.82-1.59-9.62-2.06-14.26a2.37,2.37,0,0,1,4.72-.47c.45,4.51,1.12,9.17,2,13.87a2.37,2.37,0,0,1-1.89,2.76,3.27,3.27,0,0,1-.44,0m-2.76-28.25a2.37,2.37,0,0,1-2.37-2.37v-.4a131.25,131.25,0,0,1,.74-14,2.37,2.37,0,0,1,4.71.51,124.33,124.33,0,0,0-.72,13.51v.4a2.36,2.36,0,0,1-2.36,2.37m3.15-28.34a2.08,2.08,0,0,1-.55-.07,2.37,2.37,0,0,1-1.76-2.85,109.75,109.75,0,0,1,4.28-13.86,2.37,2.37,0,0,1,4.43,1.7,104.06,104.06,0,0,0-4.1,13.26,2.37,2.37,0,0,1-2.3,1.82m10.19-26.42a2.27,2.27,0,0,1-1.15-.3,2.36,2.36,0,0,1-.92-3.22,104.77,104.77,0,0,1,7.92-12.17,2.37,2.37,0,1,1,3.78,2.85,100.92,100.92,0,0,0-7.56,11.62,2.36,2.36,0,0,1-2.07,1.22m17.05-22.62a2.37,2.37,0,0,1-1.68-4,111,111,0,0,1,10.87-9.62,2.37,2.37,0,1,1,2.9,3.74,109,109,0,0,0-10.41,9.21,2.35,2.35,0,0,1-1.68.71M1519.2,450a2.36,2.36,0,0,1-1.2-4.4,85.54,85.54,0,0,1,13.18-6.51,2.37,2.37,0,0,1,1.6,4.46,83.38,83.38,0,0,0-12.38,6.13,2.35,2.35,0,0,1-1.2.32" transform="translate(0 -186.23)" style="fill:#d0dafc"></path><path d="M1164.1,847.75a2.26,2.26,0,0,1-1.09-.27c-3.48-1.81-6.86-3.65-10-5.47a2.37,2.37,0,0,1,2.35-4.11c3.12,1.79,6.44,3.6,9.87,5.38a2.37,2.37,0,0,1-1.1,4.47M1142,834.88a2.32,2.32,0,0,1-1.3-.39c-4.18-2.76-8.11-5.59-11.7-8.41a2.37,2.37,0,0,1,2.94-3.72c3.48,2.74,7.31,5.49,11.37,8.18a2.37,2.37,0,0,1-1.31,4.34m-22.21-17.66a2.33,2.33,0,0,1-1.66-.68,97.62,97.62,0,0,1-9.62-10.92,2.37,2.37,0,0,1,3.79-2.84,93.7,93.7,0,0,0,9.15,10.39,2.36,2.36,0,0,1-1.66,4.05m-16.89-22.91a2.36,2.36,0,0,1-2.14-1.34,62.92,62.92,0,0,1-4.8-13.92,2.37,2.37,0,1,1,4.63-1,58,58,0,0,0,4.44,12.86,2.36,2.36,0,0,1-1.11,3.16,2.33,2.33,0,0,1-1,.23m-5.88-27.49H1097a2.37,2.37,0,0,1-2.29-2.44,68.82,68.82,0,0,1,2-14.53,2.37,2.37,0,0,1,4.6,1.15,64.59,64.59,0,0,0-1.92,13.52,2.37,2.37,0,0,1-2.36,2.3m6.59-27.43a2.45,2.45,0,0,1-1-.2,2.37,2.37,0,0,1-1.22-3.12,114.5,114.5,0,0,1,6.65-12.87,2.37,2.37,0,1,1,4.07,2.42,111,111,0,0,0-6.38,12.34,2.38,2.38,0,0,1-2.17,1.43m14.48-24.59a2.39,2.39,0,0,1-1.4-.46,2.36,2.36,0,0,1-.5-3.31c2.7-3.68,5.71-7.47,8.94-11.25a2.37,2.37,0,0,1,3.61,3.08c-3.16,3.69-6.1,7.39-8.73,11a2.39,2.39,0,0,1-1.92,1m18.39-21.62a2.36,2.36,0,0,1-1.7-4c3.19-3.32,6.61-6.71,10.16-10.08a2.37,2.37,0,1,1,3.26,3.44c-3.5,3.31-6.87,6.65-10,9.92a2.38,2.38,0,0,1-1.71.73m20.6-19.56a2.4,2.4,0,0,1-1.79-.81,2.37,2.37,0,0,1,.22-3.34c3.46-3,7.13-6.14,10.9-9.24a2.37,2.37,0,0,1,3,3.66c-3.74,3.07-7.36,6.14-10.78,9.14a2.39,2.39,0,0,1-1.56.59m22.1-18.15a2.37,2.37,0,0,1-1.45-4.25c3.65-2.83,7.48-5.72,11.38-8.59a2.37,2.37,0,0,1,2.81,3.82c-3.87,2.84-7.67,5.71-11.29,8.52a2.43,2.43,0,0,1-1.45.5m22.87-16.87a2.34,2.34,0,0,1-1.94-1,2.37,2.37,0,0,1,.57-3.3q5.68-4,11.73-8.1a2.37,2.37,0,1,1,2.65,3.93q-6,4.07-11.65,8a2.36,2.36,0,0,1-1.36.43m23.52-15.93a2.37,2.37,0,0,1-1.3-4.35q5.84-3.83,12-7.7a2.37,2.37,0,0,1,2.53,4q-6.12,3.87-11.93,7.66a2.37,2.37,0,0,1-1.29.39m24.18-15.29a2.37,2.37,0,0,1-1.24-4.39q3.81-2.34,7.73-4.7c1.48-.9,3-1.79,4.4-2.69a2.37,2.37,0,1,1,2.49,4c-1.46.91-3,1.81-4.45,2.72q-3.9,2.35-7.7,4.68a2.39,2.39,0,0,1-1.23.35m24.1-15.06a2.37,2.37,0,0,1-1.32-4.34c4-2.65,7.9-5.35,11.61-8a2.37,2.37,0,1,1,2.77,3.85c-3.76,2.71-7.71,5.44-11.75,8.13a2.35,2.35,0,0,1-1.31.39m23-16.62a2.37,2.37,0,0,1-1.47-4.23c3.75-3,7.4-6,10.86-9a2.37,2.37,0,0,1,3.11,3.58c-3.52,3.06-7.23,6.13-11,9.12a2.3,2.3,0,0,1-1.46.51m21.53-18.8a2.37,2.37,0,0,1-1.65-4.07c3.42-3.34,6.69-6.75,9.73-10.13a2.37,2.37,0,1,1,3.52,3.16c-3.1,3.46-6.45,6.95-9.94,10.36a2.37,2.37,0,0,1-1.66.68m18.92-21.17a2.37,2.37,0,0,1-1.88-3.81c2.9-3.78,5.6-7.64,8-11.46a2.37,2.37,0,0,1,4,2.53c-2.5,4-5.28,7.92-8.26,11.81a2.37,2.37,0,0,1-1.88.93m15.12-24a2.37,2.37,0,0,1-2.12-3.42,118.86,118.86,0,0,0,5.47-12.8,2.37,2.37,0,0,1,4.46,1.6,123.38,123.38,0,0,1-5.68,13.31,2.38,2.38,0,0,1-2.13,1.31m9.55-26.88a2.12,2.12,0,0,1-.5-.05,2.38,2.38,0,0,1-1.82-2.81,102.37,102.37,0,0,0,2-13.73,2.37,2.37,0,1,1,4.72.36,107.06,107.06,0,0,1-2.1,14.37,2.36,2.36,0,0,1-2.31,1.86m2.16-28.24a2.36,2.36,0,0,1-2.36-2.22,108.47,108.47,0,0,0-1.75-13.77,2.37,2.37,0,1,1,4.65-.9,112.65,112.65,0,0,1,1.83,14.38,2.37,2.37,0,0,1-2.22,2.51h-.15m-5.33-27.82a2.36,2.36,0,0,1-2.25-1.65,133.11,133.11,0,0,0-5-13,2.37,2.37,0,0,1,4.33-1.92,136.65,136.65,0,0,1,5.17,13.5,2.37,2.37,0,0,1-1.54,3,2.27,2.27,0,0,1-.72.12m-11.54-26.14a2.36,2.36,0,0,1-2.07-1.21c-2.22-4-4.7-8-7.37-11.92a2.37,2.37,0,0,1,3.93-2.65c2.73,4.05,5.28,8.18,7.58,12.25a2.38,2.38,0,0,1-.91,3.23,2.42,2.42,0,0,1-1.16.3m-15.85-23.58a2.38,2.38,0,0,1-1.87-.9c-2.84-3.62-5.88-7.25-9-10.79a2.37,2.37,0,0,1,3.53-3.16c3.23,3.62,6.34,7.33,9.24,11a2.36,2.36,0,0,1-1.86,3.83m-18.93-21.23a2.35,2.35,0,0,1-1.67-.69c-3.29-3.28-6.74-6.54-10.26-9.68a2.37,2.37,0,0,1,3.16-3.53c3.58,3.2,7.09,6.51,10.44,9.86a2.36,2.36,0,0,1-1.67,4m-21.36-19.1a2.37,2.37,0,0,1-1.48-.52c-6.76-5.4-11.23-8.39-11.28-8.41a2.37,2.37,0,1,1,2.63-3.95c.18.12,4.67,3.12,11.61,8.66a2.37,2.37,0,0,1-1.48,4.22" transform="translate(0 -186.23)" style="fill:#d0dafc"></path><path d="M1027.93,805.15a15.42,15.42,0,1,1-15.41-15.41,15.41,15.41,0,0,1,15.41,15.41" transform="translate(0 -186.23)" style="fill:#ff7043"></path><rect x="1005.46" y="622.54" width="14.11" height="165.46" style="fill:#ff7043"></rect><polygon points="1490.6 632.28 1513.25 693.19 1453 710.81 1433.48 658.3 1490.6 632.28" style="fill:#e8eaf6"></polygon><path d="M1532.46,953.89H993V651.94a9.44,9.44,0,0,1,9.44-9.44H1523a9.44,9.44,0,0,1,9.43,9.44Z" transform="translate(0 -186.23)" style="fill:#e3f2fd"></path><rect x="1012.98" y="485.03" width="500.27" height="283.56" style="fill:#7986cb"></rect><polygon points="1532.28 767.66 993.18 767.66 877.79 809.37 1648.44 809.37 1532.28 767.66" style="fill:#e3f2fd"></polygon><path d="M1527.44,547.41a37,37,0,0,0-34.77-36.95c-.75,0-1.5-.08-2.27-.08a37,37,0,0,0-37,37v54.94h74.07Z" transform="translate(0 -186.23)" style="fill:#1a237e"></path></g><g style="clip-path:url(#clip-path-3)"><rect x="1086.36" y="508.74" width="405.73" height="446.79" transform="translate(-5.96 -175.64) rotate(-0.47)" style="fill:url(#Dégradé_sans_nom_2)"></rect></g><g style="clip-path:url(#clip-path)"><path d="M1618.55,1025.49H907.68a29.89,29.89,0,0,1-29.89-29.89h770.65a29.89,29.89,0,0,1-29.89,29.89" transform="translate(0 -186.23)" style="fill:#fff"></path><path d="M1120.91,554.88l3.81,28.6s5,3.42,7.78,0c1.09-7,3.26-36.79,3.26-36.79Z" transform="translate(0 -186.23)" style="fill:#ff9e80"></path><path d="M1143.33,557l2.1,33.18s4.52,3.16,7.38-1,4-39.52,4-39.52Z" transform="translate(0 -186.23)" style="fill:#ff9e80"></path><path d="M1134.36,579.26l3.31,8.58a1.14,1.14,0,0,1-.67,1.54l-24.24,8.41a8.33,8.33,0,0,1,.42-5.68c1.36-3,8.41-5,9.87-9.42.7-2.43,4-.35,5.58-.23s5.73-3.2,5.73-3.2" transform="translate(0 -186.23)" style="fill:#1a237e"></path><path d="M1153.81,586.73s2.37,8.86-.32,12.51c-6.45,1.32-10.71,1-13.1-.34-.18-3.81,1.35-5.54,3-7.91.87-4.81,1-6.39,1-6.39s6.68-3.22,9.42,2.13" transform="translate(0 -186.23)" style="fill:#1a237e"></path><path d="M1178.72,393c6.52,5.47,6.17,16.16,12.31,22.07,3.13,3,7.47,4.29,11.49,5.91s8.19,3.95,9.85,8c.91,2.16,1.92,4.42,2,6.76s-2.18,4.78-2.13,7.21c0,1.6.85,5.21.52,6.77-1.12,5.24-5.56,7.07-10.66,8.71a33.61,33.61,0,0,1-21.25-.61,47.11,47.11,0,0,1-17.9-11.83,31.24,31.24,0,0,1-6.47-9.09,16,16,0,0,1-.91-11c.82-2.67,2.52-5.1,2.73-7.89.38-5.05-4.19-9.29-4.48-14.34-.33-5.74,5.15-8.36,9.22-11.05,4.71-3.1,11.23-3.39,15.71.37" transform="translate(0 -186.23)" style="fill:#1a237e"></path><path d="M1144.17,442.66c-1.33,4.15-1.78,8.56-3.22,12.68a54.84,54.84,0,0,1-5,9.86l-9.71,16.21a5.57,5.57,0,0,0-.92,2.23c-.2,2,1.94,3.62,4,3.59s3.8-1.24,5.35-2.52c10.28-8.49,15.05-21.72,21.88-33.18,2-3.43,4.36-6.91,4.76-10.88.37-3.59,1.36-13.36-7.34-11.87-4.45.77-8.58,10.28-9.73,13.88" transform="translate(0 -186.23)" style="fill:#ffd740"></path><path d="M1150.86,430.52s1.19,4.36.27,7.58-4.66,11,2,17.49,5.89,21.87,5.89,21.87,18.11,5.73,28.4-3.52a103.88,103.88,0,0,0,3.5-25s-6.63-6.87.1-21.19c-26.18-12.6-40.2,2.76-40.2,2.76" transform="translate(0 -186.23)" style="fill:#ffd740"></path><path d="M1165.17,415.72s.18,5.84,0,6.56c-.15.5-2.34,2.35-3.7,3.45a1.16,1.16,0,0,0,0,1.77c1.41,1.21,3.94,3.19,5.73,3.48a13.67,13.67,0,0,0,12-5,1.16,1.16,0,0,0-.38-1.75c-3.59-1.9-3.78-1.66-4-2.7s-2.86-13-2.86-13Z" transform="translate(0 -186.23)" style="fill:#ff9e80"></path><g style="mix-blend-mode:multiply"><g style="clip-path:url(#clip-path-5)"><path d="M1172,414.07l-6.75,4.43a25.64,25.64,0,0,1-.34,3.77,9.2,9.2,0,0,0,7.09-8.2" transform="translate(0 -186.23)" style="fill:#f4c9c9"></path></g></g><path d="M1198.89,500.82c-2.12,4.22-4.29,7.45-8.15,10.16-5.48,3.84-25.5,10.27-28,14.12-2.8,4.22-2.92,9.61-3.27,14.67-.5,7.23.13,14.57-2.32,21.4-1.06,3-8.39,3.35-12.31,2.26a2.14,2.14,0,0,1-1.53-1.88c-1.31-13.61-1.81-25.74-1.83-39.53,0-3.11,0-6.29,1.12-9.2,1.5-4.05,4.83-2.54,8.19-5.25A154.9,154.9,0,0,1,1177.06,491c4.63-2.38,9.34-4.63,14.06-6.84,1.67-.78,2.53-2.91,4.33-2.1,1.59.72,2.93,3.59,3.59,5.09a16.26,16.26,0,0,1-.15,13.66" transform="translate(0 -186.23)" style="fill:#223056"></path><path d="M1186.57,468.71s8.37,5.54,13.6,22.1c-15.35,12.63-48,4.38-49.2.4s8.09-20,8.09-20Z" transform="translate(0 -186.23)" style="fill:#223056"></path><path d="M1161.1,478.35l5,16c-.37,4.22-.11,8.79-3.3,11.57-4,3.52-10.24,2.91-14.8,5.72-2.67,1.65-7.69,3-9.19,5.72-1.17,2.15-1.26,5.37-1.4,7.82-.67,11.2-.55,32-3.19,34.34-2.46,2.21-11.2,2.47-12.69-.54-2.43-8.66-5.58-37.88-4.57-44.26.52-3.33,1.6-2,3.17-5a44.36,44.36,0,0,1,8.65-11,75.67,75.67,0,0,1,17.1-12.41,14.71,14.71,0,0,1,4.89-1.83Z" transform="translate(0 -186.23)" style="fill:#223056"></path><polygon points="1158.37 320.55 1114.51 320.55 1131.84 304.15 1175.7 304.15 1158.37 320.55" style="fill:#eceff1"></polygon><polygon points="1158.37 320.55 1114.77 320.55 1105.59 291.23 1149.19 291.23 1158.37 320.55" style="fill:#d5dee2"></polygon><path d="M1193.4,428.21c2.46,1.5,4,4.14,5.26,6.72a112.3,112.3,0,0,1,8.78,26.05,15.76,15.76,0,0,1,.51,4.72,11.17,11.17,0,0,1-3.67,6.91,33.47,33.47,0,0,1-6.57,4.52l-11.66,6.71a72.09,72.09,0,0,1-9,4.65,4.31,4.31,0,0,1-1.92.43,4.65,4.65,0,0,1-2.19-1.05c-1.32-.95-2.78-2.17-2.76-3.8a4.9,4.9,0,0,1,1.22-2.7,46.11,46.11,0,0,1,22.41-16.09,1.94,1.94,0,0,0,1.3-.86,1.86,1.86,0,0,0,.08-.94c-.69-5.9-5.61-10.31-8.26-15.64a35.15,35.15,0,0,1-3-11c-.79-5.74,2.6-12.8,9.47-8.6" transform="translate(0 -186.23)" style="fill:#ffd740"></path><path d="M1172.47,480.73s-4.49,1.85-6.47,4.76-5.55,7.53-3.43,8.58,6.07-.25,7.66-2.57a28.56,28.56,0,0,1,6.21-6.14c1.85-1.33-.93-3.83-4-4.63" transform="translate(0 -186.23)" style="fill:#ff9e80"></path><path d="M1158.8,405.91s.16,9,5.48,12.29a2.43,2.43,0,0,0,2,.27c3.92-1.19,5.13-5.49,5.62-7.75,1.47-1.46,1.62-5.9-2.45-4.35-2.36.4-2.48-4.22-5.12-5.55,0,0-4.06-2.5-5.48,5.09" transform="translate(0 -186.23)" style="fill:#ff9e80"></path><polygon points="1261.67 159.5 1130.46 81.67 1257.22 119.79 1261.67 159.5" style="fill:#e3f2fd"></polygon><polygon points="1303.36 100.35 1129.03 81.12 1196.63 153.09 1241.32 127.03 1303.36 100.35" style="fill:#e3f2fd"></polygon><polygon points="1129.03 81.12 1245.13 125.39 1261.67 159.5 1269.16 115.06 1129.03 81.12" style="fill:#d0dafc"></polygon><polygon points="1550.09 208.38 1646.49 204.6 1585.81 258.1 1550.09 208.38" style="fill:#e3f2fd"></polygon><polygon points="1561.38 224.09 1557.68 247.88 1646.49 204.6 1561.38 224.09" style="fill:#d0dafc"></polygon><rect x="1137.77" y="468.95" width="252.64" height="163.33" style="fill:#fff"></rect><g style="mix-blend-mode:multiply"><g style="clip-path:url(#clip-path-6)"><rect x="1453.25" y="456.27" width="20.12" height="312.31" style="fill:#c5cae9"></rect></g></g><path d="M874.75,466.15H841.94v-8.54a30.57,30.57,0,0,0-58.82-11.67l-.85,2.06-1.92-1.12a16.21,16.21,0,0,0-24.41,14,16.5,16.5,0,0,0,.29,3l.42,2.29H726.31v-3.88h25.81c0-.47,0-.93,0-1.39a20.09,20.09,0,0,1,28.33-18.34,34.44,34.44,0,0,1,65.42,15.07v4.66h28.93Z" transform="translate(0 -186.23)" style="fill:#d0dafc"></path><rect x="810.49" y="288.74" width="84.43" height="3.88" style="fill:#d0dafc"></rect><path d="M992,321.74H959.14V313.2a30.57,30.57,0,0,0-58.82-11.67l-.85,2.06-1.92-1.12a16.21,16.21,0,0,0-24.41,14,15.65,15.65,0,0,0,.29,3l.42,2.29H843.5v-3.88h25.81c0-.47,0-.93,0-1.39a20.09,20.09,0,0,1,28.34-18.34A34.44,34.44,0,0,1,963,313.2v4.66H992Z" transform="translate(0 -186.23)" style="fill:#d0dafc"></path><rect x="927.68" y="144.33" width="84.43" height="3.88" style="fill:#d0dafc"></rect><path d="M1758.38,319.64H1716.3V309.12a40.31,40.31,0,0,0-77.58-15.38l-.85,2.05-1.92-1.12a21.65,21.65,0,0,0-32.61,18.71,21.22,21.22,0,0,0,.38,4l.42,2.29h-38.75v-3.87h34.19c-.08-.81-.12-1.6-.12-2.39A25.52,25.52,0,0,1,1636,290.31a44.2,44.2,0,0,1,84.19,18.81v6.65h38.2Z" transform="translate(0 -186.23)" style="fill:#d0dafc"></path><rect x="1498.62" y="146.05" width="109.77" height="3.88" style="fill:#d0dafc"></rect><path d="M1322.32,1010.91H1203.91a15.31,15.31,0,0,1-15.31-15.31h149a15.31,15.31,0,0,1-15.31,15.31" transform="translate(0 -186.23)" style="fill:#7986cb"></path><path d="M1302.17,537.86h-70.83a5.79,5.79,0,1,1,0-11.58h70.83a5.79,5.79,0,0,1,0,11.58" transform="translate(0 -186.23)" style="fill:#fff"></path><path d="M1422.61,537.37h-91.29a5.79,5.79,0,0,1,0-11.58h91.29a5.79,5.79,0,1,1,0,11.58" transform="translate(0 -186.23)" style="fill:#fff"></path><path d="M1362.21,570.16H1231.34a5.79,5.79,0,0,1,0-11.58h130.87a5.79,5.79,0,0,1,0,11.58" transform="translate(0 -186.23)" style="fill:#fff"></path><path d="M1399.68,602.46H1231.34a5.79,5.79,0,1,1,0-11.58h168.34a5.79,5.79,0,0,1,0,11.58" transform="translate(0 -186.23)" style="fill:#fff"></path><path d="M1362.21,634.75H1231.34a5.79,5.79,0,1,1,0-11.57h130.87a5.79,5.79,0,1,1,0,11.57" transform="translate(0 -186.23)" style="fill:#fff"></path><path d="M1695.16,743.76s26-13.1,54.4,1c-19.12,13.32-47.37,10.64-54.4-1" transform="translate(0 -186.23)" style="fill:#ffd740"></path><path d="M1710.79,749.07s-8.51-2.33-5.2-19.16c.9-5.37-4-15.36-.17-22.29a19.08,19.08,0,0,1,11.64-9.49c6.17-1.79,14.41-3,18.26,13.34s7.43,12.35,12.62,19.6,3.23,11.82-1.7,12.9-6.27,7.07-12.71,3.31-13.61,3.76-22.74,1.79" transform="translate(0 -186.23)" style="fill:#1a237e"></path><path d="M1697.25,743.12s-7.1.36-12.38,10.33-5.66,16.62-8.66,26a62.07,62.07,0,0,1-6.28,13.49s-8.07-1.77-27.4-17.1c-4.64,9.29-5.23,8.5-5.23,8.5s20.17,22.71,35.12,24.48a6.6,6.6,0,0,0,5.47-1.89c15.69-16.48,19.36-39.13,19.36-39.13Z" transform="translate(0 -186.23)" style="fill:#ffd740"></path></g><g style="clip-path:url(#clip-path-7)"><path d="M1607.48,794.08v0Z" transform="translate(0 -186.23)" style="fill:#fff"></path><polygon points="1609.69 607.85 1609.69 559.75 1607.48 559.75 1607.48 562.16 1607.48 607.85 1609.69 607.85" style="fill:#fff"></polygon><rect x="1609.69" y="559.75" width="2.21" height="48.1" style="fill:#fff"></rect><rect x="1611.9" y="559.75" width="2.21" height="48.1" style="fill:#fff"></rect><rect x="1614.11" y="559.75" width="2.21" height="48.1" style="fill:#fff"></rect><rect x="1616.32" y="559.75" width="2.21" height="48.1" style="fill:#feffff"></rect><rect x="1618.53" y="559.75" width="2.21" height="48.1" style="fill:#fefeff"></rect><rect x="1620.74" y="559.75" width="2.21" height="48.1" style="fill:#fdfeff"></rect><rect x="1622.95" y="559.75" width="2.21" height="48.1" style="fill:#fdfeff"></rect><rect x="1625.16" y="559.75" width="2.21" height="48.1" style="fill:#fcfeff"></rect><rect x="1627.37" y="559.75" width="2.21" height="48.1" style="fill:#fbfdff"></rect><rect x="1629.58" y="559.75" width="2.21" height="48.1" style="fill:#fafdff"></rect><rect x="1631.79" y="559.75" width="2.21" height="48.1" style="fill:#fafdff"></rect><rect x="1634" y="559.75" width="2.21" height="48.1" style="fill:#f9fcff"></rect><rect x="1636.21" y="559.75" width="2.21" height="48.1" style="fill:#f8fcfe"></rect><rect x="1638.42" y="559.75" width="2.21" height="48.1" style="fill:#f7fbfe"></rect><rect x="1640.63" y="559.75" width="2.21" height="48.1" style="fill:#f5fbfe"></rect><rect x="1642.84" y="559.75" width="2.21" height="48.1" style="fill:#f4fafe"></rect><rect x="1645.05" y="559.75" width="2.21" height="48.1" style="fill:#f3f9fe"></rect><rect x="1647.26" y="559.75" width="2.21" height="48.1" style="fill:#f2f9fe"></rect><rect x="1649.47" y="559.75" width="2.21" height="48.1" style="fill:#f0f8fe"></rect><rect x="1651.68" y="559.75" width="2.21" height="48.1" style="fill:#eff8fe"></rect><rect x="1653.89" y="559.75" width="2.21" height="48.1" style="fill:#edf7fe"></rect><rect x="1656.1" y="559.75" width="2.21" height="48.1" style="fill:#ecf6fe"></rect><rect x="1658.31" y="559.75" width="2.21" height="48.1" style="fill:#eaf5fe"></rect><rect x="1660.52" y="559.75" width="2.21" height="48.1" style="fill:#e8f5fd"></rect><rect x="1662.73" y="559.75" width="2.21" height="48.1" style="fill:#e7f4fd"></rect><rect x="1664.94" y="559.75" width="2.21" height="48.1" style="fill:#e5f3fd"></rect><polygon points="1669.36 605.06 1669.36 559.75 1667.14 559.75 1667.14 607.85 1669.36 607.85 1669.36 605.06" style="fill:#e3f2fd"></polygon><path d="M1669.36,746v0Z" transform="translate(0 -186.23)" style="fill:#e3f2fd"></path></g><g style="clip-path:url(#clip-path)"><path d="M1769.46,806.31c-1.83-9.44,0-13.79-4.59-34.71-5.9-27.21-17.94-27.77-17.94-27.77-6.69-1.16-6.48,20-6.48,20l2.21,4.85c3,7.95,10,27.45,7.56,31.5-3,5.1-4.92,13.78,4.56,17s16.52-1.48,14.68-10.93" transform="translate(0 -186.23)" style="fill:#ffd740"></path><path d="M1710.17,739.72l-12.84,4.33s-3.17,9.8-4.71,14-7.33,14.25,1,23.56,8.37,30.21,8.37,30.21,22.85,8.83,37.51-2.49a115.39,115.39,0,0,1,9-32.28s-10.42-13,0-31.41c-9.82-4.69-15.91-6-15.91-6Z" transform="translate(0 -186.23)" style="fill:#ffd740"></path><path d="M1747.19,810.16s8,16.74,5.26,52.62-18,141.7-18,141.7l-14,1.85s1.21-93.08-6.4-160c14.71-27.12,33.17-36.21,33.17-36.21" transform="translate(0 -186.23)" style="fill:#223056"></path><path d="M1700.92,811.31s-25.55,41.62-29.36,100.68a22.82,22.82,0,0,0,.5,6.38c14.46,66.38,23.42,88.68,23.42,88.68h12.24s-1.23-47.44-12.56-91.39c18.92-41.7,25.7-54.51,25.7-54.51L1739,811.31Z" transform="translate(0 -186.23)" style="fill:#223056"></path><path d="M1707.73,1002.51l2.36,11a1.39,1.39,0,0,1-1.1,1.72l-30.77,5.53a10.09,10.09,0,0,1,1.58-6.75c2.19-3.31,11.07-4.49,13.66-9.48,1.3-2.79,4.94.35,6.76.78s7.51-2.77,7.51-2.77" transform="translate(0 -186.23)" style="fill:#fff"></path></g><g style="clip-path:url(#clip-path-9)"><path d="M1715.48,823.2v0Z" transform="translate(0 -186.23)" style="fill:#fff"></path><polygon points="1717.42 636.97 1717.42 590.02 1715.48 590.02 1715.48 631.78 1715.48 636.97 1717.42 636.97" style="fill:#fff"></polygon><rect x="1717.42" y="590.02" width="1.94" height="46.95" style="fill:#fff"></rect><rect x="1719.36" y="590.02" width="1.94" height="46.95" style="fill:#fff"></rect><rect x="1721.3" y="590.02" width="1.94" height="46.95" style="fill:#fff"></rect><rect x="1723.24" y="590.02" width="1.94" height="46.95" style="fill:#feffff"></rect><rect x="1725.18" y="590.02" width="1.94" height="46.95" style="fill:#fefeff"></rect><rect x="1727.11" y="590.02" width="1.94" height="46.95" style="fill:#fdfeff"></rect><rect x="1729.05" y="590.02" width="1.94" height="46.95" style="fill:#fdfeff"></rect><rect x="1730.99" y="590.02" width="1.94" height="46.95" style="fill:#fcfeff"></rect><rect x="1732.93" y="590.02" width="1.94" height="46.95" style="fill:#fbfdff"></rect><rect x="1734.87" y="590.02" width="1.94" height="46.95" style="fill:#fafdff"></rect><rect x="1736.8" y="590.02" width="1.94" height="46.95" style="fill:#fafdff"></rect><rect x="1738.74" y="590.02" width="1.94" height="46.95" style="fill:#f9fcff"></rect><rect x="1740.68" y="590.02" width="1.94" height="46.95" style="fill:#f8fcfe"></rect><rect x="1742.62" y="590.02" width="1.94" height="46.95" style="fill:#f7fbfe"></rect><rect x="1744.56" y="590.02" width="1.94" height="46.95" style="fill:#f5fbfe"></rect><rect x="1746.5" y="590.02" width="1.94" height="46.95" style="fill:#f4fafe"></rect><rect x="1748.43" y="590.02" width="1.94" height="46.95" style="fill:#f3f9fe"></rect><rect x="1750.37" y="590.02" width="1.94" height="46.95" style="fill:#f2f9fe"></rect><rect x="1752.31" y="590.02" width="1.94" height="46.95" style="fill:#f0f8fe"></rect><rect x="1754.25" y="590.02" width="1.94" height="46.95" style="fill:#eff8fe"></rect><rect x="1756.19" y="590.02" width="1.94" height="46.95" style="fill:#edf7fe"></rect><rect x="1758.13" y="590.02" width="1.94" height="46.95" style="fill:#ecf6fe"></rect><rect x="1760.06" y="590.02" width="1.94" height="46.95" style="fill:#eaf5fe"></rect><rect x="1762" y="590.02" width="1.94" height="46.95" style="fill:#e8f5fd"></rect><rect x="1763.94" y="590.02" width="1.94" height="46.95" style="fill:#e7f4fd"></rect><rect x="1765.88" y="590.02" width="1.94" height="46.95" style="fill:#e5f3fd"></rect><polygon points="1769.76 594.66 1769.76 590.02 1767.82 590.02 1767.82 636.97 1769.76 636.97 1769.76 594.66" style="fill:#e3f2fd"></polygon><path d="M1769.75,776.25v0Z" transform="translate(0 -186.23)" style="fill:#e3f2fd"></path></g><g style="clip-path:url(#clip-path)"><path d="M1760.39,812.39a2.23,2.23,0,0,0-.85-3.1c-1.54-.84-3.56-1.91-4.39-2.22-1.44-.54-12-1.09-12-1.09s-3.61,3.09-.74,6a58.71,58.71,0,0,0,6.54,5.6s6,4,11.43-5.22" transform="translate(0 -186.23)" style="fill:#ff9e80"></path><path d="M1714.56,726.78s-.26,7.8-.6,8.75-6.69,5.31-6.69,5.31,5.21,5.68,8.64,6.45a18.21,18.21,0,0,0,17.6-7c-6.09-3.86-6.41-3.34-6.63-4.89s-2.72-17.58-2.72-17.58Z" transform="translate(0 -186.23)" style="fill:#ff9e80"></path><g style="mix-blend-mode:multiply"><g style="clip-path:url(#clip-path-11)"><path d="M1722.77,724.91l-8.36,5.48a32.36,32.36,0,0,1-.42,4.66,11.38,11.38,0,0,0,8.78-10.14" transform="translate(0 -186.23)" style="fill:#f4c9c9"></path></g></g><path d="M1708.79,710.84s-2.5,12.4,3.81,18.58a3.36,3.36,0,0,0,2.6,1c5.76-.43,8.74-6,10.1-9,2.46-1.56,4-7.64-2-6.73-3.37-.17-2.14-6.57-5.36-9.2,0,0-4.82-4.68-9.1,5.34" transform="translate(0 -186.23)" style="fill:#ff9e80"></path><path d="M1704.75,717.12s5-.64,7.8-6.83,6-6.83,6-6.83l-9.24-.88s-5.38,2.65-4.58,14.54" transform="translate(0 -186.23)" style="fill:#1a237e"></path><path d="M1721.35,1002.75s-2.89,10.8.39,15.25c7.86,1.61,13.06,1.25,16-.41.22-4.65-1.65-6.75-3.65-9.65-1-5.86-1.22-7.78-1.22-7.78s-8.14-3.93-11.48,2.59" transform="translate(0 -186.23)" style="fill:#fff"></path><path d="M1627.25,778.5c-1.12-6.16,4.45-8.26,6-8.47s3.84,4.06,2.88,8.92,4.26,12,4.26,12-10.74.44-13.09-12.46" transform="translate(0 -186.23)" style="fill:#ff9e80"></path><g style="mix-blend-mode:multiply"><g style="clip-path:url(#clip-path-12)"><polygon points="1302.57 753.8 1096.32 753.8 1096.87 540.91 1303.12 540.91 1302.57 753.8" style="fill:#c5cae9"></polygon><polygon points="1314.31 779.16 1302.5 779.16 1303.18 515.55 1314.99 515.55 1314.31 779.16" style="fill:#c5cae9"></polygon><polygon points="1354.88 779.16 1343.07 779.16 1343.75 515.55 1355.56 515.55 1354.88 779.16" style="fill:#c5cae9"></polygon><polygon points="1354.01 529.74 1353.98 540.91 1303.12 540.91 1303.15 529.74 1354.01 529.74" style="fill:#c5cae9"></polygon><polygon points="1353.91 567.08 1353.88 578.25 1303.02 578.25 1303.05 567.08 1353.91 567.08" style="fill:#c5cae9"></polygon><polygon points="1353.81 604.42 1353.78 615.6 1302.92 615.6 1302.95 604.42 1353.81 604.42" style="fill:#c5cae9"></polygon><polygon points="1353.71 641.77 1353.69 652.94 1302.83 652.94 1302.86 641.77 1353.71 641.77" style="fill:#c5cae9"></polygon><polygon points="1353.62 679.11 1353.59 690.28 1302.73 690.28 1302.76 679.11 1353.62 679.11" style="fill:#c5cae9"></polygon><polygon points="1353.52 716.45 1353.49 727.62 1302.63 727.62 1302.66 716.45 1353.52 716.45" style="fill:#c5cae9"></polygon><polygon points="1353.43 753.8 1353.4 764.97 1302.54 764.97 1302.57 753.8 1353.43 753.8" style="fill:#c5cae9"></polygon><polygon points="1057.2 779.16 1045.39 779.16 1046.07 515.55 1057.88 515.55 1057.2 779.16" style="fill:#c5cae9"></polygon><polygon points="1097.77 779.16 1085.96 779.16 1086.64 515.55 1098.45 515.55 1097.77 779.16" style="fill:#c5cae9"></polygon><polygon points="1096.9 529.74 1096.87 540.91 1046.01 540.91 1046.04 529.74 1096.9 529.74" style="fill:#c5cae9"></polygon><polygon points="1096.8 567.08 1096.77 578.25 1045.91 578.25 1045.94 567.08 1096.8 567.08" style="fill:#c5cae9"></polygon><polygon points="1096.7 604.42 1096.67 615.6 1045.82 615.6 1045.84 604.42 1096.7 604.42" style="fill:#c5cae9"></polygon><polygon points="1096.61 641.77 1096.58 652.94 1045.72 652.94 1045.75 641.77 1096.61 641.77" style="fill:#c5cae9"></polygon><polygon points="1096.51 679.11 1096.48 690.28 1045.62 690.28 1045.65 679.11 1096.51 679.11" style="fill:#c5cae9"></polygon><polygon points="1096.41 716.45 1096.38 727.62 1045.53 727.62 1045.56 716.45 1096.41 716.45" style="fill:#c5cae9"></polygon><polygon points="1096.32 753.8 1096.29 764.97 1045.43 764.97 1045.46 753.8 1096.32 753.8" style="fill:#c5cae9"></polygon></g></g><polygon points="1280.31 790.36 1268.5 790.36 1303.39 511.75 1315.2 511.75 1280.31 790.36" style="fill:#1a237e"></polygon><polygon points="1320.88 790.36 1309.07 790.36 1343.96 511.75 1355.77 511.75 1320.88 790.36" style="fill:#1a237e"></polygon><polygon points="1352.37 526.75 1350.89 538.55 1300.04 538.55 1301.52 526.75 1352.37 526.75" style="fill:#1a237e"></polygon><polygon points="1347.43 566.21 1345.95 578.02 1295.1 578.02 1296.57 566.21 1347.43 566.21" style="fill:#1a237e"></polygon><polygon points="1342.49 605.68 1341.01 617.49 1290.15 617.49 1291.63 605.68 1342.49 605.68" style="fill:#1a237e"></polygon><polygon points="1337.55 645.15 1336.07 656.96 1285.21 656.96 1286.69 645.15 1337.55 645.15" style="fill:#1a237e"></polygon><polygon points="1332.6 684.62 1331.13 696.42 1280.27 696.42 1281.74 684.62 1332.6 684.62" style="fill:#1a237e"></polygon><polygon points="1327.66 724.09 1326.18 735.89 1275.32 735.89 1276.8 724.09 1327.66 724.09" style="fill:#1a237e"></polygon><polygon points="1322.72 763.55 1321.24 775.36 1270.38 775.36 1271.86 763.55 1322.72 763.55" style="fill:#1a237e"></polygon><polygon points="1271.86 763.55 1065.61 763.55 1093.79 538.55 1300.04 538.55 1271.86 763.55" style="fill:#ff7043"></polygon><path d="M1247.27,840.76l-125,67.29a8.89,8.89,0,0,1-13-8.92l16.86-134.58a8.89,8.89,0,0,1,13.51-6.44l108.12,67.29a8.88,8.88,0,0,1-.49,15.36" transform="translate(0 -186.23)" style="fill:#fff"></path><polygon points="1023.2 790.36 1011.39 790.36 1046.28 511.75 1058.09 511.75 1023.2 790.36" style="fill:#1a237e"></polygon><polygon points="1063.77 790.36 1051.96 790.36 1086.85 511.75 1098.66 511.75 1063.77 790.36" style="fill:#1a237e"></polygon><polygon points="1095.27 526.75 1093.79 538.55 1042.93 538.55 1044.41 526.75 1095.27 526.75" style="fill:#1a237e"></polygon><polygon points="1090.32 566.21 1088.84 578.02 1037.98 578.02 1039.46 566.21 1090.32 566.21" style="fill:#1a237e"></polygon><polygon points="1085.38 605.68 1083.9 617.49 1033.04 617.49 1034.52 605.68 1085.38 605.68" style="fill:#1a237e"></polygon><polygon points="1080.44 645.15 1078.96 656.96 1028.1 656.96 1029.58 645.15 1080.44 645.15" style="fill:#1a237e"></polygon><polygon points="1075.49 684.62 1074.02 696.42 1023.16 696.42 1024.64 684.62 1075.49 684.62" style="fill:#1a237e"></polygon><polygon points="1070.55 724.09 1069.07 735.89 1018.22 735.89 1019.7 724.09 1070.55 724.09" style="fill:#1a237e"></polygon><polygon points="1065.61 763.55 1064.13 775.36 1013.27 775.36 1014.75 763.55 1065.61 763.55" style="fill:#1a237e"></polygon><g style="mix-blend-mode:multiply"><g style="clip-path:url(#clip-path-13)"><polygon points="1219.48 603.53 1198.76 778.83 1166.7 800.51 1193.09 603.53 1219.48 603.53" style="fill:#c5cae9"></polygon></g></g><polygon points="1166.7 800.51 908.16 800.51 960.94 603.53 1219.48 603.53 1166.7 800.51" style="fill:#fff"></polygon><polygon points="1142.56 771.49 947.85 771.49 985.08 632.55 1179.79 632.55 1142.56 771.49" style="fill:#ffd740"></polygon><path d="M1091.8,851.09c-1.92,7.17-9.28,13-16.44,13s-11.42-5.81-9.5-13,9.28-13,16.45-13,11.41,5.81,9.49,13" transform="translate(0 -186.23)" style="fill:#fff"></path><polygon points="964.37 709.84 1020.1 665.89 1068.76 732.36 1116.07 695.04 1150.45 742.02 1142.56 771.49 947.85 771.49 964.37 709.84" style="fill:#1a237e"></polygon></g><rect width="1920" height="973.77" style="fill:none"></rect></g></g></g></svg> 