<?xml version="1.0" encoding="utf-8"?>
<!-- Generator: Adobe Illustrator 24.0.3, SVG Export Plug-In . SVG Version: 6.00 Build 0)  -->
<svg version="1.1" id="Calque_1" xmlns="http://www.w3.org/2000/svg" xmlns:xlink="http://www.w3.org/1999/xlink" x="0px" y="0px"
	 viewBox="0 0 598.9 600" style="enable-background:new 0 0 598.9 600;" xml:space="preserve">
<style type="text/css">
	.st0{fill:#76bbff;}
	.st1{fill:#FFFFFF;}
</style>
<title>questionnaire</title>
<path class="st0" d="M69.9,1.1h459c38.6,0,69.9,31.3,69.9,69.9v459c0,38.6-31.3,69.9-69.9,69.9h-459C31.3,600,0,568.7,0,530V71
	C0,32.4,31.3,1.1,69.9,1.1z"/>
<path class="st1" d="M465.9,205.6L369,113.3c-2.6-2.4-5.5-4.5-8.5-6.3v106.8h112C470.6,210.8,468.4,208,465.9,205.6z"/>
<path class="st1" d="M352.8,242.8c-6,0.1-11.8-2.2-16.1-6.3c-4.3-3.9-6.7-9.5-6.6-15.4V97.9h-190c-6-0.1-11.8,2.2-16.1,6.3
	c-4.3,3.9-6.7,9.5-6.7,15.4v362c-0.1,5.8,2.3,11.4,6.7,15.4c4.3,4.2,10.1,6.5,16.1,6.3h319.2c6,0.1,11.8-2.2,16.1-6.3
	c4.3-3.9,6.7-9.5,6.6-15.4V242.8H352.8z M277.1,400.2l-46.7,46.7l-8.8,8.8c-2.4,2.4-6.3,2.4-8.8,0l-8.8-8.8l-23.3-23.5
	c-2.4-2.4-2.4-6.3,0-8.8l8.8-8.8c2.4-2.4,6.3-2.4,8.8,0l19,19l42.3-42.4c2.4-2.4,6.3-2.4,8.8,0l8.8,8.8c2.4,2.4,2.4,6.3,0,8.8
	L277.1,400.2z M277.1,320.6l-46.7,46.6l-8.8,8.8c-2.4,2.4-6.3,2.4-8.8,0l-8.8-8.8l-23.3-23.4c-2.4-2.4-2.4-6.3,0-8.8l8.8-8.8
	c2.4-2.4,6.3-2.4,8.8,0l19,19l42.3-42.4c2.4-2.4,6.3-2.4,8.8,0l8.8,8.8c2.4,2.4,2.4,6.3,0,8.8L277.1,320.6z M277.1,241.1l-46.7,46.7
	l-8.8,8.8c-2.4,2.4-6.3,2.4-8.8,0l-8.8-8.8l-23.3-23.5c-2.4-2.4-2.4-6.3,0-8.8l8.8-8.8c2.4-2.4,6.3-2.4,8.8,0l19,19l42.3-42.4
	c2.4-2.4,6.3-2.4,8.8,0l8.8,8.8c2.4,2.4,2.4,6.3,0,8.8L277.1,241.1z"/>
</svg>
