<?xml version="1.0" encoding="utf-8"?>
<!-- Generator: Adobe Illustrator 24.0.3, SVG Export Plug-In . SVG Version: 6.00 Build 0)  -->
<svg version="1.1"
	 id="Calque_1" xmlns:cc="http://creativecommons.org/ns#" xmlns:dc="http://purl.org/dc/elements/1.1/" xmlns:inkscape="http://www.inkscape.org/namespaces/inkscape" xmlns:rdf="http://www.w3.org/1999/02/22-rdf-syntax-ns#" xmlns:sodipodi="http://sodipodi.sourceforge.net/DTD/sodipodi-0.dtd" xmlns:svg="http://www.w3.org/2000/svg"
	 xmlns="http://www.w3.org/2000/svg" xmlns:xlink="http://www.w3.org/1999/xlink" x="0px" y="0px" viewBox="0 0 289.2 289.2"
	 style="enable-background:new 0 0 289.2 289.2;" xml:space="preserve">
<style type="text/css">
	.st0{fill:#76bbff;}
	.st1{fill:#FFFFFF;}
</style>
<sodipodi:namedview  bordercolor="#666666" borderopacity="1" gridtolerance="10" guidetolerance="10" id="namedview1446" inkscape:current-layer="Calque_1" inkscape:cx="36.380256" inkscape:cy="144.60001" inkscape:document-rotation="0" inkscape:pageopacity="0" inkscape:pageshadow="2" inkscape:window-height="989" inkscape:window-maximized="0" inkscape:window-width="1475" inkscape:window-x="0" inkscape:window-y="23" inkscape:zoom="1.0857538" objecttolerance="10" pagecolor="#ffffff" showgrid="false">
	</sodipodi:namedview>
<title  id="title1439">icon</title>
<path id="path1441" class="st0" d="M34,0.5h221.2c18.6,0,33.7,15.1,33.7,33.7v221.2c0,18.6-15.1,33.7-33.7,33.7H34
	c-18.6,0-33.7-15.1-33.7-33.7V34.2C0.3,15.6,15.4,0.5,34,0.5z"/>
<path id="path848" inkscape:connector-curvature="0" class="st1" d="M181.7,89.5c0-18.9-15.8-34.2-35.2-34.2s-35.2,15.3-35.2,34.2
	s15.8,34.2,35.2,34.2S181.7,108.4,181.7,89.5z M138.2,141.1c-21.8-12.9-57-16.5-74.8-17.5c-6-0.3-10.9,4.1-10.9,9.6v79.3
	c0,5.1,4.3,9.4,9.7,9.6c16,0.8,48.4,3.8,70.8,14.7c3.4,1.7,7.5-0.6,7.5-4.2V145C140.6,143.6,139.7,142,138.2,141.1L138.2,141.1z
	 M229.4,123.7c-17.7,1-53,4.5-74.7,17.5c-1.5,0.9-2.4,2.5-2.4,4.1v87.5c0,3.6,4.1,5.9,7.5,4.2c22.4-10.9,54.8-13.9,70.8-14.7
	c5.5-0.3,9.7-4.5,9.7-9.6v-79.3C240.3,127.8,235.4,123.3,229.4,123.7z"/>
</svg>
